<svg width="178" height="178" viewBox="0 0 178 178" fill="none" xmlns="http://www.w3.org/2000/svg">
<g filter="url(#filter0_d_882_2809)">
<path d="M4 5C4 2.23858 6.23858 0 9 0H169C171.761 0 174 2.23858 174 5V165C174 167.761 171.761 170 169 170H9C6.23858 170 4 167.761 4 165V5Z" fill="white"/>
<path d="M5.5 5C5.5 3.06701 7.06701 1.5 9 1.5H169C170.933 1.5 172.5 3.06701 172.5 5V165C172.5 166.933 170.933 168.5 169 168.5H9C7.06701 168.5 5.5 166.933 5.5 165V5Z" stroke="#8C8C8C" stroke-width="3"/>
</g>
<defs>
<filter id="filter0_d_882_2809" x="0" y="0" width="178" height="178" filterUnits="userSpaceOnUse" color-interpolation-filters="sRGB">
<feFlood flood-opacity="0" result="BackgroundImageFix"/>
<feColorMatrix in="SourceAlpha" type="matrix" values="0 0 0 0 0 0 0 0 0 0 0 0 0 0 0 0 0 0 127 0" result="hardAlpha"/>
<feOffset dy="4"/>
<feGaussianBlur stdDeviation="2"/>
<feComposite in2="hardAlpha" operator="out"/>
<feColorMatrix type="matrix" values="0 0 0 0 0 0 0 0 0 0 0 0 0 0 0 0 0 0 0.25 0"/>
<feBlend mode="normal" in2="BackgroundImageFix" result="effect1_dropShadow_882_2809"/>
<feBlend mode="normal" in="SourceGraphic" in2="effect1_dropShadow_882_2809" result="shape"/>
</filter>
</defs>
</svg>
