<svg width="290" height="138" viewBox="0 0 290 138" fill="none" xmlns="http://www.w3.org/2000/svg">
<rect y="12" width="290" height="126" rx="30" fill="#C3C3C3"/>
<path d="M79.1875 51L77.9453 46.9219H71.6992L70.457 51H66.543L72.5898 33.7969H77.0312L83.1016 51H79.1875ZM77.0781 43.875L75.8359 39.8906C75.7578 39.625 75.6523 39.2852 75.5195 38.8711C75.3945 38.4492 75.2656 38.0234 75.1328 37.5938C75.0078 37.1562 74.9062 36.7773 74.8281 36.457C74.75 36.7773 74.6406 37.1758 74.5 37.6523C74.3672 38.1211 74.2383 38.5664 74.1133 38.9883C73.9883 39.4102 73.8984 39.7109 73.8438 39.8906L72.6133 43.875H77.0781ZM85.2695 51V33.8672H88.9023V51H85.2695ZM109.938 51L108.695 46.9219H102.449L101.207 51H97.293L103.34 33.7969H107.781L113.852 51H109.938ZM107.828 43.875L106.586 39.8906C106.508 39.625 106.402 39.2852 106.27 38.8711C106.145 38.4492 106.016 38.0234 105.883 37.5938C105.758 37.1562 105.656 36.7773 105.578 36.457C105.5 36.7773 105.391 37.1758 105.25 37.6523C105.117 38.1211 104.988 38.5664 104.863 38.9883C104.738 39.4102 104.648 39.7109 104.594 39.8906L103.363 43.875H107.828ZM123.18 37.6523C124.578 37.6523 125.703 38.0352 126.555 38.8008C127.406 39.5586 127.832 40.7773 127.832 42.457V51H124.258V43.3477C124.258 42.4102 124.086 41.7031 123.742 41.2266C123.406 40.75 122.875 40.5117 122.148 40.5117C121.055 40.5117 120.309 40.8828 119.91 41.625C119.512 42.3672 119.312 43.4375 119.312 44.8359V51H115.738V37.8984H118.469L118.949 39.5742H119.148C119.43 39.1211 119.777 38.7539 120.191 38.4727C120.613 38.1914 121.078 37.9844 121.586 37.8516C122.102 37.7188 122.633 37.6523 123.18 37.6523ZM135.086 37.8984V51H131.512V37.8984H135.086ZM133.305 32.7656C133.836 32.7656 134.293 32.8906 134.676 33.1406C135.059 33.3828 135.25 33.8398 135.25 34.5117C135.25 35.1758 135.059 35.6367 134.676 35.8945C134.293 36.1445 133.836 36.2695 133.305 36.2695C132.766 36.2695 132.305 36.1445 131.922 35.8945C131.547 35.6367 131.359 35.1758 131.359 34.5117C131.359 33.8398 131.547 33.3828 131.922 33.1406C132.305 32.8906 132.766 32.7656 133.305 32.7656ZM154.234 37.6523C155.719 37.6523 156.84 38.0352 157.598 38.8008C158.363 39.5586 158.746 40.7773 158.746 42.457V51H155.16V43.3477C155.16 42.4102 155 41.7031 154.68 41.2266C154.359 40.75 153.863 40.5117 153.191 40.5117C152.246 40.5117 151.574 40.8516 151.176 41.5312C150.777 42.2031 150.578 43.168 150.578 44.4258V51H147.004V43.3477C147.004 42.7227 146.934 42.1992 146.793 41.7773C146.652 41.3555 146.438 41.0391 146.148 40.8281C145.859 40.6172 145.488 40.5117 145.035 40.5117C144.371 40.5117 143.848 40.6797 143.465 41.0156C143.09 41.3438 142.82 41.832 142.656 42.4805C142.5 43.1211 142.422 43.9062 142.422 44.8359V51H138.848V37.8984H141.578L142.059 39.5742H142.258C142.523 39.1211 142.855 38.7539 143.254 38.4727C143.66 38.1914 144.105 37.9844 144.59 37.8516C145.074 37.7188 145.566 37.6523 146.066 37.6523C147.027 37.6523 147.84 37.8086 148.504 38.1211C149.176 38.4336 149.691 38.918 150.051 39.5742H150.367C150.758 38.9023 151.309 38.4141 152.02 38.1094C152.738 37.8047 153.477 37.6523 154.234 37.6523ZM167.793 37.6289C169.551 37.6289 170.898 38.0117 171.836 38.7773C172.773 39.543 173.242 40.707 173.242 42.2695V51H170.746L170.055 49.2188H169.961C169.586 49.6875 169.203 50.0703 168.812 50.3672C168.422 50.6641 167.973 50.8828 167.465 51.0234C166.957 51.1641 166.34 51.2344 165.613 51.2344C164.84 51.2344 164.145 51.0859 163.527 50.7891C162.918 50.4922 162.438 50.0391 162.086 49.4297C161.734 48.8125 161.559 48.0312 161.559 47.0859C161.559 45.6953 162.047 44.6719 163.023 44.0156C164 43.3516 165.465 42.9844 167.418 42.9141L169.691 42.8438V42.2695C169.691 41.582 169.512 41.0781 169.152 40.7578C168.793 40.4375 168.293 40.2773 167.652 40.2773C167.02 40.2773 166.398 40.3672 165.789 40.5469C165.18 40.7266 164.57 40.9531 163.961 41.2266L162.777 38.8125C163.473 38.4453 164.25 38.1562 165.109 37.9453C165.977 37.7344 166.871 37.6289 167.793 37.6289ZM169.691 44.9297L168.309 44.9766C167.152 45.0078 166.348 45.2148 165.895 45.5977C165.449 45.9805 165.227 46.4844 165.227 47.1094C165.227 47.6562 165.387 48.0469 165.707 48.2812C166.027 48.5078 166.445 48.6211 166.961 48.6211C167.727 48.6211 168.371 48.3945 168.895 47.9414C169.426 47.4883 169.691 46.8438 169.691 46.0078V44.9297ZM182.453 48.3867C182.844 48.3867 183.223 48.3477 183.59 48.2695C183.965 48.1914 184.336 48.0938 184.703 47.9766V50.6367C184.32 50.8086 183.844 50.9492 183.273 51.0586C182.711 51.1758 182.094 51.2344 181.422 51.2344C180.641 51.2344 179.938 51.1094 179.312 50.8594C178.695 50.6016 178.207 50.1602 177.848 49.5352C177.496 48.9023 177.32 48.0234 177.32 46.8984V40.582H175.609V39.0703L177.578 37.875L178.609 35.1094H180.895V37.8984H184.562V40.582H180.895V46.8984C180.895 47.3984 181.035 47.7734 181.316 48.0234C181.605 48.2656 181.984 48.3867 182.453 48.3867ZM190.938 37.8984V51H187.363V37.8984H190.938ZM189.156 32.7656C189.688 32.7656 190.145 32.8906 190.527 33.1406C190.91 33.3828 191.102 33.8398 191.102 34.5117C191.102 35.1758 190.91 35.6367 190.527 35.8945C190.145 36.1445 189.688 36.2695 189.156 36.2695C188.617 36.2695 188.156 36.1445 187.773 35.8945C187.398 35.6367 187.211 35.1758 187.211 34.5117C187.211 33.8398 187.398 33.3828 187.773 33.1406C188.156 32.8906 188.617 32.7656 189.156 32.7656ZM206.605 44.4258C206.605 45.5195 206.457 46.4883 206.16 47.332C205.871 48.1758 205.445 48.8906 204.883 49.4766C204.328 50.0547 203.656 50.4922 202.867 50.7891C202.086 51.0859 201.203 51.2344 200.219 51.2344C199.297 51.2344 198.449 51.0859 197.676 50.7891C196.91 50.4922 196.242 50.0547 195.672 49.4766C195.109 48.8906 194.672 48.1758 194.359 47.332C194.055 46.4883 193.902 45.5195 193.902 44.4258C193.902 42.9727 194.16 41.7422 194.676 40.7344C195.191 39.7266 195.926 38.9609 196.879 38.4375C197.832 37.9141 198.969 37.6523 200.289 37.6523C201.516 37.6523 202.602 37.9141 203.547 38.4375C204.5 38.9609 205.246 39.7266 205.785 40.7344C206.332 41.7422 206.605 42.9727 206.605 44.4258ZM197.547 44.4258C197.547 45.2852 197.641 46.0078 197.828 46.5938C198.016 47.1797 198.309 47.6211 198.707 47.918C199.105 48.2148 199.625 48.3633 200.266 48.3633C200.898 48.3633 201.41 48.2148 201.801 47.918C202.199 47.6211 202.488 47.1797 202.668 46.5938C202.855 46.0078 202.949 45.2852 202.949 44.4258C202.949 43.5586 202.855 42.8398 202.668 42.2695C202.488 41.6914 202.199 41.2578 201.801 40.9688C201.402 40.6797 200.883 40.5352 200.242 40.5352C199.297 40.5352 198.609 40.8594 198.18 41.5078C197.758 42.1562 197.547 43.1289 197.547 44.4258ZM217 37.6523C218.398 37.6523 219.523 38.0352 220.375 38.8008C221.227 39.5586 221.652 40.7773 221.652 42.457V51H218.078V43.3477C218.078 42.4102 217.906 41.7031 217.562 41.2266C217.227 40.75 216.695 40.5117 215.969 40.5117C214.875 40.5117 214.129 40.8828 213.73 41.625C213.332 42.3672 213.133 43.4375 213.133 44.8359V51H209.559V37.8984H212.289L212.77 39.5742H212.969C213.25 39.1211 213.598 38.7539 214.012 38.4727C214.434 38.1914 214.898 37.9844 215.406 37.8516C215.922 37.7188 216.453 37.6523 217 37.6523Z" fill="black"/>
<path d="M54.0508 90.8027L47.8496 103H45.252L52.9082 88.7812H54.5781L54.0508 90.8027ZM55.3984 103L53.3867 90.5391L53.5332 88.7812H55.0859L57.8301 103H55.3984ZM56.0918 97.7266L55.75 99.6699H48.2305L48.5723 97.7266H56.0918ZM62.7031 94.8262L61.2871 103H58.9824L60.8184 92.4336H62.9766L62.7031 94.8262ZM61.8926 97.3262L61.1895 97.3359C61.2676 96.7044 61.4206 96.0827 61.6484 95.4707C61.8828 94.8522 62.1921 94.2988 62.5762 93.8105C62.9603 93.3158 63.4258 92.9251 63.9727 92.6387C64.526 92.3522 65.1641 92.2188 65.8867 92.2383C66.4596 92.2513 66.9349 92.3652 67.3125 92.5801C67.6966 92.7949 67.9928 93.0846 68.2012 93.4492C68.416 93.8138 68.556 94.2305 68.6211 94.6992C68.6862 95.168 68.6895 95.6595 68.6309 96.1738L67.498 103H65.1836L66.3359 96.1445C66.375 95.7669 66.362 95.4284 66.2969 95.1289C66.2318 94.8229 66.0885 94.582 65.8672 94.4062C65.6458 94.224 65.3268 94.1296 64.9102 94.123C64.4544 94.11 64.054 94.1947 63.709 94.377C63.3639 94.5592 63.0677 94.8099 62.8203 95.1289C62.5729 95.4414 62.3711 95.7897 62.2148 96.1738C62.0651 96.5579 61.9577 96.9421 61.8926 97.3262ZM74.0996 92.4336L72.2637 103H69.9688L71.8047 92.4336H74.0996ZM72.127 89.6992C72.1204 89.3216 72.2441 89.0124 72.498 88.7715C72.752 88.5306 73.0645 88.4069 73.4355 88.4004C73.7936 88.3939 74.0996 88.5046 74.3535 88.7324C74.6139 88.9538 74.7441 89.25 74.7441 89.6211C74.7507 89.9987 74.6237 90.3047 74.3633 90.5391C74.1094 90.7734 73.8001 90.8939 73.4355 90.9004C73.0775 90.9069 72.7715 90.8027 72.5176 90.5879C72.2637 90.3665 72.1335 90.0703 72.127 89.6992ZM78.4844 94.7188L77.0488 103H74.7441L76.5801 92.4336H78.748L78.4844 94.7188ZM77.6934 97.3262H76.9316C77.0098 96.6816 77.1595 96.0534 77.3809 95.4414C77.6087 94.8229 77.9147 94.2695 78.2988 93.7812C78.6829 93.293 79.1517 92.9089 79.7051 92.6289C80.2585 92.349 80.8997 92.2188 81.6289 92.2383C82.1693 92.2513 82.6217 92.3587 82.9863 92.5605C83.3574 92.7624 83.6536 93.0358 83.875 93.3809C84.0964 93.7259 84.2428 94.1198 84.3145 94.5625C84.3861 94.9987 84.3991 95.4642 84.3535 95.959L83.1816 103H80.877L82.0293 96.1543C82.0749 95.7767 82.0618 95.4382 81.9902 95.1387C81.9186 94.8327 81.7689 94.5885 81.541 94.4062C81.3197 94.224 81.0007 94.1263 80.584 94.1133C80.1217 94.1003 79.7214 94.1849 79.3828 94.3672C79.0443 94.5495 78.7611 94.7969 78.5332 95.1094C78.3118 95.4219 78.1296 95.7734 77.9863 96.1641C77.8496 96.5482 77.752 96.9355 77.6934 97.3262ZM84.1582 96.7012L83.0449 96.9453C83.1165 96.3333 83.2663 95.7441 83.4941 95.1777C83.7285 94.6048 84.0378 94.097 84.4219 93.6543C84.8125 93.2051 85.2747 92.8535 85.8086 92.5996C86.3424 92.3392 86.9479 92.2155 87.625 92.2285C88.1979 92.2415 88.6797 92.3555 89.0703 92.5703C89.4609 92.7786 89.7669 93.0651 89.9883 93.4297C90.2161 93.7943 90.3659 94.2109 90.4375 94.6797C90.5091 95.1419 90.5156 95.6367 90.457 96.1641L89.3145 103H87.0098L88.1621 96.1445C88.2077 95.7604 88.1947 95.4186 88.123 95.1191C88.0579 94.8132 87.9147 94.5723 87.6934 94.3965C87.472 94.2207 87.1497 94.1296 86.7266 94.123C86.349 94.11 86.0104 94.1751 85.7109 94.3184C85.418 94.4551 85.1641 94.6471 84.9492 94.8945C84.7409 95.1354 84.5716 95.4121 84.4414 95.7246C84.3112 96.0371 84.2168 96.3626 84.1582 96.7012ZM97.8398 100.881L98.6406 95.8125C98.6797 95.474 98.6569 95.168 98.5723 94.8945C98.4876 94.6211 98.3314 94.4062 98.1035 94.25C97.8822 94.0872 97.5892 94.0026 97.2246 93.9961C96.8991 93.9896 96.5931 94.0449 96.3066 94.1621C96.0202 94.2728 95.776 94.4388 95.5742 94.6602C95.3789 94.8815 95.2487 95.1517 95.1836 95.4707L92.8887 95.4805C92.9277 94.9271 93.0905 94.4453 93.377 94.0352C93.6699 93.6185 94.0378 93.2767 94.4805 93.0098C94.9297 92.7363 95.4115 92.5378 95.9258 92.4141C96.4466 92.2839 96.9544 92.222 97.4492 92.2285C98.1654 92.2415 98.8001 92.3945 99.3535 92.6875C99.9069 92.9805 100.327 93.3939 100.613 93.9277C100.906 94.4616 101.017 95.1061 100.945 95.8613L100.174 100.568C100.115 100.939 100.073 101.32 100.047 101.711C100.027 102.095 100.079 102.466 100.203 102.824L100.184 103L97.9082 103.01C97.8105 102.665 97.7617 102.313 97.7617 101.955C97.7617 101.59 97.7878 101.232 97.8398 100.881ZM98.9043 96.5742L98.6699 98.0293L97.1465 98.0195C96.834 98.0195 96.5117 98.0488 96.1797 98.1074C95.8542 98.166 95.5482 98.2669 95.2617 98.4102C94.9753 98.5534 94.7344 98.7487 94.5391 98.9961C94.3438 99.237 94.2233 99.5397 94.1777 99.9043C94.1452 100.197 94.1777 100.451 94.2754 100.666C94.3796 100.874 94.5358 101.04 94.7441 101.164C94.9525 101.288 95.1999 101.353 95.4863 101.359C95.8704 101.366 96.248 101.291 96.6191 101.135C96.9967 100.979 97.3223 100.757 97.5957 100.471C97.8757 100.178 98.0677 99.8424 98.1719 99.4648L98.7871 100.52C98.6439 100.917 98.4421 101.281 98.1816 101.613C97.9277 101.945 97.6315 102.232 97.293 102.473C96.9544 102.714 96.5833 102.899 96.1797 103.029C95.7826 103.16 95.3724 103.221 94.9492 103.215C94.3633 103.202 93.8294 103.068 93.3477 102.814C92.8659 102.554 92.485 102.193 92.2051 101.73C91.9251 101.268 91.8014 100.734 91.834 100.129C91.8665 99.4453 92.0391 98.8757 92.3516 98.4199C92.6706 97.9577 93.0775 97.5931 93.5723 97.3262C94.0736 97.0527 94.6204 96.8574 95.2129 96.7402C95.8053 96.623 96.3913 96.5645 96.9707 96.5645L98.9043 96.5742ZM108.68 92.4336L108.377 94.1523H102.596L102.889 92.4336H108.68ZM105.008 89.8457H107.303L105.555 100.1C105.529 100.327 105.529 100.526 105.555 100.695C105.587 100.865 105.662 100.998 105.779 101.096C105.903 101.187 106.092 101.236 106.346 101.242C106.482 101.249 106.619 101.242 106.756 101.223C106.899 101.203 107.042 101.184 107.186 101.164L107.02 102.98C106.785 103.052 106.544 103.104 106.297 103.137C106.056 103.169 105.812 103.182 105.564 103.176C104.979 103.169 104.507 103.036 104.148 102.775C103.79 102.508 103.54 102.154 103.396 101.711C103.253 101.268 103.208 100.773 103.26 100.227L105.008 89.8457ZM113.348 103.195C112.625 103.182 111.984 103.042 111.424 102.775C110.87 102.502 110.411 102.134 110.047 101.672C109.682 101.203 109.419 100.666 109.256 100.061C109.093 99.4486 109.038 98.7975 109.09 98.1074L109.129 97.707C109.201 96.9974 109.373 96.3138 109.646 95.6562C109.92 94.9922 110.285 94.403 110.74 93.8887C111.202 93.3678 111.746 92.9577 112.371 92.6582C112.996 92.3587 113.693 92.2188 114.461 92.2383C115.197 92.2513 115.818 92.4043 116.326 92.6973C116.834 92.9902 117.238 93.3809 117.537 93.8691C117.837 94.3509 118.035 94.8978 118.133 95.5098C118.237 96.1217 118.253 96.7565 118.182 97.4141L118.045 98.4199H110.115L110.389 96.7305L115.984 96.7402L116.023 96.5352C116.082 96.125 116.059 95.7376 115.955 95.373C115.857 95.0085 115.675 94.709 115.408 94.4746C115.141 94.2402 114.783 94.1165 114.334 94.1035C113.846 94.0905 113.426 94.1914 113.074 94.4062C112.729 94.6211 112.443 94.9108 112.215 95.2754C111.987 95.64 111.808 96.0371 111.678 96.4668C111.554 96.89 111.466 97.3034 111.414 97.707L111.375 98.0977C111.336 98.4818 111.346 98.8626 111.404 99.2402C111.463 99.6178 111.577 99.9629 111.746 100.275C111.915 100.581 112.15 100.832 112.449 101.027C112.749 101.216 113.12 101.317 113.562 101.33C114.116 101.343 114.617 101.229 115.066 100.988C115.522 100.741 115.936 100.422 116.307 100.031L117.439 101.232C117.14 101.682 116.769 102.053 116.326 102.346C115.89 102.639 115.415 102.857 114.9 103C114.393 103.137 113.875 103.202 113.348 103.195ZM127.107 101.73L131.463 92.4336H134.002L127.811 104.621C127.635 104.986 127.433 105.331 127.205 105.656C126.984 105.982 126.73 106.268 126.443 106.516C126.157 106.763 125.835 106.955 125.477 107.092C125.125 107.235 124.728 107.307 124.285 107.307C124.083 107.3 123.885 107.277 123.689 107.238C123.488 107.206 123.289 107.167 123.094 107.121L123.26 105.314C123.331 105.321 123.403 105.327 123.475 105.334C123.546 105.347 123.618 105.354 123.689 105.354C124.061 105.367 124.386 105.318 124.666 105.207C124.946 105.103 125.19 104.94 125.398 104.719C125.613 104.497 125.802 104.227 125.965 103.908L127.107 101.73ZM127.127 92.4336L128.201 100.461L128.182 102.863L126.58 103.273L124.725 92.4336H127.127ZM133.748 97.8926L133.777 97.668C133.855 96.9388 134.035 96.2454 134.314 95.5879C134.594 94.9303 134.965 94.3477 135.428 93.8398C135.896 93.3255 136.447 92.9251 137.078 92.6387C137.716 92.3522 138.426 92.2188 139.207 92.2383C139.962 92.2513 140.61 92.4076 141.15 92.707C141.697 93.0065 142.14 93.4069 142.479 93.9082C142.824 94.403 143.064 94.9694 143.201 95.6074C143.338 96.2389 143.374 96.8997 143.309 97.5898L143.289 97.8145C143.204 98.5436 143.019 99.2337 142.732 99.8848C142.452 100.536 142.078 101.115 141.609 101.623C141.147 102.124 140.597 102.518 139.959 102.805C139.327 103.085 138.624 103.215 137.85 103.195C137.101 103.182 136.453 103.029 135.906 102.736C135.366 102.437 134.923 102.04 134.578 101.545C134.24 101.05 134.002 100.49 133.865 99.8652C133.729 99.2337 133.689 98.5762 133.748 97.8926ZM136.062 97.668L136.043 97.8926C136.01 98.2507 136.007 98.6283 136.033 99.0254C136.059 99.4225 136.137 99.7936 136.268 100.139C136.398 100.484 136.6 100.767 136.873 100.988C137.146 101.21 137.511 101.327 137.967 101.34C138.449 101.353 138.868 101.255 139.227 101.047C139.585 100.839 139.884 100.559 140.125 100.207C140.366 99.8555 140.558 99.4714 140.701 99.0547C140.844 98.6315 140.939 98.2181 140.984 97.8145L141.004 97.5898C141.043 97.2383 141.049 96.8639 141.023 96.4668C140.997 96.0632 140.919 95.6855 140.789 95.334C140.659 94.9759 140.457 94.6862 140.184 94.4648C139.91 94.237 139.546 94.1165 139.09 94.1035C138.602 94.0905 138.178 94.1914 137.82 94.4062C137.462 94.6146 137.163 94.8978 136.922 95.2559C136.681 95.6139 136.489 96.0046 136.346 96.4277C136.209 96.8509 136.115 97.2643 136.062 97.668ZM150.906 100.393L152.283 92.4336H154.588L152.752 103H150.584L150.906 100.393ZM151.551 98.3125L152.312 98.2832C152.234 98.9212 152.091 99.5397 151.883 100.139C151.674 100.731 151.391 101.262 151.033 101.73C150.675 102.199 150.229 102.567 149.695 102.834C149.161 103.101 148.533 103.225 147.811 103.205C147.231 103.186 146.743 103.072 146.346 102.863C145.955 102.648 145.646 102.359 145.418 101.994C145.19 101.63 145.037 101.213 144.959 100.744C144.887 100.275 144.878 99.7806 144.93 99.2598L146.072 92.4336H148.367L147.215 99.2891C147.195 99.543 147.195 99.7871 147.215 100.021C147.234 100.256 147.29 100.467 147.381 100.656C147.472 100.845 147.605 100.998 147.781 101.115C147.964 101.226 148.201 101.288 148.494 101.301C149.119 101.32 149.64 101.2 150.057 100.939C150.48 100.673 150.812 100.308 151.053 99.8457C151.3 99.3835 151.466 98.8724 151.551 98.3125ZM158.855 94.5625L157.391 103H155.096L156.932 92.4336H159.109L158.855 94.5625ZM162.293 92.3457L162.039 94.543C161.889 94.5169 161.736 94.4941 161.58 94.4746C161.43 94.4551 161.281 94.4453 161.131 94.4453C160.734 94.4388 160.376 94.4941 160.057 94.6113C159.738 94.7285 159.458 94.8978 159.217 95.1191C158.976 95.334 158.774 95.5944 158.611 95.9004C158.449 96.1999 158.322 96.5352 158.23 96.9062L157.684 96.9453C157.749 96.431 157.859 95.8971 158.016 95.3438C158.178 94.7904 158.403 94.276 158.689 93.8008C158.976 93.319 159.34 92.9316 159.783 92.6387C160.226 92.3392 160.763 92.196 161.395 92.209C161.544 92.209 161.694 92.222 161.844 92.248C161.993 92.2741 162.143 92.3066 162.293 92.3457ZM169.803 103H167.498L169.422 91.7598C169.533 90.9069 169.796 90.1842 170.213 89.5918C170.63 88.9928 171.17 88.5371 171.834 88.2246C172.505 87.9121 173.266 87.7624 174.119 87.7754C174.627 87.7884 175.125 87.8568 175.613 87.9805C176.102 88.0977 176.587 88.2279 177.068 88.3711L176.531 90.2949C176.154 90.1452 175.766 90.0247 175.369 89.9336C174.979 89.8424 174.581 89.7969 174.178 89.7969C173.514 89.7839 172.967 89.9434 172.537 90.2754C172.107 90.6009 171.84 91.0924 171.736 91.75L169.803 103ZM173.709 92.4336L173.396 94.1523H167.469L167.771 92.4336H173.709ZM177.518 92.4336L175.682 103H173.377L175.213 92.4336H177.518ZM186.59 92.4336H188.699L186.951 102.697C186.821 103.628 186.515 104.432 186.033 105.109C185.558 105.786 184.943 106.304 184.188 106.662C183.432 107.027 182.586 107.196 181.648 107.17C181.18 107.163 180.717 107.089 180.262 106.945C179.806 106.809 179.383 106.61 178.992 106.35C178.602 106.089 178.266 105.767 177.986 105.383L179.188 104.016C179.487 104.419 179.839 104.738 180.242 104.973C180.646 105.207 181.098 105.331 181.6 105.344C182.146 105.357 182.632 105.256 183.055 105.041C183.478 104.833 183.823 104.533 184.09 104.143C184.363 103.752 184.542 103.29 184.627 102.756L185.994 94.709L186.59 92.4336ZM178.709 97.9121L178.738 97.6973C178.816 97.0462 178.973 96.3952 179.207 95.7441C179.441 95.0866 179.754 94.4909 180.145 93.957C180.542 93.4167 181.023 92.9902 181.59 92.6777C182.163 92.3652 182.83 92.2155 183.592 92.2285C184.282 92.248 184.848 92.4173 185.291 92.7363C185.74 93.0553 186.085 93.4688 186.326 93.9766C186.574 94.4844 186.74 95.0378 186.824 95.6367C186.909 96.2357 186.935 96.8281 186.902 97.4141L186.824 98.0781C186.72 98.6836 186.544 99.2923 186.297 99.9043C186.049 100.516 185.727 101.076 185.33 101.584C184.939 102.085 184.471 102.486 183.924 102.785C183.383 103.085 182.762 103.225 182.059 103.205C181.362 103.186 180.783 103.013 180.32 102.688C179.858 102.355 179.5 101.929 179.246 101.408C178.992 100.887 178.823 100.321 178.738 99.709C178.66 99.097 178.65 98.498 178.709 97.9121ZM181.043 97.6973L181.023 97.9023C180.984 98.2474 180.971 98.612 180.984 98.9961C180.997 99.3802 181.059 99.7448 181.17 100.09C181.281 100.435 181.463 100.721 181.717 100.949C181.971 101.171 182.316 101.288 182.752 101.301C183.279 101.327 183.745 101.216 184.148 100.969C184.559 100.721 184.897 100.393 185.164 99.9824C185.438 99.5723 185.63 99.1296 185.74 98.6543L186.014 96.8672C186.04 96.5352 186.02 96.2096 185.955 95.8906C185.89 95.5651 185.776 95.2721 185.613 95.0117C185.457 94.7513 185.249 94.543 184.988 94.3867C184.728 94.224 184.412 94.1393 184.041 94.1328C183.553 94.1133 183.13 94.2109 182.771 94.4258C182.42 94.6406 182.124 94.9271 181.883 95.2852C181.648 95.6432 181.463 96.0339 181.326 96.457C181.189 96.8802 181.095 97.2936 181.043 97.6973ZM195.828 100.393L197.205 92.4336H199.51L197.674 103H195.506L195.828 100.393ZM196.473 98.3125L197.234 98.2832C197.156 98.9212 197.013 99.5397 196.805 100.139C196.596 100.731 196.313 101.262 195.955 101.73C195.597 102.199 195.151 102.567 194.617 102.834C194.083 103.101 193.455 103.225 192.732 103.205C192.153 103.186 191.665 103.072 191.268 102.863C190.877 102.648 190.568 102.359 190.34 101.994C190.112 101.63 189.959 101.213 189.881 100.744C189.809 100.275 189.799 99.7806 189.852 99.2598L190.994 92.4336H193.289L192.137 99.2891C192.117 99.543 192.117 99.7871 192.137 100.021C192.156 100.256 192.212 100.467 192.303 100.656C192.394 100.845 192.527 100.998 192.703 101.115C192.885 101.226 193.123 101.288 193.416 101.301C194.041 101.32 194.562 101.2 194.979 100.939C195.402 100.673 195.734 100.308 195.975 99.8457C196.222 99.3835 196.388 98.8724 196.473 98.3125ZM203.777 94.5625L202.312 103H200.018L201.854 92.4336H204.031L203.777 94.5625ZM207.215 92.3457L206.961 94.543C206.811 94.5169 206.658 94.4941 206.502 94.4746C206.352 94.4551 206.202 94.4453 206.053 94.4453C205.656 94.4388 205.298 94.4941 204.979 94.6113C204.66 94.7285 204.38 94.8978 204.139 95.1191C203.898 95.334 203.696 95.5944 203.533 95.9004C203.37 96.1999 203.243 96.5352 203.152 96.9062L202.605 96.9453C202.671 96.431 202.781 95.8971 202.938 95.3438C203.1 94.7904 203.325 94.276 203.611 93.8008C203.898 93.319 204.262 92.9316 204.705 92.6387C205.148 92.3392 205.685 92.196 206.316 92.209C206.466 92.209 206.616 92.222 206.766 92.248C206.915 92.2741 207.065 92.3066 207.215 92.3457ZM211.15 92.4336L209.314 103H207.02L208.855 92.4336H211.15ZM209.178 89.6992C209.171 89.3216 209.295 89.0124 209.549 88.7715C209.803 88.5306 210.115 88.4069 210.486 88.4004C210.844 88.3939 211.15 88.5046 211.404 88.7324C211.665 88.9538 211.795 89.25 211.795 89.6211C211.801 89.9987 211.674 90.3047 211.414 90.5391C211.16 90.7734 210.851 90.8939 210.486 90.9004C210.128 90.9069 209.822 90.8027 209.568 90.5879C209.314 90.3665 209.184 90.0703 209.178 89.6992ZM215.496 94.8262L214.08 103H211.775L213.611 92.4336H215.77L215.496 94.8262ZM214.686 97.3262L213.982 97.3359C214.061 96.7044 214.214 96.0827 214.441 95.4707C214.676 94.8522 214.985 94.2988 215.369 93.8105C215.753 93.3158 216.219 92.9251 216.766 92.6387C217.319 92.3522 217.957 92.2188 218.68 92.2383C219.253 92.2513 219.728 92.3652 220.105 92.5801C220.49 92.7949 220.786 93.0846 220.994 93.4492C221.209 93.8138 221.349 94.2305 221.414 94.6992C221.479 95.168 221.482 95.6595 221.424 96.1738L220.291 103H217.977L219.129 96.1445C219.168 95.7669 219.155 95.4284 219.09 95.1289C219.025 94.8229 218.882 94.582 218.66 94.4062C218.439 94.224 218.12 94.1296 217.703 94.123C217.247 94.11 216.847 94.1947 216.502 94.377C216.157 94.5592 215.861 94.8099 215.613 95.1289C215.366 95.4414 215.164 95.7897 215.008 96.1738C214.858 96.5579 214.751 96.9421 214.686 97.3262ZM227.352 103.195C226.629 103.182 225.988 103.042 225.428 102.775C224.874 102.502 224.415 102.134 224.051 101.672C223.686 101.203 223.423 100.666 223.26 100.061C223.097 99.4486 223.042 98.7975 223.094 98.1074L223.133 97.707C223.204 96.9974 223.377 96.3138 223.65 95.6562C223.924 94.9922 224.288 94.403 224.744 93.8887C225.206 93.3678 225.75 92.9577 226.375 92.6582C227 92.3587 227.697 92.2188 228.465 92.2383C229.201 92.2513 229.822 92.4043 230.33 92.6973C230.838 92.9902 231.242 93.3809 231.541 93.8691C231.84 94.3509 232.039 94.8978 232.137 95.5098C232.241 96.1217 232.257 96.7565 232.186 97.4141L232.049 98.4199H224.119L224.393 96.7305L229.988 96.7402L230.027 96.5352C230.086 96.125 230.063 95.7376 229.959 95.373C229.861 95.0085 229.679 94.709 229.412 94.4746C229.145 94.2402 228.787 94.1165 228.338 94.1035C227.85 94.0905 227.43 94.1914 227.078 94.4062C226.733 94.6211 226.447 94.9108 226.219 95.2754C225.991 95.64 225.812 96.0371 225.682 96.4668C225.558 96.89 225.47 97.3034 225.418 97.707L225.379 98.0977C225.34 98.4818 225.35 98.8626 225.408 99.2402C225.467 99.6178 225.581 99.9629 225.75 100.275C225.919 100.581 226.154 100.832 226.453 101.027C226.753 101.216 227.124 101.317 227.566 101.33C228.12 101.343 228.621 101.229 229.07 100.988C229.526 100.741 229.939 100.422 230.311 100.031L231.443 101.232C231.144 101.682 230.773 102.053 230.33 102.346C229.894 102.639 229.419 102.857 228.904 103C228.396 103.137 227.879 103.202 227.352 103.195ZM239.314 100.08C239.367 99.722 239.288 99.4453 239.08 99.25C238.872 99.0482 238.611 98.8952 238.299 98.791C237.986 98.6868 237.7 98.6022 237.439 98.5371C237.042 98.4395 236.645 98.3158 236.248 98.166C235.857 98.0098 235.499 97.8145 235.174 97.5801C234.848 97.3457 234.591 97.0592 234.402 96.7207C234.214 96.3757 234.129 95.9655 234.148 95.4902C234.174 94.9434 234.318 94.4648 234.578 94.0547C234.839 93.6445 235.174 93.3027 235.584 93.0293C236.001 92.7559 236.456 92.554 236.951 92.4238C237.446 92.2936 237.938 92.2318 238.426 92.2383C239.109 92.2513 239.738 92.3848 240.311 92.6387C240.89 92.8926 241.352 93.2669 241.697 93.7617C242.049 94.2565 242.221 94.8685 242.215 95.5977L239.93 95.5879C239.943 95.2624 239.884 94.9824 239.754 94.748C239.63 94.5072 239.448 94.3216 239.207 94.1914C238.966 94.0612 238.676 93.9928 238.338 93.9863C238.045 93.9798 237.755 94.0286 237.469 94.1328C237.189 94.237 236.948 94.3932 236.746 94.6016C236.544 94.8099 236.421 95.0736 236.375 95.3926C236.336 95.64 236.372 95.8451 236.482 96.0078C236.593 96.1641 236.746 96.291 236.941 96.3887C237.137 96.4863 237.342 96.5677 237.557 96.6328C237.778 96.6914 237.977 96.7402 238.152 96.7793C238.706 96.929 239.249 97.1211 239.783 97.3555C240.317 97.5833 240.753 97.9056 241.092 98.3223C241.43 98.7324 241.583 99.2728 241.551 99.9434C241.531 100.516 241.382 101.011 241.102 101.428C240.822 101.838 240.464 102.176 240.027 102.443C239.591 102.704 239.113 102.896 238.592 103.02C238.077 103.143 237.57 103.202 237.068 103.195C236.378 103.182 235.727 103.039 235.115 102.766C234.51 102.492 234.021 102.098 233.65 101.584C233.286 101.063 233.104 100.428 233.104 99.6797L235.32 99.6895C235.32 100.067 235.395 100.386 235.545 100.646C235.701 100.907 235.916 101.105 236.189 101.242C236.469 101.372 236.795 101.441 237.166 101.447C237.472 101.447 237.778 101.405 238.084 101.32C238.396 101.229 238.663 101.083 238.885 100.881C239.113 100.679 239.256 100.412 239.314 100.08Z" fill="black"/>
<rect x="51" y="70" width="188" height="2" rx="1" fill="#767676"/>
</svg>
