<svg width="290" height="83" viewBox="0 0 290 83" fill="none" xmlns="http://www.w3.org/2000/svg">
<path d="M0 42C0 25.4315 13.4315 12 30 12H260C276.569 12 290 25.4315 290 42C290 58.5685 276.569 72 260 72H30C13.4315 72 0 58.5685 0 42Z" fill="#D9D9D9"/>
<path d="M79.1875 51L77.9453 46.9219H71.6992L70.457 51H66.543L72.5898 33.7969H77.0312L83.1016 51H79.1875ZM77.0781 43.875L75.8359 39.8906C75.7578 39.625 75.6523 39.2852 75.5195 38.8711C75.3945 38.4492 75.2656 38.0234 75.1328 37.5938C75.0078 37.1562 74.9062 36.7773 74.8281 36.457C74.75 36.7773 74.6406 37.1758 74.5 37.6523C74.3672 38.1211 74.2383 38.5664 74.1133 38.9883C73.9883 39.4102 73.8984 39.7109 73.8438 39.8906L72.6133 43.875H77.0781ZM85.2695 51V33.8672H88.9023V51H85.2695ZM109.938 51L108.695 46.9219H102.449L101.207 51H97.293L103.34 33.7969H107.781L113.852 51H109.938ZM107.828 43.875L106.586 39.8906C106.508 39.625 106.402 39.2852 106.27 38.8711C106.145 38.4492 106.016 38.0234 105.883 37.5938C105.758 37.1562 105.656 36.7773 105.578 36.457C105.5 36.7773 105.391 37.1758 105.25 37.6523C105.117 38.1211 104.988 38.5664 104.863 38.9883C104.738 39.4102 104.648 39.7109 104.594 39.8906L103.363 43.875H107.828ZM123.18 37.6523C124.578 37.6523 125.703 38.0352 126.555 38.8008C127.406 39.5586 127.832 40.7773 127.832 42.457V51H124.258V43.3477C124.258 42.4102 124.086 41.7031 123.742 41.2266C123.406 40.75 122.875 40.5117 122.148 40.5117C121.055 40.5117 120.309 40.8828 119.91 41.625C119.512 42.3672 119.312 43.4375 119.312 44.8359V51H115.738V37.8984H118.469L118.949 39.5742H119.148C119.43 39.1211 119.777 38.7539 120.191 38.4727C120.613 38.1914 121.078 37.9844 121.586 37.8516C122.102 37.7188 122.633 37.6523 123.18 37.6523ZM135.086 37.8984V51H131.512V37.8984H135.086ZM133.305 32.7656C133.836 32.7656 134.293 32.8906 134.676 33.1406C135.059 33.3828 135.25 33.8398 135.25 34.5117C135.25 35.1758 135.059 35.6367 134.676 35.8945C134.293 36.1445 133.836 36.2695 133.305 36.2695C132.766 36.2695 132.305 36.1445 131.922 35.8945C131.547 35.6367 131.359 35.1758 131.359 34.5117C131.359 33.8398 131.547 33.3828 131.922 33.1406C132.305 32.8906 132.766 32.7656 133.305 32.7656ZM154.234 37.6523C155.719 37.6523 156.84 38.0352 157.598 38.8008C158.363 39.5586 158.746 40.7773 158.746 42.457V51H155.16V43.3477C155.16 42.4102 155 41.7031 154.68 41.2266C154.359 40.75 153.863 40.5117 153.191 40.5117C152.246 40.5117 151.574 40.8516 151.176 41.5312C150.777 42.2031 150.578 43.168 150.578 44.4258V51H147.004V43.3477C147.004 42.7227 146.934 42.1992 146.793 41.7773C146.652 41.3555 146.438 41.0391 146.148 40.8281C145.859 40.6172 145.488 40.5117 145.035 40.5117C144.371 40.5117 143.848 40.6797 143.465 41.0156C143.09 41.3438 142.82 41.832 142.656 42.4805C142.5 43.1211 142.422 43.9062 142.422 44.8359V51H138.848V37.8984H141.578L142.059 39.5742H142.258C142.523 39.1211 142.855 38.7539 143.254 38.4727C143.66 38.1914 144.105 37.9844 144.59 37.8516C145.074 37.7188 145.566 37.6523 146.066 37.6523C147.027 37.6523 147.84 37.8086 148.504 38.1211C149.176 38.4336 149.691 38.918 150.051 39.5742H150.367C150.758 38.9023 151.309 38.4141 152.02 38.1094C152.738 37.8047 153.477 37.6523 154.234 37.6523ZM167.793 37.6289C169.551 37.6289 170.898 38.0117 171.836 38.7773C172.773 39.543 173.242 40.707 173.242 42.2695V51H170.746L170.055 49.2188H169.961C169.586 49.6875 169.203 50.0703 168.812 50.3672C168.422 50.6641 167.973 50.8828 167.465 51.0234C166.957 51.1641 166.34 51.2344 165.613 51.2344C164.84 51.2344 164.145 51.0859 163.527 50.7891C162.918 50.4922 162.438 50.0391 162.086 49.4297C161.734 48.8125 161.559 48.0312 161.559 47.0859C161.559 45.6953 162.047 44.6719 163.023 44.0156C164 43.3516 165.465 42.9844 167.418 42.9141L169.691 42.8438V42.2695C169.691 41.582 169.512 41.0781 169.152 40.7578C168.793 40.4375 168.293 40.2773 167.652 40.2773C167.02 40.2773 166.398 40.3672 165.789 40.5469C165.18 40.7266 164.57 40.9531 163.961 41.2266L162.777 38.8125C163.473 38.4453 164.25 38.1562 165.109 37.9453C165.977 37.7344 166.871 37.6289 167.793 37.6289ZM169.691 44.9297L168.309 44.9766C167.152 45.0078 166.348 45.2148 165.895 45.5977C165.449 45.9805 165.227 46.4844 165.227 47.1094C165.227 47.6562 165.387 48.0469 165.707 48.2812C166.027 48.5078 166.445 48.6211 166.961 48.6211C167.727 48.6211 168.371 48.3945 168.895 47.9414C169.426 47.4883 169.691 46.8438 169.691 46.0078V44.9297ZM182.453 48.3867C182.844 48.3867 183.223 48.3477 183.59 48.2695C183.965 48.1914 184.336 48.0938 184.703 47.9766V50.6367C184.32 50.8086 183.844 50.9492 183.273 51.0586C182.711 51.1758 182.094 51.2344 181.422 51.2344C180.641 51.2344 179.938 51.1094 179.312 50.8594C178.695 50.6016 178.207 50.1602 177.848 49.5352C177.496 48.9023 177.32 48.0234 177.32 46.8984V40.582H175.609V39.0703L177.578 37.875L178.609 35.1094H180.895V37.8984H184.562V40.582H180.895V46.8984C180.895 47.3984 181.035 47.7734 181.316 48.0234C181.605 48.2656 181.984 48.3867 182.453 48.3867ZM190.938 37.8984V51H187.363V37.8984H190.938ZM189.156 32.7656C189.688 32.7656 190.145 32.8906 190.527 33.1406C190.91 33.3828 191.102 33.8398 191.102 34.5117C191.102 35.1758 190.91 35.6367 190.527 35.8945C190.145 36.1445 189.688 36.2695 189.156 36.2695C188.617 36.2695 188.156 36.1445 187.773 35.8945C187.398 35.6367 187.211 35.1758 187.211 34.5117C187.211 33.8398 187.398 33.3828 187.773 33.1406C188.156 32.8906 188.617 32.7656 189.156 32.7656ZM206.605 44.4258C206.605 45.5195 206.457 46.4883 206.16 47.332C205.871 48.1758 205.445 48.8906 204.883 49.4766C204.328 50.0547 203.656 50.4922 202.867 50.7891C202.086 51.0859 201.203 51.2344 200.219 51.2344C199.297 51.2344 198.449 51.0859 197.676 50.7891C196.91 50.4922 196.242 50.0547 195.672 49.4766C195.109 48.8906 194.672 48.1758 194.359 47.332C194.055 46.4883 193.902 45.5195 193.902 44.4258C193.902 42.9727 194.16 41.7422 194.676 40.7344C195.191 39.7266 195.926 38.9609 196.879 38.4375C197.832 37.9141 198.969 37.6523 200.289 37.6523C201.516 37.6523 202.602 37.9141 203.547 38.4375C204.5 38.9609 205.246 39.7266 205.785 40.7344C206.332 41.7422 206.605 42.9727 206.605 44.4258ZM197.547 44.4258C197.547 45.2852 197.641 46.0078 197.828 46.5938C198.016 47.1797 198.309 47.6211 198.707 47.918C199.105 48.2148 199.625 48.3633 200.266 48.3633C200.898 48.3633 201.41 48.2148 201.801 47.918C202.199 47.6211 202.488 47.1797 202.668 46.5938C202.855 46.0078 202.949 45.2852 202.949 44.4258C202.949 43.5586 202.855 42.8398 202.668 42.2695C202.488 41.6914 202.199 41.2578 201.801 40.9688C201.402 40.6797 200.883 40.5352 200.242 40.5352C199.297 40.5352 198.609 40.8594 198.18 41.5078C197.758 42.1562 197.547 43.1289 197.547 44.4258ZM217 37.6523C218.398 37.6523 219.523 38.0352 220.375 38.8008C221.227 39.5586 221.652 40.7773 221.652 42.457V51H218.078V43.3477C218.078 42.4102 217.906 41.7031 217.562 41.2266C217.227 40.75 216.695 40.5117 215.969 40.5117C214.875 40.5117 214.129 40.8828 213.73 41.625C213.332 42.3672 213.133 43.4375 213.133 44.8359V51H209.559V37.8984H212.289L212.77 39.5742H212.969C213.25 39.1211 213.598 38.7539 214.012 38.4727C214.434 38.1914 214.898 37.9844 215.406 37.8516C215.922 37.7188 216.453 37.6523 217 37.6523Z" fill="black"/>
</svg>
