<svg width="80" height="80" viewBox="0 0 80 80" fill="none" xmlns="http://www.w3.org/2000/svg">
<circle cx="40" cy="40" r="40" fill="black"/>
<path d="M53.0445 53.3643C52.4423 52.762 51.4659 52.762 50.8637 53.3643C50.2615 53.9665 50.2615 54.9428 50.8637 55.5451L54.1338 58.8147C54.1409 58.8223 54.1485 58.8294 54.1561 58.837C54.7646 59.433 55.7405 59.4232 56.3364 58.8147C56.9324 58.2062 56.9226 57.2303 56.3141 56.6343L53.0445 53.3643ZM36.7646 52.9723C36.1771 52.4402 35.2816 52.4402 34.6941 52.9727C34.0629 53.5446 34.0151 54.5196 34.587 55.1509L38.7039 59.2705C38.7111 59.2781 38.7187 59.2852 38.7262 59.2928C39.3343 59.8888 40.3106 59.879 40.9066 59.2709C41.5026 58.6629 41.4927 57.6866 40.8847 57.0906L36.7646 52.9723Z" fill="white"/>
<path d="M48.2988 41.2446L55.2479 33.6821C55.418 33.4973 55.534 33.2696 55.5831 33.0232C55.7314 32.2817 55.251 31.5607 54.5095 31.412L44.4408 29.379L39.3953 20.4304C39.2726 20.2135 39.0931 20.0341 38.8761 19.9116H38.8765C38.8756 19.9112 38.8747 19.9103 38.8734 19.9098C38.2149 19.5389 37.3796 19.7719 37.0087 20.4304L31.9676 29.3795L21.8966 31.4125C21.6507 31.4616 21.423 31.5777 21.2386 31.7478C20.6824 32.2598 20.6467 33.1259 21.1587 33.6821L28.1127 41.2473L26.9323 51.4508C26.9033 51.6999 26.9435 51.9526 27.0484 52.1807C27.364 52.8678 28.177 53.1687 28.864 52.853L38.2073 48.5785L47.5457 52.8535C47.7738 52.9583 48.0263 52.9983 48.2756 52.9691C49.0265 52.8816 49.5644 52.2021 49.4769 51.4513L48.2988 41.2446Z" fill="white"/>
<path d="M59.7607 43.4303L55.6438 39.3134L55.6433 39.3138C55.6362 39.3062 55.6286 39.2991 55.621 39.2915C55.013 38.6955 54.0366 38.7053 53.4406 39.3134C52.8447 39.9214 52.8545 40.8977 53.4625 41.4937L57.5822 45.6107C58.175 46.1629 59.0938 46.1624 59.6857 45.6093C60.3089 45.0285 60.342 44.0526 59.7607 43.4303Z" fill="white"/>
</svg>
