<svg width="290" height="83" viewBox="0 0 290 83" fill="none" xmlns="http://www.w3.org/2000/svg">
<rect y="12" width="290" height="60" rx="30" fill="#D9D9D9"/>
<path d="M42.4375 51L41.1953 46.9219H34.9492L33.707 51H29.793L35.8398 33.7969H40.2812L46.3516 51H42.4375ZM40.3281 43.875L39.0859 39.8906C39.0078 39.625 38.9023 39.2852 38.7695 38.8711C38.6445 38.4492 38.5156 38.0234 38.3828 37.5938C38.2578 37.1562 38.1562 36.7773 38.0781 36.457C38 36.7773 37.8906 37.1758 37.75 37.6523C37.6172 38.1211 37.4883 38.5664 37.3633 38.9883C37.2383 39.4102 37.1484 39.7109 37.0938 39.8906L35.8633 43.875H40.3281ZM57.3789 47.1094C57.3789 48 57.168 48.7539 56.7461 49.3711C56.332 49.9805 55.7109 50.4453 54.8828 50.7656C54.0547 51.0781 53.0234 51.2344 51.7891 51.2344C50.875 51.2344 50.0898 51.1758 49.4336 51.0586C48.7852 50.9414 48.1289 50.7461 47.4648 50.4727V47.5195C48.1758 47.8398 48.9375 48.1055 49.75 48.3164C50.5703 48.5195 51.2891 48.6211 51.9062 48.6211C52.6016 48.6211 53.0977 48.5195 53.3945 48.3164C53.6992 48.1055 53.8516 47.832 53.8516 47.4961C53.8516 47.2773 53.7891 47.082 53.6641 46.9102C53.5469 46.7305 53.2891 46.5312 52.8906 46.3125C52.4922 46.0859 51.8672 45.793 51.0156 45.4336C50.1953 45.0898 49.5195 44.7422 48.9883 44.3906C48.4648 44.0391 48.0742 43.625 47.8164 43.1484C47.5664 42.6641 47.4414 42.0508 47.4414 41.3086C47.4414 40.0977 47.9102 39.1875 48.8477 38.5781C49.793 37.9609 51.0547 37.6523 52.6328 37.6523C53.4453 37.6523 54.2188 37.7344 54.9531 37.8984C55.6953 38.0625 56.457 38.3242 57.2383 38.6836L56.1602 41.2617C55.5117 40.9805 54.8984 40.75 54.3203 40.5703C53.75 40.3906 53.168 40.3008 52.5742 40.3008C52.0508 40.3008 51.6562 40.3711 51.3906 40.5117C51.125 40.6523 50.9922 40.8672 50.9922 41.1562C50.9922 41.3672 51.0586 41.5547 51.1914 41.7188C51.332 41.8828 51.5977 42.0664 51.9883 42.2695C52.3867 42.4648 52.9688 42.7188 53.7344 43.0312C54.4766 43.3359 55.1211 43.6562 55.668 43.9922C56.2148 44.3203 56.6367 44.7305 56.9336 45.2227C57.2305 45.707 57.3789 46.3359 57.3789 47.1094ZM69.3086 47.1094C69.3086 48 69.0977 48.7539 68.6758 49.3711C68.2617 49.9805 67.6406 50.4453 66.8125 50.7656C65.9844 51.0781 64.9531 51.2344 63.7188 51.2344C62.8047 51.2344 62.0195 51.1758 61.3633 51.0586C60.7148 50.9414 60.0586 50.7461 59.3945 50.4727V47.5195C60.1055 47.8398 60.8672 48.1055 61.6797 48.3164C62.5 48.5195 63.2188 48.6211 63.8359 48.6211C64.5312 48.6211 65.0273 48.5195 65.3242 48.3164C65.6289 48.1055 65.7812 47.832 65.7812 47.4961C65.7812 47.2773 65.7188 47.082 65.5938 46.9102C65.4766 46.7305 65.2188 46.5312 64.8203 46.3125C64.4219 46.0859 63.7969 45.793 62.9453 45.4336C62.125 45.0898 61.4492 44.7422 60.918 44.3906C60.3945 44.0391 60.0039 43.625 59.7461 43.1484C59.4961 42.6641 59.3711 42.0508 59.3711 41.3086C59.3711 40.0977 59.8398 39.1875 60.7773 38.5781C61.7227 37.9609 62.9844 37.6523 64.5625 37.6523C65.375 37.6523 66.1484 37.7344 66.8828 37.8984C67.625 38.0625 68.3867 38.3242 69.168 38.6836L68.0898 41.2617C67.4414 40.9805 66.8281 40.75 66.25 40.5703C65.6797 40.3906 65.0977 40.3008 64.5039 40.3008C63.9805 40.3008 63.5859 40.3711 63.3203 40.5117C63.0547 40.6523 62.9219 40.8672 62.9219 41.1562C62.9219 41.3672 62.9883 41.5547 63.1211 41.7188C63.2617 41.8828 63.5273 42.0664 63.918 42.2695C64.3164 42.4648 64.8984 42.7188 65.6641 43.0312C66.4062 43.3359 67.0508 43.6562 67.5977 43.9922C68.1445 44.3203 68.5664 44.7305 68.8633 45.2227C69.1602 45.707 69.3086 46.3359 69.3086 47.1094ZM77.5 37.6523C78.7109 37.6523 79.7539 37.8867 80.6289 38.3555C81.5039 38.8164 82.1797 39.4883 82.6562 40.3711C83.1328 41.2539 83.3711 42.332 83.3711 43.6055V45.3398H74.9219C74.9609 46.3477 75.2617 47.1406 75.8242 47.7188C76.3945 48.2891 77.1836 48.5742 78.1914 48.5742C79.0273 48.5742 79.793 48.4883 80.4883 48.3164C81.1836 48.1445 81.8984 47.8867 82.6328 47.543V50.3086C81.9844 50.6289 81.3047 50.8633 80.5938 51.0117C79.8906 51.1602 79.0352 51.2344 78.0273 51.2344C76.7148 51.2344 75.5508 50.9922 74.5352 50.5078C73.5273 50.0234 72.7344 49.2852 72.1562 48.293C71.5859 47.3008 71.3008 46.0508 71.3008 44.543C71.3008 43.0117 71.5586 41.7383 72.0742 40.7227C72.5977 39.6992 73.3242 38.9336 74.2539 38.4258C75.1836 37.9102 76.2656 37.6523 77.5 37.6523ZM77.5234 40.1953C76.8281 40.1953 76.25 40.418 75.7891 40.8633C75.3359 41.3086 75.0742 42.0078 75.0039 42.9609H80.0195C80.0117 42.4297 79.9141 41.957 79.7266 41.543C79.5469 41.1289 79.2734 40.8008 78.9062 40.5586C78.5469 40.3164 78.0859 40.1953 77.5234 40.1953ZM91.7969 48.3867C92.1875 48.3867 92.5664 48.3477 92.9336 48.2695C93.3086 48.1914 93.6797 48.0938 94.0469 47.9766V50.6367C93.6641 50.8086 93.1875 50.9492 92.6172 51.0586C92.0547 51.1758 91.4375 51.2344 90.7656 51.2344C89.9844 51.2344 89.2812 51.1094 88.6562 50.8594C88.0391 50.6016 87.5508 50.1602 87.1914 49.5352C86.8398 48.9023 86.6641 48.0234 86.6641 46.8984V40.582H84.9531V39.0703L86.9219 37.875L87.9531 35.1094H90.2383V37.8984H93.9062V40.582H90.2383V46.8984C90.2383 47.3984 90.3789 47.7734 90.6602 48.0234C90.9492 48.2656 91.3281 48.3867 91.7969 48.3867ZM110.477 51L106.352 37.5586H106.246C106.262 37.8789 106.285 38.3633 106.316 39.0117C106.355 39.6523 106.391 40.3359 106.422 41.0625C106.453 41.7891 106.469 42.4453 106.469 43.0312V51H103.223V33.8672H108.168L112.223 46.9688H112.293L116.594 33.8672H121.539V51H118.152V42.8906C118.152 42.3516 118.16 41.7305 118.176 41.0273C118.199 40.3242 118.227 39.6562 118.258 39.0234C118.289 38.3828 118.312 37.9023 118.328 37.582H118.223L113.805 51H110.477ZM130.949 37.6289C132.707 37.6289 134.055 38.0117 134.992 38.7773C135.93 39.543 136.398 40.707 136.398 42.2695V51H133.902L133.211 49.2188H133.117C132.742 49.6875 132.359 50.0703 131.969 50.3672C131.578 50.6641 131.129 50.8828 130.621 51.0234C130.113 51.1641 129.496 51.2344 128.77 51.2344C127.996 51.2344 127.301 51.0859 126.684 50.7891C126.074 50.4922 125.594 50.0391 125.242 49.4297C124.891 48.8125 124.715 48.0312 124.715 47.0859C124.715 45.6953 125.203 44.6719 126.18 44.0156C127.156 43.3516 128.621 42.9844 130.574 42.9141L132.848 42.8438V42.2695C132.848 41.582 132.668 41.0781 132.309 40.7578C131.949 40.4375 131.449 40.2773 130.809 40.2773C130.176 40.2773 129.555 40.3672 128.945 40.5469C128.336 40.7266 127.727 40.9531 127.117 41.2266L125.934 38.8125C126.629 38.4453 127.406 38.1562 128.266 37.9453C129.133 37.7344 130.027 37.6289 130.949 37.6289ZM132.848 44.9297L131.465 44.9766C130.309 45.0078 129.504 45.2148 129.051 45.5977C128.605 45.9805 128.383 46.4844 128.383 47.1094C128.383 47.6562 128.543 48.0469 128.863 48.2812C129.184 48.5078 129.602 48.6211 130.117 48.6211C130.883 48.6211 131.527 48.3945 132.051 47.9414C132.582 47.4883 132.848 46.8438 132.848 46.0078V44.9297ZM147.531 37.6523C148.93 37.6523 150.055 38.0352 150.906 38.8008C151.758 39.5586 152.184 40.7773 152.184 42.457V51H148.609V43.3477C148.609 42.4102 148.438 41.7031 148.094 41.2266C147.758 40.75 147.227 40.5117 146.5 40.5117C145.406 40.5117 144.66 40.8828 144.262 41.625C143.863 42.3672 143.664 43.4375 143.664 44.8359V51H140.09V37.8984H142.82L143.301 39.5742H143.5C143.781 39.1211 144.129 38.7539 144.543 38.4727C144.965 38.1914 145.43 37.9844 145.938 37.8516C146.453 37.7188 146.984 37.6523 147.531 37.6523ZM161.23 37.6289C162.988 37.6289 164.336 38.0117 165.273 38.7773C166.211 39.543 166.68 40.707 166.68 42.2695V51H164.184L163.492 49.2188H163.398C163.023 49.6875 162.641 50.0703 162.25 50.3672C161.859 50.6641 161.41 50.8828 160.902 51.0234C160.395 51.1641 159.777 51.2344 159.051 51.2344C158.277 51.2344 157.582 51.0859 156.965 50.7891C156.355 50.4922 155.875 50.0391 155.523 49.4297C155.172 48.8125 154.996 48.0312 154.996 47.0859C154.996 45.6953 155.484 44.6719 156.461 44.0156C157.438 43.3516 158.902 42.9844 160.855 42.9141L163.129 42.8438V42.2695C163.129 41.582 162.949 41.0781 162.59 40.7578C162.23 40.4375 161.73 40.2773 161.09 40.2773C160.457 40.2773 159.836 40.3672 159.227 40.5469C158.617 40.7266 158.008 40.9531 157.398 41.2266L156.215 38.8125C156.91 38.4453 157.688 38.1562 158.547 37.9453C159.414 37.7344 160.309 37.6289 161.23 37.6289ZM163.129 44.9297L161.746 44.9766C160.59 45.0078 159.785 45.2148 159.332 45.5977C158.887 45.9805 158.664 46.4844 158.664 47.1094C158.664 47.6562 158.824 48.0469 159.145 48.2812C159.465 48.5078 159.883 48.6211 160.398 48.6211C161.164 48.6211 161.809 48.3945 162.332 47.9414C162.863 47.4883 163.129 46.8438 163.129 46.0078V44.9297ZM174.203 56.7656C172.375 56.7656 170.977 56.4453 170.008 55.8047C169.047 55.1719 168.566 54.2812 168.566 53.1328C168.566 52.3438 168.812 51.6836 169.305 51.1523C169.797 50.6211 170.52 50.2422 171.473 50.0156C171.105 49.8594 170.785 49.6055 170.512 49.2539C170.238 48.8945 170.102 48.5156 170.102 48.1172C170.102 47.6172 170.246 47.2031 170.535 46.875C170.824 46.5391 171.242 46.2109 171.789 45.8906C171.102 45.5938 170.555 45.1172 170.148 44.4609C169.75 43.8047 169.551 43.0312 169.551 42.1406C169.551 41.1875 169.758 40.3789 170.172 39.7148C170.594 39.043 171.203 38.5312 172 38.1797C172.805 37.8281 173.781 37.6523 174.93 37.6523C175.172 37.6523 175.453 37.668 175.773 37.6992C176.094 37.7305 176.387 37.7656 176.652 37.8047C176.926 37.8438 177.109 37.875 177.203 37.8984H181.773V39.7148L179.723 40.2422C179.91 40.5312 180.051 40.8398 180.145 41.168C180.238 41.4961 180.285 41.8438 180.285 42.2109C180.285 43.6172 179.793 44.7148 178.809 45.5039C177.832 46.2852 176.473 46.6758 174.73 46.6758C174.316 46.6523 173.926 46.6211 173.559 46.582C173.379 46.7227 173.242 46.8711 173.148 47.0273C173.055 47.1836 173.008 47.3477 173.008 47.5195C173.008 47.6914 173.078 47.8359 173.219 47.9531C173.367 48.0625 173.586 48.1484 173.875 48.2109C174.172 48.2656 174.539 48.293 174.977 48.293H177.203C178.641 48.293 179.734 48.6016 180.484 49.2188C181.242 49.8359 181.621 50.7422 181.621 51.9375C181.621 53.4688 180.98 54.6562 179.699 55.5C178.426 56.3438 176.594 56.7656 174.203 56.7656ZM174.355 54.4336C175.207 54.4336 175.938 54.3516 176.547 54.1875C177.164 54.0312 177.637 53.8047 177.965 53.5078C178.293 53.2188 178.457 52.8711 178.457 52.4648C178.457 52.1367 178.359 51.875 178.164 51.6797C177.977 51.4922 177.688 51.3594 177.297 51.2812C176.914 51.2031 176.422 51.1641 175.82 51.1641H173.969C173.531 51.1641 173.137 51.2344 172.785 51.375C172.441 51.5156 172.168 51.7109 171.965 51.9609C171.762 52.2188 171.66 52.5156 171.66 52.8516C171.66 53.3438 171.895 53.7305 172.363 54.0117C172.84 54.293 173.504 54.4336 174.355 54.4336ZM174.93 44.4961C175.602 44.4961 176.094 44.2891 176.406 43.875C176.719 43.4609 176.875 42.8984 176.875 42.1875C176.875 41.3984 176.711 40.8086 176.383 40.418C176.062 40.0195 175.578 39.8203 174.93 39.8203C174.273 39.8203 173.781 40.0195 173.453 40.418C173.125 40.8086 172.961 41.3984 172.961 42.1875C172.961 42.8984 173.121 43.4609 173.441 43.875C173.77 44.2891 174.266 44.4961 174.93 44.4961ZM189.344 37.6523C190.555 37.6523 191.598 37.8867 192.473 38.3555C193.348 38.8164 194.023 39.4883 194.5 40.3711C194.977 41.2539 195.215 42.332 195.215 43.6055V45.3398H186.766C186.805 46.3477 187.105 47.1406 187.668 47.7188C188.238 48.2891 189.027 48.5742 190.035 48.5742C190.871 48.5742 191.637 48.4883 192.332 48.3164C193.027 48.1445 193.742 47.8867 194.477 47.543V50.3086C193.828 50.6289 193.148 50.8633 192.438 51.0117C191.734 51.1602 190.879 51.2344 189.871 51.2344C188.559 51.2344 187.395 50.9922 186.379 50.5078C185.371 50.0234 184.578 49.2852 184 48.293C183.43 47.3008 183.145 46.0508 183.145 44.543C183.145 43.0117 183.402 41.7383 183.918 40.7227C184.441 39.6992 185.168 38.9336 186.098 38.4258C187.027 37.9102 188.109 37.6523 189.344 37.6523ZM189.367 40.1953C188.672 40.1953 188.094 40.418 187.633 40.8633C187.18 41.3086 186.918 42.0078 186.848 42.9609H191.863C191.855 42.4297 191.758 41.957 191.57 41.543C191.391 41.1289 191.117 40.8008 190.75 40.5586C190.391 40.3164 189.93 40.1953 189.367 40.1953ZM213.508 37.6523C214.992 37.6523 216.113 38.0352 216.871 38.8008C217.637 39.5586 218.02 40.7773 218.02 42.457V51H214.434V43.3477C214.434 42.4102 214.273 41.7031 213.953 41.2266C213.633 40.75 213.137 40.5117 212.465 40.5117C211.52 40.5117 210.848 40.8516 210.449 41.5312C210.051 42.2031 209.852 43.168 209.852 44.4258V51H206.277V43.3477C206.277 42.7227 206.207 42.1992 206.066 41.7773C205.926 41.3555 205.711 41.0391 205.422 40.8281C205.133 40.6172 204.762 40.5117 204.309 40.5117C203.645 40.5117 203.121 40.6797 202.738 41.0156C202.363 41.3438 202.094 41.832 201.93 42.4805C201.773 43.1211 201.695 43.9062 201.695 44.8359V51H198.121V37.8984H200.852L201.332 39.5742H201.531C201.797 39.1211 202.129 38.7539 202.527 38.4727C202.934 38.1914 203.379 37.9844 203.863 37.8516C204.348 37.7188 204.84 37.6523 205.34 37.6523C206.301 37.6523 207.113 37.8086 207.777 38.1211C208.449 38.4336 208.965 38.918 209.324 39.5742H209.641C210.031 38.9023 210.582 38.4141 211.293 38.1094C212.012 37.8047 212.75 37.6523 213.508 37.6523ZM227.102 37.6523C228.312 37.6523 229.355 37.8867 230.23 38.3555C231.105 38.8164 231.781 39.4883 232.258 40.3711C232.734 41.2539 232.973 42.332 232.973 43.6055V45.3398H224.523C224.562 46.3477 224.863 47.1406 225.426 47.7188C225.996 48.2891 226.785 48.5742 227.793 48.5742C228.629 48.5742 229.395 48.4883 230.09 48.3164C230.785 48.1445 231.5 47.8867 232.234 47.543V50.3086C231.586 50.6289 230.906 50.8633 230.195 51.0117C229.492 51.1602 228.637 51.2344 227.629 51.2344C226.316 51.2344 225.152 50.9922 224.137 50.5078C223.129 50.0234 222.336 49.2852 221.758 48.293C221.188 47.3008 220.902 46.0508 220.902 44.543C220.902 43.0117 221.16 41.7383 221.676 40.7227C222.199 39.6992 222.926 38.9336 223.855 38.4258C224.785 37.9102 225.867 37.6523 227.102 37.6523ZM227.125 40.1953C226.43 40.1953 225.852 40.418 225.391 40.8633C224.938 41.3086 224.676 42.0078 224.605 42.9609H229.621C229.613 42.4297 229.516 41.957 229.328 41.543C229.148 41.1289 228.875 40.8008 228.508 40.5586C228.148 40.3164 227.688 40.1953 227.125 40.1953ZM243.32 37.6523C244.719 37.6523 245.844 38.0352 246.695 38.8008C247.547 39.5586 247.973 40.7773 247.973 42.457V51H244.398V43.3477C244.398 42.4102 244.227 41.7031 243.883 41.2266C243.547 40.75 243.016 40.5117 242.289 40.5117C241.195 40.5117 240.449 40.8828 240.051 41.625C239.652 42.3672 239.453 43.4375 239.453 44.8359V51H235.879V37.8984H238.609L239.09 39.5742H239.289C239.57 39.1211 239.918 38.7539 240.332 38.4727C240.754 38.1914 241.219 37.9844 241.727 37.8516C242.242 37.7188 242.773 37.6523 243.32 37.6523ZM257.172 48.3867C257.562 48.3867 257.941 48.3477 258.309 48.2695C258.684 48.1914 259.055 48.0938 259.422 47.9766V50.6367C259.039 50.8086 258.562 50.9492 257.992 51.0586C257.43 51.1758 256.812 51.2344 256.141 51.2344C255.359 51.2344 254.656 51.1094 254.031 50.8594C253.414 50.6016 252.926 50.1602 252.566 49.5352C252.215 48.9023 252.039 48.0234 252.039 46.8984V40.582H250.328V39.0703L252.297 37.875L253.328 35.1094H255.613V37.8984H259.281V40.582H255.613V46.8984C255.613 47.3984 255.754 47.7734 256.035 48.0234C256.324 48.2656 256.703 48.3867 257.172 48.3867Z" fill="black"/>
</svg>
