<svg width="290" height="138" viewBox="0 0 290 138" fill="none" xmlns="http://www.w3.org/2000/svg">
<path d="M0 42C0 25.4315 13.4315 12 30 12H260C276.569 12 290 25.4315 290 42V108C290 124.569 276.569 138 260 138H30C13.4315 138 0 124.569 0 108V42Z" fill="#C3C3C3"/>
<path d="M42.4375 51L41.1953 46.9219H34.9492L33.707 51H29.793L35.8398 33.7969H40.2812L46.3516 51H42.4375ZM40.3281 43.875L39.0859 39.8906C39.0078 39.625 38.9023 39.2852 38.7695 38.8711C38.6445 38.4492 38.5156 38.0234 38.3828 37.5938C38.2578 37.1562 38.1562 36.7773 38.0781 36.457C38 36.7773 37.8906 37.1758 37.75 37.6523C37.6172 38.1211 37.4883 38.5664 37.3633 38.9883C37.2383 39.4102 37.1484 39.7109 37.0938 39.8906L35.8633 43.875H40.3281ZM57.3789 47.1094C57.3789 48 57.168 48.7539 56.7461 49.3711C56.332 49.9805 55.7109 50.4453 54.8828 50.7656C54.0547 51.0781 53.0234 51.2344 51.7891 51.2344C50.875 51.2344 50.0898 51.1758 49.4336 51.0586C48.7852 50.9414 48.1289 50.7461 47.4648 50.4727V47.5195C48.1758 47.8398 48.9375 48.1055 49.75 48.3164C50.5703 48.5195 51.2891 48.6211 51.9062 48.6211C52.6016 48.6211 53.0977 48.5195 53.3945 48.3164C53.6992 48.1055 53.8516 47.832 53.8516 47.4961C53.8516 47.2773 53.7891 47.082 53.6641 46.9102C53.5469 46.7305 53.2891 46.5312 52.8906 46.3125C52.4922 46.0859 51.8672 45.793 51.0156 45.4336C50.1953 45.0898 49.5195 44.7422 48.9883 44.3906C48.4648 44.0391 48.0742 43.625 47.8164 43.1484C47.5664 42.6641 47.4414 42.0508 47.4414 41.3086C47.4414 40.0977 47.9102 39.1875 48.8477 38.5781C49.793 37.9609 51.0547 37.6523 52.6328 37.6523C53.4453 37.6523 54.2188 37.7344 54.9531 37.8984C55.6953 38.0625 56.457 38.3242 57.2383 38.6836L56.1602 41.2617C55.5117 40.9805 54.8984 40.75 54.3203 40.5703C53.75 40.3906 53.168 40.3008 52.5742 40.3008C52.0508 40.3008 51.6562 40.3711 51.3906 40.5117C51.125 40.6523 50.9922 40.8672 50.9922 41.1562C50.9922 41.3672 51.0586 41.5547 51.1914 41.7188C51.332 41.8828 51.5977 42.0664 51.9883 42.2695C52.3867 42.4648 52.9688 42.7188 53.7344 43.0312C54.4766 43.3359 55.1211 43.6562 55.668 43.9922C56.2148 44.3203 56.6367 44.7305 56.9336 45.2227C57.2305 45.707 57.3789 46.3359 57.3789 47.1094ZM69.3086 47.1094C69.3086 48 69.0977 48.7539 68.6758 49.3711C68.2617 49.9805 67.6406 50.4453 66.8125 50.7656C65.9844 51.0781 64.9531 51.2344 63.7188 51.2344C62.8047 51.2344 62.0195 51.1758 61.3633 51.0586C60.7148 50.9414 60.0586 50.7461 59.3945 50.4727V47.5195C60.1055 47.8398 60.8672 48.1055 61.6797 48.3164C62.5 48.5195 63.2188 48.6211 63.8359 48.6211C64.5312 48.6211 65.0273 48.5195 65.3242 48.3164C65.6289 48.1055 65.7812 47.832 65.7812 47.4961C65.7812 47.2773 65.7188 47.082 65.5938 46.9102C65.4766 46.7305 65.2188 46.5312 64.8203 46.3125C64.4219 46.0859 63.7969 45.793 62.9453 45.4336C62.125 45.0898 61.4492 44.7422 60.918 44.3906C60.3945 44.0391 60.0039 43.625 59.7461 43.1484C59.4961 42.6641 59.3711 42.0508 59.3711 41.3086C59.3711 40.0977 59.8398 39.1875 60.7773 38.5781C61.7227 37.9609 62.9844 37.6523 64.5625 37.6523C65.375 37.6523 66.1484 37.7344 66.8828 37.8984C67.625 38.0625 68.3867 38.3242 69.168 38.6836L68.0898 41.2617C67.4414 40.9805 66.8281 40.75 66.25 40.5703C65.6797 40.3906 65.0977 40.3008 64.5039 40.3008C63.9805 40.3008 63.5859 40.3711 63.3203 40.5117C63.0547 40.6523 62.9219 40.8672 62.9219 41.1562C62.9219 41.3672 62.9883 41.5547 63.1211 41.7188C63.2617 41.8828 63.5273 42.0664 63.918 42.2695C64.3164 42.4648 64.8984 42.7188 65.6641 43.0312C66.4062 43.3359 67.0508 43.6562 67.5977 43.9922C68.1445 44.3203 68.5664 44.7305 68.8633 45.2227C69.1602 45.707 69.3086 46.3359 69.3086 47.1094ZM77.5 37.6523C78.7109 37.6523 79.7539 37.8867 80.6289 38.3555C81.5039 38.8164 82.1797 39.4883 82.6562 40.3711C83.1328 41.2539 83.3711 42.332 83.3711 43.6055V45.3398H74.9219C74.9609 46.3477 75.2617 47.1406 75.8242 47.7188C76.3945 48.2891 77.1836 48.5742 78.1914 48.5742C79.0273 48.5742 79.793 48.4883 80.4883 48.3164C81.1836 48.1445 81.8984 47.8867 82.6328 47.543V50.3086C81.9844 50.6289 81.3047 50.8633 80.5938 51.0117C79.8906 51.1602 79.0352 51.2344 78.0273 51.2344C76.7148 51.2344 75.5508 50.9922 74.5352 50.5078C73.5273 50.0234 72.7344 49.2852 72.1562 48.293C71.5859 47.3008 71.3008 46.0508 71.3008 44.543C71.3008 43.0117 71.5586 41.7383 72.0742 40.7227C72.5977 39.6992 73.3242 38.9336 74.2539 38.4258C75.1836 37.9102 76.2656 37.6523 77.5 37.6523ZM77.5234 40.1953C76.8281 40.1953 76.25 40.418 75.7891 40.8633C75.3359 41.3086 75.0742 42.0078 75.0039 42.9609H80.0195C80.0117 42.4297 79.9141 41.957 79.7266 41.543C79.5469 41.1289 79.2734 40.8008 78.9062 40.5586C78.5469 40.3164 78.0859 40.1953 77.5234 40.1953ZM91.7969 48.3867C92.1875 48.3867 92.5664 48.3477 92.9336 48.2695C93.3086 48.1914 93.6797 48.0938 94.0469 47.9766V50.6367C93.6641 50.8086 93.1875 50.9492 92.6172 51.0586C92.0547 51.1758 91.4375 51.2344 90.7656 51.2344C89.9844 51.2344 89.2812 51.1094 88.6562 50.8594C88.0391 50.6016 87.5508 50.1602 87.1914 49.5352C86.8398 48.9023 86.6641 48.0234 86.6641 46.8984V40.582H84.9531V39.0703L86.9219 37.875L87.9531 35.1094H90.2383V37.8984H93.9062V40.582H90.2383V46.8984C90.2383 47.3984 90.3789 47.7734 90.6602 48.0234C90.9492 48.2656 91.3281 48.3867 91.7969 48.3867ZM110.477 51L106.352 37.5586H106.246C106.262 37.8789 106.285 38.3633 106.316 39.0117C106.355 39.6523 106.391 40.3359 106.422 41.0625C106.453 41.7891 106.469 42.4453 106.469 43.0312V51H103.223V33.8672H108.168L112.223 46.9688H112.293L116.594 33.8672H121.539V51H118.152V42.8906C118.152 42.3516 118.16 41.7305 118.176 41.0273C118.199 40.3242 118.227 39.6562 118.258 39.0234C118.289 38.3828 118.312 37.9023 118.328 37.582H118.223L113.805 51H110.477ZM130.949 37.6289C132.707 37.6289 134.055 38.0117 134.992 38.7773C135.93 39.543 136.398 40.707 136.398 42.2695V51H133.902L133.211 49.2188H133.117C132.742 49.6875 132.359 50.0703 131.969 50.3672C131.578 50.6641 131.129 50.8828 130.621 51.0234C130.113 51.1641 129.496 51.2344 128.77 51.2344C127.996 51.2344 127.301 51.0859 126.684 50.7891C126.074 50.4922 125.594 50.0391 125.242 49.4297C124.891 48.8125 124.715 48.0312 124.715 47.0859C124.715 45.6953 125.203 44.6719 126.18 44.0156C127.156 43.3516 128.621 42.9844 130.574 42.9141L132.848 42.8438V42.2695C132.848 41.582 132.668 41.0781 132.309 40.7578C131.949 40.4375 131.449 40.2773 130.809 40.2773C130.176 40.2773 129.555 40.3672 128.945 40.5469C128.336 40.7266 127.727 40.9531 127.117 41.2266L125.934 38.8125C126.629 38.4453 127.406 38.1562 128.266 37.9453C129.133 37.7344 130.027 37.6289 130.949 37.6289ZM132.848 44.9297L131.465 44.9766C130.309 45.0078 129.504 45.2148 129.051 45.5977C128.605 45.9805 128.383 46.4844 128.383 47.1094C128.383 47.6562 128.543 48.0469 128.863 48.2812C129.184 48.5078 129.602 48.6211 130.117 48.6211C130.883 48.6211 131.527 48.3945 132.051 47.9414C132.582 47.4883 132.848 46.8438 132.848 46.0078V44.9297ZM147.531 37.6523C148.93 37.6523 150.055 38.0352 150.906 38.8008C151.758 39.5586 152.184 40.7773 152.184 42.457V51H148.609V43.3477C148.609 42.4102 148.438 41.7031 148.094 41.2266C147.758 40.75 147.227 40.5117 146.5 40.5117C145.406 40.5117 144.66 40.8828 144.262 41.625C143.863 42.3672 143.664 43.4375 143.664 44.8359V51H140.09V37.8984H142.82L143.301 39.5742H143.5C143.781 39.1211 144.129 38.7539 144.543 38.4727C144.965 38.1914 145.43 37.9844 145.938 37.8516C146.453 37.7188 146.984 37.6523 147.531 37.6523ZM161.23 37.6289C162.988 37.6289 164.336 38.0117 165.273 38.7773C166.211 39.543 166.68 40.707 166.68 42.2695V51H164.184L163.492 49.2188H163.398C163.023 49.6875 162.641 50.0703 162.25 50.3672C161.859 50.6641 161.41 50.8828 160.902 51.0234C160.395 51.1641 159.777 51.2344 159.051 51.2344C158.277 51.2344 157.582 51.0859 156.965 50.7891C156.355 50.4922 155.875 50.0391 155.523 49.4297C155.172 48.8125 154.996 48.0312 154.996 47.0859C154.996 45.6953 155.484 44.6719 156.461 44.0156C157.438 43.3516 158.902 42.9844 160.855 42.9141L163.129 42.8438V42.2695C163.129 41.582 162.949 41.0781 162.59 40.7578C162.23 40.4375 161.73 40.2773 161.09 40.2773C160.457 40.2773 159.836 40.3672 159.227 40.5469C158.617 40.7266 158.008 40.9531 157.398 41.2266L156.215 38.8125C156.91 38.4453 157.688 38.1562 158.547 37.9453C159.414 37.7344 160.309 37.6289 161.23 37.6289ZM163.129 44.9297L161.746 44.9766C160.59 45.0078 159.785 45.2148 159.332 45.5977C158.887 45.9805 158.664 46.4844 158.664 47.1094C158.664 47.6562 158.824 48.0469 159.145 48.2812C159.465 48.5078 159.883 48.6211 160.398 48.6211C161.164 48.6211 161.809 48.3945 162.332 47.9414C162.863 47.4883 163.129 46.8438 163.129 46.0078V44.9297ZM174.203 56.7656C172.375 56.7656 170.977 56.4453 170.008 55.8047C169.047 55.1719 168.566 54.2812 168.566 53.1328C168.566 52.3438 168.812 51.6836 169.305 51.1523C169.797 50.6211 170.52 50.2422 171.473 50.0156C171.105 49.8594 170.785 49.6055 170.512 49.2539C170.238 48.8945 170.102 48.5156 170.102 48.1172C170.102 47.6172 170.246 47.2031 170.535 46.875C170.824 46.5391 171.242 46.2109 171.789 45.8906C171.102 45.5938 170.555 45.1172 170.148 44.4609C169.75 43.8047 169.551 43.0312 169.551 42.1406C169.551 41.1875 169.758 40.3789 170.172 39.7148C170.594 39.043 171.203 38.5312 172 38.1797C172.805 37.8281 173.781 37.6523 174.93 37.6523C175.172 37.6523 175.453 37.668 175.773 37.6992C176.094 37.7305 176.387 37.7656 176.652 37.8047C176.926 37.8438 177.109 37.875 177.203 37.8984H181.773V39.7148L179.723 40.2422C179.91 40.5312 180.051 40.8398 180.145 41.168C180.238 41.4961 180.285 41.8438 180.285 42.2109C180.285 43.6172 179.793 44.7148 178.809 45.5039C177.832 46.2852 176.473 46.6758 174.73 46.6758C174.316 46.6523 173.926 46.6211 173.559 46.582C173.379 46.7227 173.242 46.8711 173.148 47.0273C173.055 47.1836 173.008 47.3477 173.008 47.5195C173.008 47.6914 173.078 47.8359 173.219 47.9531C173.367 48.0625 173.586 48.1484 173.875 48.2109C174.172 48.2656 174.539 48.293 174.977 48.293H177.203C178.641 48.293 179.734 48.6016 180.484 49.2188C181.242 49.8359 181.621 50.7422 181.621 51.9375C181.621 53.4688 180.98 54.6562 179.699 55.5C178.426 56.3438 176.594 56.7656 174.203 56.7656ZM174.355 54.4336C175.207 54.4336 175.938 54.3516 176.547 54.1875C177.164 54.0312 177.637 53.8047 177.965 53.5078C178.293 53.2188 178.457 52.8711 178.457 52.4648C178.457 52.1367 178.359 51.875 178.164 51.6797C177.977 51.4922 177.688 51.3594 177.297 51.2812C176.914 51.2031 176.422 51.1641 175.82 51.1641H173.969C173.531 51.1641 173.137 51.2344 172.785 51.375C172.441 51.5156 172.168 51.7109 171.965 51.9609C171.762 52.2188 171.66 52.5156 171.66 52.8516C171.66 53.3438 171.895 53.7305 172.363 54.0117C172.84 54.293 173.504 54.4336 174.355 54.4336ZM174.93 44.4961C175.602 44.4961 176.094 44.2891 176.406 43.875C176.719 43.4609 176.875 42.8984 176.875 42.1875C176.875 41.3984 176.711 40.8086 176.383 40.418C176.062 40.0195 175.578 39.8203 174.93 39.8203C174.273 39.8203 173.781 40.0195 173.453 40.418C173.125 40.8086 172.961 41.3984 172.961 42.1875C172.961 42.8984 173.121 43.4609 173.441 43.875C173.77 44.2891 174.266 44.4961 174.93 44.4961ZM189.344 37.6523C190.555 37.6523 191.598 37.8867 192.473 38.3555C193.348 38.8164 194.023 39.4883 194.5 40.3711C194.977 41.2539 195.215 42.332 195.215 43.6055V45.3398H186.766C186.805 46.3477 187.105 47.1406 187.668 47.7188C188.238 48.2891 189.027 48.5742 190.035 48.5742C190.871 48.5742 191.637 48.4883 192.332 48.3164C193.027 48.1445 193.742 47.8867 194.477 47.543V50.3086C193.828 50.6289 193.148 50.8633 192.438 51.0117C191.734 51.1602 190.879 51.2344 189.871 51.2344C188.559 51.2344 187.395 50.9922 186.379 50.5078C185.371 50.0234 184.578 49.2852 184 48.293C183.43 47.3008 183.145 46.0508 183.145 44.543C183.145 43.0117 183.402 41.7383 183.918 40.7227C184.441 39.6992 185.168 38.9336 186.098 38.4258C187.027 37.9102 188.109 37.6523 189.344 37.6523ZM189.367 40.1953C188.672 40.1953 188.094 40.418 187.633 40.8633C187.18 41.3086 186.918 42.0078 186.848 42.9609H191.863C191.855 42.4297 191.758 41.957 191.57 41.543C191.391 41.1289 191.117 40.8008 190.75 40.5586C190.391 40.3164 189.93 40.1953 189.367 40.1953ZM213.508 37.6523C214.992 37.6523 216.113 38.0352 216.871 38.8008C217.637 39.5586 218.02 40.7773 218.02 42.457V51H214.434V43.3477C214.434 42.4102 214.273 41.7031 213.953 41.2266C213.633 40.75 213.137 40.5117 212.465 40.5117C211.52 40.5117 210.848 40.8516 210.449 41.5312C210.051 42.2031 209.852 43.168 209.852 44.4258V51H206.277V43.3477C206.277 42.7227 206.207 42.1992 206.066 41.7773C205.926 41.3555 205.711 41.0391 205.422 40.8281C205.133 40.6172 204.762 40.5117 204.309 40.5117C203.645 40.5117 203.121 40.6797 202.738 41.0156C202.363 41.3438 202.094 41.832 201.93 42.4805C201.773 43.1211 201.695 43.9062 201.695 44.8359V51H198.121V37.8984H200.852L201.332 39.5742H201.531C201.797 39.1211 202.129 38.7539 202.527 38.4727C202.934 38.1914 203.379 37.9844 203.863 37.8516C204.348 37.7188 204.84 37.6523 205.34 37.6523C206.301 37.6523 207.113 37.8086 207.777 38.1211C208.449 38.4336 208.965 38.918 209.324 39.5742H209.641C210.031 38.9023 210.582 38.4141 211.293 38.1094C212.012 37.8047 212.75 37.6523 213.508 37.6523ZM227.102 37.6523C228.312 37.6523 229.355 37.8867 230.23 38.3555C231.105 38.8164 231.781 39.4883 232.258 40.3711C232.734 41.2539 232.973 42.332 232.973 43.6055V45.3398H224.523C224.562 46.3477 224.863 47.1406 225.426 47.7188C225.996 48.2891 226.785 48.5742 227.793 48.5742C228.629 48.5742 229.395 48.4883 230.09 48.3164C230.785 48.1445 231.5 47.8867 232.234 47.543V50.3086C231.586 50.6289 230.906 50.8633 230.195 51.0117C229.492 51.1602 228.637 51.2344 227.629 51.2344C226.316 51.2344 225.152 50.9922 224.137 50.5078C223.129 50.0234 222.336 49.2852 221.758 48.293C221.188 47.3008 220.902 46.0508 220.902 44.543C220.902 43.0117 221.16 41.7383 221.676 40.7227C222.199 39.6992 222.926 38.9336 223.855 38.4258C224.785 37.9102 225.867 37.6523 227.102 37.6523ZM227.125 40.1953C226.43 40.1953 225.852 40.418 225.391 40.8633C224.938 41.3086 224.676 42.0078 224.605 42.9609H229.621C229.613 42.4297 229.516 41.957 229.328 41.543C229.148 41.1289 228.875 40.8008 228.508 40.5586C228.148 40.3164 227.688 40.1953 227.125 40.1953ZM243.32 37.6523C244.719 37.6523 245.844 38.0352 246.695 38.8008C247.547 39.5586 247.973 40.7773 247.973 42.457V51H244.398V43.3477C244.398 42.4102 244.227 41.7031 243.883 41.2266C243.547 40.75 243.016 40.5117 242.289 40.5117C241.195 40.5117 240.449 40.8828 240.051 41.625C239.652 42.3672 239.453 43.4375 239.453 44.8359V51H235.879V37.8984H238.609L239.09 39.5742H239.289C239.57 39.1211 239.918 38.7539 240.332 38.4727C240.754 38.1914 241.219 37.9844 241.727 37.8516C242.242 37.7188 242.773 37.6523 243.32 37.6523ZM257.172 48.3867C257.562 48.3867 257.941 48.3477 258.309 48.2695C258.684 48.1914 259.055 48.0938 259.422 47.9766V50.6367C259.039 50.8086 258.562 50.9492 257.992 51.0586C257.43 51.1758 256.812 51.2344 256.141 51.2344C255.359 51.2344 254.656 51.1094 254.031 50.8594C253.414 50.6016 252.926 50.1602 252.566 49.5352C252.215 48.9023 252.039 48.0234 252.039 46.8984V40.582H250.328V39.0703L252.297 37.875L253.328 35.1094H255.613V37.8984H259.281V40.582H255.613V46.8984C255.613 47.3984 255.754 47.7734 256.035 48.0234C256.324 48.2656 256.703 48.3867 257.172 48.3867Z" fill="black"/>
<path d="M25.6836 93.7812H27.7246L29.8047 104.729L35.6836 93.7812H37.9102L30.1758 108H28.4766L25.6836 93.7812ZM24.668 93.7812H26.6992L25.4004 103.361L24.5898 108H22.1973L24.668 93.7812ZM36.7871 93.7812H38.8379L36.3672 108H33.9746L34.8242 103.156L36.7871 93.7812ZM45.127 105.881L45.9277 100.812C45.9668 100.474 45.944 100.168 45.8594 99.8945C45.7747 99.6211 45.6185 99.4062 45.3906 99.25C45.1693 99.0872 44.8763 99.0026 44.5117 98.9961C44.1862 98.9896 43.8802 99.0449 43.5938 99.1621C43.3073 99.2728 43.0632 99.4388 42.8613 99.6602C42.666 99.8815 42.5358 100.152 42.4707 100.471L40.1758 100.48C40.2148 99.9271 40.3776 99.4453 40.6641 99.0352C40.957 98.6185 41.3249 98.2767 41.7676 98.0098C42.2168 97.7363 42.6986 97.5378 43.2129 97.4141C43.7337 97.2839 44.2415 97.222 44.7363 97.2285C45.4525 97.2415 46.0872 97.3945 46.6406 97.6875C47.194 97.9805 47.6139 98.3939 47.9004 98.9277C48.1934 99.4616 48.304 100.106 48.2324 100.861L47.4609 105.568C47.4023 105.939 47.36 106.32 47.334 106.711C47.3145 107.095 47.3665 107.466 47.4902 107.824L47.4707 108L45.1953 108.01C45.0977 107.665 45.0488 107.313 45.0488 106.955C45.0488 106.59 45.0749 106.232 45.127 105.881ZM46.1914 101.574L45.957 103.029L44.4336 103.02C44.1211 103.02 43.7988 103.049 43.4668 103.107C43.1413 103.166 42.8353 103.267 42.5488 103.41C42.2624 103.553 42.0215 103.749 41.8262 103.996C41.6309 104.237 41.5104 104.54 41.4648 104.904C41.4323 105.197 41.4648 105.451 41.5625 105.666C41.6667 105.874 41.8229 106.04 42.0312 106.164C42.2396 106.288 42.487 106.353 42.7734 106.359C43.1576 106.366 43.5352 106.291 43.9062 106.135C44.2839 105.979 44.6094 105.757 44.8828 105.471C45.1628 105.178 45.3548 104.842 45.459 104.465L46.0742 105.52C45.931 105.917 45.7292 106.281 45.4688 106.613C45.2148 106.945 44.9186 107.232 44.5801 107.473C44.2415 107.714 43.8704 107.899 43.4668 108.029C43.0697 108.16 42.6595 108.221 42.2363 108.215C41.6504 108.202 41.1165 108.068 40.6348 107.814C40.153 107.554 39.7721 107.193 39.4922 106.73C39.2122 106.268 39.0885 105.734 39.1211 105.129C39.1536 104.445 39.3262 103.876 39.6387 103.42C39.9577 102.958 40.3646 102.593 40.8594 102.326C41.3607 102.053 41.9076 101.857 42.5 101.74C43.0924 101.623 43.6784 101.564 44.2578 101.564L46.1914 101.574ZM53.1152 99.8262L51.6992 108H49.3945L51.2305 97.4336H53.3887L53.1152 99.8262ZM52.3047 102.326L51.6016 102.336C51.6797 101.704 51.8327 101.083 52.0605 100.471C52.2949 99.8522 52.6042 99.2988 52.9883 98.8105C53.3724 98.3158 53.8379 97.9251 54.3848 97.6387C54.9382 97.3522 55.5762 97.2188 56.2988 97.2383C56.8717 97.2513 57.347 97.3652 57.7246 97.5801C58.1087 97.7949 58.4049 98.0846 58.6133 98.4492C58.8281 98.8138 58.9681 99.2305 59.0332 99.6992C59.0983 100.168 59.1016 100.66 59.043 101.174L57.9102 108H55.5957L56.748 101.145C56.7871 100.767 56.7741 100.428 56.709 100.129C56.6439 99.8229 56.5007 99.582 56.2793 99.4062C56.0579 99.224 55.7389 99.1296 55.3223 99.123C54.8665 99.11 54.4661 99.1947 54.1211 99.377C53.776 99.5592 53.4798 99.8099 53.2324 100.129C52.985 100.441 52.7832 100.79 52.627 101.174C52.4772 101.558 52.3698 101.942 52.3047 102.326ZM66.3965 105.881L67.1973 100.812C67.2363 100.474 67.2135 100.168 67.1289 99.8945C67.0443 99.6211 66.888 99.4062 66.6602 99.25C66.4388 99.0872 66.1458 99.0026 65.7812 98.9961C65.4557 98.9896 65.1497 99.0449 64.8633 99.1621C64.5768 99.2728 64.3327 99.4388 64.1309 99.6602C63.9355 99.8815 63.8053 100.152 63.7402 100.471L61.4453 100.48C61.4844 99.9271 61.6471 99.4453 61.9336 99.0352C62.2266 98.6185 62.5944 98.2767 63.0371 98.0098C63.4863 97.7363 63.9681 97.5378 64.4824 97.4141C65.0033 97.2839 65.5111 97.222 66.0059 97.2285C66.722 97.2415 67.3568 97.3945 67.9102 97.6875C68.4635 97.9805 68.8835 98.3939 69.1699 98.9277C69.4629 99.4616 69.5736 100.106 69.502 100.861L68.7305 105.568C68.6719 105.939 68.6296 106.32 68.6035 106.711C68.584 107.095 68.6361 107.466 68.7598 107.824L68.7402 108L66.4648 108.01C66.3672 107.665 66.3184 107.313 66.3184 106.955C66.3184 106.59 66.3444 106.232 66.3965 105.881ZM67.4609 101.574L67.2266 103.029L65.7031 103.02C65.3906 103.02 65.0684 103.049 64.7363 103.107C64.4108 103.166 64.1048 103.267 63.8184 103.41C63.5319 103.553 63.291 103.749 63.0957 103.996C62.9004 104.237 62.7799 104.54 62.7344 104.904C62.7018 105.197 62.7344 105.451 62.832 105.666C62.9362 105.874 63.0924 106.04 63.3008 106.164C63.5091 106.288 63.7565 106.353 64.043 106.359C64.4271 106.366 64.8047 106.291 65.1758 106.135C65.5534 105.979 65.8789 105.757 66.1523 105.471C66.4323 105.178 66.6243 104.842 66.7285 104.465L67.3438 105.52C67.2005 105.917 66.9987 106.281 66.7383 106.613C66.4844 106.945 66.1882 107.232 65.8496 107.473C65.5111 107.714 65.14 107.899 64.7363 108.029C64.3392 108.16 63.929 108.221 63.5059 108.215C62.9199 108.202 62.3861 108.068 61.9043 107.814C61.4225 107.554 61.0417 107.193 60.7617 106.73C60.4818 106.268 60.3581 105.734 60.3906 105.129C60.4232 104.445 60.5957 103.876 60.9082 103.42C61.2272 102.958 61.6341 102.593 62.1289 102.326C62.6302 102.053 63.1771 101.857 63.7695 101.74C64.362 101.623 64.9479 101.564 65.5273 101.564L67.4609 101.574ZM79.0723 97.4336H81.1816L79.4336 107.697C79.3034 108.628 78.9974 109.432 78.5156 110.109C78.0404 110.786 77.4251 111.304 76.6699 111.662C75.9147 112.027 75.0684 112.196 74.1309 112.17C73.6621 112.163 73.1999 112.089 72.7441 111.945C72.2884 111.809 71.8652 111.61 71.4746 111.35C71.084 111.089 70.7487 110.767 70.4688 110.383L71.6699 109.016C71.9694 109.419 72.321 109.738 72.7246 109.973C73.1283 110.207 73.5807 110.331 74.082 110.344C74.6289 110.357 75.1139 110.256 75.5371 110.041C75.9603 109.833 76.3053 109.533 76.5723 109.143C76.8457 108.752 77.0247 108.29 77.1094 107.756L78.4766 99.709L79.0723 97.4336ZM71.1914 102.912L71.2207 102.697C71.2988 102.046 71.4551 101.395 71.6895 100.744C71.9238 100.087 72.2363 99.4909 72.627 98.957C73.0241 98.4167 73.5059 97.9902 74.0723 97.6777C74.6452 97.3652 75.3125 97.2155 76.0742 97.2285C76.7643 97.248 77.3307 97.4173 77.7734 97.7363C78.2227 98.0553 78.5677 98.4688 78.8086 98.9766C79.056 99.4844 79.222 100.038 79.3066 100.637C79.3913 101.236 79.4173 101.828 79.3848 102.414L79.3066 103.078C79.2025 103.684 79.0267 104.292 78.7793 104.904C78.5319 105.516 78.2096 106.076 77.8125 106.584C77.4219 107.085 76.9531 107.486 76.4062 107.785C75.8659 108.085 75.2441 108.225 74.541 108.205C73.8444 108.186 73.265 108.013 72.8027 107.688C72.3405 107.355 71.9824 106.929 71.7285 106.408C71.4746 105.887 71.3053 105.321 71.2207 104.709C71.1426 104.097 71.1328 103.498 71.1914 102.912ZM73.5254 102.697L73.5059 102.902C73.4668 103.247 73.4538 103.612 73.4668 103.996C73.4798 104.38 73.5417 104.745 73.6523 105.09C73.763 105.435 73.9453 105.721 74.1992 105.949C74.4531 106.171 74.7982 106.288 75.2344 106.301C75.7617 106.327 76.2272 106.216 76.6309 105.969C77.041 105.721 77.3796 105.393 77.6465 104.982C77.9199 104.572 78.112 104.13 78.2227 103.654L78.4961 101.867C78.5221 101.535 78.5026 101.21 78.4375 100.891C78.3724 100.565 78.2585 100.272 78.0957 100.012C77.9395 99.7513 77.7311 99.543 77.4707 99.3867C77.2103 99.224 76.8945 99.1393 76.5234 99.1328C76.0352 99.1133 75.612 99.2109 75.2539 99.4258C74.9023 99.6406 74.6061 99.9271 74.3652 100.285C74.1309 100.643 73.9453 101.034 73.8086 101.457C73.6719 101.88 73.5775 102.294 73.5254 102.697ZM86.4355 108.195C85.7129 108.182 85.0716 108.042 84.5117 107.775C83.9583 107.502 83.4993 107.134 83.1348 106.672C82.7702 106.203 82.5065 105.666 82.3438 105.061C82.181 104.449 82.1257 103.798 82.1777 103.107L82.2168 102.707C82.2884 101.997 82.4609 101.314 82.7344 100.656C83.0078 99.9922 83.3724 99.403 83.8281 98.8887C84.2904 98.3678 84.834 97.9577 85.459 97.6582C86.084 97.3587 86.7806 97.2188 87.5488 97.2383C88.2845 97.2513 88.9062 97.4043 89.4141 97.6973C89.9219 97.9902 90.3255 98.3809 90.625 98.8691C90.9245 99.3509 91.123 99.8978 91.2207 100.51C91.3249 101.122 91.3411 101.757 91.2695 102.414L91.1328 103.42H83.2031L83.4766 101.73L89.0723 101.74L89.1113 101.535C89.1699 101.125 89.1471 100.738 89.043 100.373C88.9453 100.008 88.763 99.709 88.4961 99.4746C88.2292 99.2402 87.8711 99.1165 87.4219 99.1035C86.9336 99.0905 86.5137 99.1914 86.1621 99.4062C85.8171 99.6211 85.5306 99.9108 85.3027 100.275C85.0749 100.64 84.8958 101.037 84.7656 101.467C84.6419 101.89 84.554 102.303 84.502 102.707L84.4629 103.098C84.4238 103.482 84.4336 103.863 84.4922 104.24C84.5508 104.618 84.6647 104.963 84.834 105.275C85.0033 105.581 85.2376 105.832 85.5371 106.027C85.8366 106.216 86.2077 106.317 86.6504 106.33C87.2038 106.343 87.7051 106.229 88.1543 105.988C88.61 105.741 89.0234 105.422 89.3945 105.031L90.5273 106.232C90.2279 106.682 89.8568 107.053 89.4141 107.346C88.9779 107.639 88.5026 107.857 87.9883 108C87.4805 108.137 86.9629 108.202 86.4355 108.195ZM100.195 106.73L104.551 97.4336H107.09L100.898 109.621C100.723 109.986 100.521 110.331 100.293 110.656C100.072 110.982 99.8177 111.268 99.5312 111.516C99.2448 111.763 98.9225 111.955 98.5645 112.092C98.2129 112.235 97.8158 112.307 97.373 112.307C97.1712 112.3 96.9727 112.277 96.7773 112.238C96.5755 112.206 96.377 112.167 96.1816 112.121L96.3477 110.314C96.4193 110.321 96.4909 110.327 96.5625 110.334C96.6341 110.347 96.7057 110.354 96.7773 110.354C97.1484 110.367 97.474 110.318 97.7539 110.207C98.0339 110.103 98.278 109.94 98.4863 109.719C98.7012 109.497 98.89 109.227 99.0527 108.908L100.195 106.73ZM100.215 97.4336L101.289 105.461L101.27 107.863L99.668 108.273L97.8125 97.4336H100.215ZM106.836 102.893L106.865 102.668C106.943 101.939 107.122 101.245 107.402 100.588C107.682 99.9303 108.053 99.3477 108.516 98.8398C108.984 98.3255 109.535 97.9251 110.166 97.6387C110.804 97.3522 111.514 97.2188 112.295 97.2383C113.05 97.2513 113.698 97.4076 114.238 97.707C114.785 98.0065 115.228 98.4069 115.566 98.9082C115.911 99.403 116.152 99.9694 116.289 100.607C116.426 101.239 116.462 101.9 116.396 102.59L116.377 102.814C116.292 103.544 116.107 104.234 115.82 104.885C115.54 105.536 115.166 106.115 114.697 106.623C114.235 107.124 113.685 107.518 113.047 107.805C112.415 108.085 111.712 108.215 110.938 108.195C110.189 108.182 109.541 108.029 108.994 107.736C108.454 107.437 108.011 107.04 107.666 106.545C107.327 106.05 107.09 105.49 106.953 104.865C106.816 104.234 106.777 103.576 106.836 102.893ZM109.15 102.668L109.131 102.893C109.098 103.251 109.095 103.628 109.121 104.025C109.147 104.423 109.225 104.794 109.355 105.139C109.486 105.484 109.688 105.767 109.961 105.988C110.234 106.21 110.599 106.327 111.055 106.34C111.536 106.353 111.956 106.255 112.314 106.047C112.673 105.839 112.972 105.559 113.213 105.207C113.454 104.855 113.646 104.471 113.789 104.055C113.932 103.632 114.027 103.218 114.072 102.814L114.092 102.59C114.131 102.238 114.137 101.864 114.111 101.467C114.085 101.063 114.007 100.686 113.877 100.334C113.747 99.9759 113.545 99.6862 113.271 99.4648C112.998 99.237 112.633 99.1165 112.178 99.1035C111.689 99.0905 111.266 99.1914 110.908 99.4062C110.55 99.6146 110.251 99.8978 110.01 100.256C109.769 100.614 109.577 101.005 109.434 101.428C109.297 101.851 109.202 102.264 109.15 102.668ZM123.994 105.393L125.371 97.4336H127.676L125.84 108H123.672L123.994 105.393ZM124.639 103.312L125.4 103.283C125.322 103.921 125.179 104.54 124.971 105.139C124.762 105.731 124.479 106.262 124.121 106.73C123.763 107.199 123.317 107.567 122.783 107.834C122.249 108.101 121.621 108.225 120.898 108.205C120.319 108.186 119.831 108.072 119.434 107.863C119.043 107.648 118.734 107.359 118.506 106.994C118.278 106.63 118.125 106.213 118.047 105.744C117.975 105.275 117.965 104.781 118.018 104.26L119.16 97.4336H121.455L120.303 104.289C120.283 104.543 120.283 104.787 120.303 105.021C120.322 105.256 120.378 105.467 120.469 105.656C120.56 105.845 120.693 105.998 120.869 106.115C121.051 106.226 121.289 106.288 121.582 106.301C122.207 106.32 122.728 106.2 123.145 105.939C123.568 105.673 123.9 105.308 124.141 104.846C124.388 104.383 124.554 103.872 124.639 103.312ZM131.943 99.5625L130.479 108H128.184L130.02 97.4336H132.197L131.943 99.5625ZM135.381 97.3457L135.127 99.543C134.977 99.5169 134.824 99.4941 134.668 99.4746C134.518 99.4551 134.368 99.4453 134.219 99.4453C133.822 99.4388 133.464 99.4941 133.145 99.6113C132.826 99.7285 132.546 99.8978 132.305 100.119C132.064 100.334 131.862 100.594 131.699 100.9C131.536 101.2 131.41 101.535 131.318 101.906L130.771 101.945C130.837 101.431 130.947 100.897 131.104 100.344C131.266 99.7904 131.491 99.276 131.777 98.8008C132.064 98.319 132.428 97.9316 132.871 97.6387C133.314 97.3392 133.851 97.196 134.482 97.209C134.632 97.209 134.782 97.222 134.932 97.248C135.081 97.2741 135.231 97.3066 135.381 97.3457ZM142.891 108H140.586L142.51 96.7598C142.62 95.9069 142.884 95.1842 143.301 94.5918C143.717 93.9928 144.258 93.5371 144.922 93.2246C145.592 92.9121 146.354 92.7624 147.207 92.7754C147.715 92.7884 148.213 92.8568 148.701 92.9805C149.189 93.0977 149.674 93.2279 150.156 93.3711L149.619 95.2949C149.242 95.1452 148.854 95.0247 148.457 94.9336C148.066 94.8424 147.669 94.7969 147.266 94.7969C146.602 94.7839 146.055 94.9434 145.625 95.2754C145.195 95.6009 144.928 96.0924 144.824 96.75L142.891 108ZM146.797 97.4336L146.484 99.1523H140.557L140.859 97.4336H146.797ZM150.605 97.4336L148.77 108H146.465L148.301 97.4336H150.605ZM159.678 97.4336H161.787L160.039 107.697C159.909 108.628 159.603 109.432 159.121 110.109C158.646 110.786 158.031 111.304 157.275 111.662C156.52 112.027 155.674 112.196 154.736 112.17C154.268 112.163 153.805 112.089 153.35 111.945C152.894 111.809 152.471 111.61 152.08 111.35C151.689 111.089 151.354 110.767 151.074 110.383L152.275 109.016C152.575 109.419 152.926 109.738 153.33 109.973C153.734 110.207 154.186 110.331 154.688 110.344C155.234 110.357 155.719 110.256 156.143 110.041C156.566 109.833 156.911 109.533 157.178 109.143C157.451 108.752 157.63 108.29 157.715 107.756L159.082 99.709L159.678 97.4336ZM151.797 102.912L151.826 102.697C151.904 102.046 152.061 101.395 152.295 100.744C152.529 100.087 152.842 99.4909 153.232 98.957C153.63 98.4167 154.111 97.9902 154.678 97.6777C155.251 97.3652 155.918 97.2155 156.68 97.2285C157.37 97.248 157.936 97.4173 158.379 97.7363C158.828 98.0553 159.173 98.4688 159.414 98.9766C159.661 99.4844 159.827 100.038 159.912 100.637C159.997 101.236 160.023 101.828 159.99 102.414L159.912 103.078C159.808 103.684 159.632 104.292 159.385 104.904C159.137 105.516 158.815 106.076 158.418 106.584C158.027 107.085 157.559 107.486 157.012 107.785C156.471 108.085 155.85 108.225 155.146 108.205C154.45 108.186 153.87 108.013 153.408 107.688C152.946 107.355 152.588 106.929 152.334 106.408C152.08 105.887 151.911 105.321 151.826 104.709C151.748 104.097 151.738 103.498 151.797 102.912ZM154.131 102.697L154.111 102.902C154.072 103.247 154.059 103.612 154.072 103.996C154.085 104.38 154.147 104.745 154.258 105.09C154.368 105.435 154.551 105.721 154.805 105.949C155.059 106.171 155.404 106.288 155.84 106.301C156.367 106.327 156.833 106.216 157.236 105.969C157.646 105.721 157.985 105.393 158.252 104.982C158.525 104.572 158.717 104.13 158.828 103.654L159.102 101.867C159.128 101.535 159.108 101.21 159.043 100.891C158.978 100.565 158.864 100.272 158.701 100.012C158.545 99.7513 158.337 99.543 158.076 99.3867C157.816 99.224 157.5 99.1393 157.129 99.1328C156.641 99.1133 156.217 99.2109 155.859 99.4258C155.508 99.6406 155.212 99.9271 154.971 100.285C154.736 100.643 154.551 101.034 154.414 101.457C154.277 101.88 154.183 102.294 154.131 102.697ZM168.916 105.393L170.293 97.4336H172.598L170.762 108H168.594L168.916 105.393ZM169.561 103.312L170.322 103.283C170.244 103.921 170.101 104.54 169.893 105.139C169.684 105.731 169.401 106.262 169.043 106.73C168.685 107.199 168.239 107.567 167.705 107.834C167.171 108.101 166.543 108.225 165.82 108.205C165.241 108.186 164.753 108.072 164.355 107.863C163.965 107.648 163.656 107.359 163.428 106.994C163.2 106.63 163.047 106.213 162.969 105.744C162.897 105.275 162.887 104.781 162.939 104.26L164.082 97.4336H166.377L165.225 104.289C165.205 104.543 165.205 104.787 165.225 105.021C165.244 105.256 165.299 105.467 165.391 105.656C165.482 105.845 165.615 105.998 165.791 106.115C165.973 106.226 166.211 106.288 166.504 106.301C167.129 106.32 167.65 106.2 168.066 105.939C168.49 105.673 168.822 105.308 169.062 104.846C169.31 104.383 169.476 103.872 169.561 103.312ZM176.865 99.5625L175.4 108H173.105L174.941 97.4336H177.119L176.865 99.5625ZM180.303 97.3457L180.049 99.543C179.899 99.5169 179.746 99.4941 179.59 99.4746C179.44 99.4551 179.29 99.4453 179.141 99.4453C178.743 99.4388 178.385 99.4941 178.066 99.6113C177.747 99.7285 177.467 99.8978 177.227 100.119C176.986 100.334 176.784 100.594 176.621 100.9C176.458 101.2 176.331 101.535 176.24 101.906L175.693 101.945C175.758 101.431 175.869 100.897 176.025 100.344C176.188 99.7904 176.413 99.276 176.699 98.8008C176.986 98.319 177.35 97.9316 177.793 97.6387C178.236 97.3392 178.773 97.196 179.404 97.209C179.554 97.209 179.704 97.222 179.854 97.248C180.003 97.2741 180.153 97.3066 180.303 97.3457ZM184.238 97.4336L182.402 108H180.107L181.943 97.4336H184.238ZM182.266 94.6992C182.259 94.3216 182.383 94.0124 182.637 93.7715C182.891 93.5306 183.203 93.4069 183.574 93.4004C183.932 93.3939 184.238 93.5046 184.492 93.7324C184.753 93.9538 184.883 94.25 184.883 94.6211C184.889 94.9987 184.762 95.3047 184.502 95.5391C184.248 95.7734 183.939 95.8939 183.574 95.9004C183.216 95.9069 182.91 95.8027 182.656 95.5879C182.402 95.3665 182.272 95.0703 182.266 94.6992ZM188.584 99.8262L187.168 108H184.863L186.699 97.4336H188.857L188.584 99.8262ZM187.773 102.326L187.07 102.336C187.148 101.704 187.301 101.083 187.529 100.471C187.764 99.8522 188.073 99.2988 188.457 98.8105C188.841 98.3158 189.307 97.9251 189.854 97.6387C190.407 97.3522 191.045 97.2188 191.768 97.2383C192.34 97.2513 192.816 97.3652 193.193 97.5801C193.577 97.7949 193.874 98.0846 194.082 98.4492C194.297 98.8138 194.437 99.2305 194.502 99.6992C194.567 100.168 194.57 100.66 194.512 101.174L193.379 108H191.064L192.217 101.145C192.256 100.767 192.243 100.428 192.178 100.129C192.113 99.8229 191.969 99.582 191.748 99.4062C191.527 99.224 191.208 99.1296 190.791 99.123C190.335 99.11 189.935 99.1947 189.59 99.377C189.245 99.5592 188.949 99.8099 188.701 100.129C188.454 100.441 188.252 100.79 188.096 101.174C187.946 101.558 187.839 101.942 187.773 102.326ZM200.439 108.195C199.717 108.182 199.076 108.042 198.516 107.775C197.962 107.502 197.503 107.134 197.139 106.672C196.774 106.203 196.51 105.666 196.348 105.061C196.185 104.449 196.13 103.798 196.182 103.107L196.221 102.707C196.292 101.997 196.465 101.314 196.738 100.656C197.012 99.9922 197.376 99.403 197.832 98.8887C198.294 98.3678 198.838 97.9577 199.463 97.6582C200.088 97.3587 200.785 97.2188 201.553 97.2383C202.288 97.2513 202.91 97.4043 203.418 97.6973C203.926 97.9902 204.329 98.3809 204.629 98.8691C204.928 99.3509 205.127 99.8978 205.225 100.51C205.329 101.122 205.345 101.757 205.273 102.414L205.137 103.42H197.207L197.48 101.73L203.076 101.74L203.115 101.535C203.174 101.125 203.151 100.738 203.047 100.373C202.949 100.008 202.767 99.709 202.5 99.4746C202.233 99.2402 201.875 99.1165 201.426 99.1035C200.938 99.0905 200.518 99.1914 200.166 99.4062C199.821 99.6211 199.535 99.9108 199.307 100.275C199.079 100.64 198.9 101.037 198.77 101.467C198.646 101.89 198.558 102.303 198.506 102.707L198.467 103.098C198.428 103.482 198.438 103.863 198.496 104.24C198.555 104.618 198.669 104.963 198.838 105.275C199.007 105.581 199.242 105.832 199.541 106.027C199.84 106.216 200.212 106.317 200.654 106.33C201.208 106.343 201.709 106.229 202.158 105.988C202.614 105.741 203.027 105.422 203.398 105.031L204.531 106.232C204.232 106.682 203.861 107.053 203.418 107.346C202.982 107.639 202.507 107.857 201.992 108C201.484 108.137 200.967 108.202 200.439 108.195ZM217.178 105.881L217.979 100.812C218.018 100.474 217.995 100.168 217.91 99.8945C217.826 99.6211 217.669 99.4062 217.441 99.25C217.22 99.0872 216.927 99.0026 216.562 98.9961C216.237 98.9896 215.931 99.0449 215.645 99.1621C215.358 99.2728 215.114 99.4388 214.912 99.6602C214.717 99.8815 214.587 100.152 214.521 100.471L212.227 100.48C212.266 99.9271 212.428 99.4453 212.715 99.0352C213.008 98.6185 213.376 98.2767 213.818 98.0098C214.268 97.7363 214.749 97.5378 215.264 97.4141C215.785 97.2839 216.292 97.222 216.787 97.2285C217.503 97.2415 218.138 97.3945 218.691 97.6875C219.245 97.9805 219.665 98.3939 219.951 98.9277C220.244 99.4616 220.355 100.106 220.283 100.861L219.512 105.568C219.453 105.939 219.411 106.32 219.385 106.711C219.365 107.095 219.417 107.466 219.541 107.824L219.521 108L217.246 108.01C217.148 107.665 217.1 107.313 217.1 106.955C217.1 106.59 217.126 106.232 217.178 105.881ZM218.242 101.574L218.008 103.029L216.484 103.02C216.172 103.02 215.85 103.049 215.518 103.107C215.192 103.166 214.886 103.267 214.6 103.41C214.313 103.553 214.072 103.749 213.877 103.996C213.682 104.237 213.561 104.54 213.516 104.904C213.483 105.197 213.516 105.451 213.613 105.666C213.717 105.874 213.874 106.04 214.082 106.164C214.29 106.288 214.538 106.353 214.824 106.359C215.208 106.366 215.586 106.291 215.957 106.135C216.335 105.979 216.66 105.757 216.934 105.471C217.214 105.178 217.406 104.842 217.51 104.465L218.125 105.52C217.982 105.917 217.78 106.281 217.52 106.613C217.266 106.945 216.969 107.232 216.631 107.473C216.292 107.714 215.921 107.899 215.518 108.029C215.12 108.16 214.71 108.221 214.287 108.215C213.701 108.202 213.167 108.068 212.686 107.814C212.204 107.554 211.823 107.193 211.543 106.73C211.263 106.268 211.139 105.734 211.172 105.129C211.204 104.445 211.377 103.876 211.689 103.42C212.008 102.958 212.415 102.593 212.91 102.326C213.411 102.053 213.958 101.857 214.551 101.74C215.143 101.623 215.729 101.564 216.309 101.564L218.242 101.574ZM227.793 105.08C227.845 104.722 227.767 104.445 227.559 104.25C227.35 104.048 227.09 103.895 226.777 103.791C226.465 103.687 226.178 103.602 225.918 103.537C225.521 103.439 225.124 103.316 224.727 103.166C224.336 103.01 223.978 102.814 223.652 102.58C223.327 102.346 223.07 102.059 222.881 101.721C222.692 101.376 222.607 100.965 222.627 100.49C222.653 99.9434 222.796 99.4648 223.057 99.0547C223.317 98.6445 223.652 98.3027 224.062 98.0293C224.479 97.7559 224.935 97.554 225.43 97.4238C225.924 97.2936 226.416 97.2318 226.904 97.2383C227.588 97.2513 228.216 97.3848 228.789 97.6387C229.368 97.8926 229.831 98.2669 230.176 98.7617C230.527 99.2565 230.7 99.8685 230.693 100.598L228.408 100.588C228.421 100.262 228.363 99.9824 228.232 99.748C228.109 99.5072 227.926 99.3216 227.686 99.1914C227.445 99.0612 227.155 98.9928 226.816 98.9863C226.523 98.9798 226.234 99.0286 225.947 99.1328C225.667 99.237 225.426 99.3932 225.225 99.6016C225.023 99.8099 224.899 100.074 224.854 100.393C224.814 100.64 224.85 100.845 224.961 101.008C225.072 101.164 225.225 101.291 225.42 101.389C225.615 101.486 225.82 101.568 226.035 101.633C226.257 101.691 226.455 101.74 226.631 101.779C227.184 101.929 227.728 102.121 228.262 102.355C228.796 102.583 229.232 102.906 229.57 103.322C229.909 103.732 230.062 104.273 230.029 104.943C230.01 105.516 229.86 106.011 229.58 106.428C229.3 106.838 228.942 107.176 228.506 107.443C228.07 107.704 227.591 107.896 227.07 108.02C226.556 108.143 226.048 108.202 225.547 108.195C224.857 108.182 224.206 108.039 223.594 107.766C222.988 107.492 222.5 107.098 222.129 106.584C221.764 106.063 221.582 105.428 221.582 104.68L223.799 104.689C223.799 105.067 223.874 105.386 224.023 105.646C224.18 105.907 224.395 106.105 224.668 106.242C224.948 106.372 225.273 106.441 225.645 106.447C225.951 106.447 226.257 106.405 226.562 106.32C226.875 106.229 227.142 106.083 227.363 105.881C227.591 105.679 227.734 105.412 227.793 105.08ZM237.793 105.08C237.845 104.722 237.767 104.445 237.559 104.25C237.35 104.048 237.09 103.895 236.777 103.791C236.465 103.687 236.178 103.602 235.918 103.537C235.521 103.439 235.124 103.316 234.727 103.166C234.336 103.01 233.978 102.814 233.652 102.58C233.327 102.346 233.07 102.059 232.881 101.721C232.692 101.376 232.607 100.965 232.627 100.49C232.653 99.9434 232.796 99.4648 233.057 99.0547C233.317 98.6445 233.652 98.3027 234.062 98.0293C234.479 97.7559 234.935 97.554 235.43 97.4238C235.924 97.2936 236.416 97.2318 236.904 97.2383C237.588 97.2513 238.216 97.3848 238.789 97.6387C239.368 97.8926 239.831 98.2669 240.176 98.7617C240.527 99.2565 240.7 99.8685 240.693 100.598L238.408 100.588C238.421 100.262 238.363 99.9824 238.232 99.748C238.109 99.5072 237.926 99.3216 237.686 99.1914C237.445 99.0612 237.155 98.9928 236.816 98.9863C236.523 98.9798 236.234 99.0286 235.947 99.1328C235.667 99.237 235.426 99.3932 235.225 99.6016C235.023 99.8099 234.899 100.074 234.854 100.393C234.814 100.64 234.85 100.845 234.961 101.008C235.072 101.164 235.225 101.291 235.42 101.389C235.615 101.486 235.82 101.568 236.035 101.633C236.257 101.691 236.455 101.74 236.631 101.779C237.184 101.929 237.728 102.121 238.262 102.355C238.796 102.583 239.232 102.906 239.57 103.322C239.909 103.732 240.062 104.273 240.029 104.943C240.01 105.516 239.86 106.011 239.58 106.428C239.3 106.838 238.942 107.176 238.506 107.443C238.07 107.704 237.591 107.896 237.07 108.02C236.556 108.143 236.048 108.202 235.547 108.195C234.857 108.182 234.206 108.039 233.594 107.766C232.988 107.492 232.5 107.098 232.129 106.584C231.764 106.063 231.582 105.428 231.582 104.68L233.799 104.689C233.799 105.067 233.874 105.386 234.023 105.646C234.18 105.907 234.395 106.105 234.668 106.242C234.948 106.372 235.273 106.441 235.645 106.447C235.951 106.447 236.257 106.405 236.562 106.32C236.875 106.229 237.142 106.083 237.363 105.881C237.591 105.679 237.734 105.412 237.793 105.08ZM246.221 108.195C245.498 108.182 244.857 108.042 244.297 107.775C243.743 107.502 243.285 107.134 242.92 106.672C242.555 106.203 242.292 105.666 242.129 105.061C241.966 104.449 241.911 103.798 241.963 103.107L242.002 102.707C242.074 101.997 242.246 101.314 242.52 100.656C242.793 99.9922 243.158 99.403 243.613 98.8887C244.076 98.3678 244.619 97.9577 245.244 97.6582C245.869 97.3587 246.566 97.2188 247.334 97.2383C248.07 97.2513 248.691 97.4043 249.199 97.6973C249.707 97.9902 250.111 98.3809 250.41 98.8691C250.71 99.3509 250.908 99.8978 251.006 100.51C251.11 101.122 251.126 101.757 251.055 102.414L250.918 103.42H242.988L243.262 101.73L248.857 101.74L248.896 101.535C248.955 101.125 248.932 100.738 248.828 100.373C248.73 100.008 248.548 99.709 248.281 99.4746C248.014 99.2402 247.656 99.1165 247.207 99.1035C246.719 99.0905 246.299 99.1914 245.947 99.4062C245.602 99.6211 245.316 99.9108 245.088 100.275C244.86 100.64 244.681 101.037 244.551 101.467C244.427 101.89 244.339 102.303 244.287 102.707L244.248 103.098C244.209 103.482 244.219 103.863 244.277 104.24C244.336 104.618 244.45 104.963 244.619 105.275C244.788 105.581 245.023 105.832 245.322 106.027C245.622 106.216 245.993 106.317 246.436 106.33C246.989 106.343 247.49 106.229 247.939 105.988C248.395 105.741 248.809 105.422 249.18 105.031L250.312 106.232C250.013 106.682 249.642 107.053 249.199 107.346C248.763 107.639 248.288 107.857 247.773 108C247.266 108.137 246.748 108.202 246.221 108.195ZM258.408 97.4336L258.105 99.1523H252.324L252.617 97.4336H258.408ZM254.736 94.8457H257.031L255.283 105.1C255.257 105.327 255.257 105.526 255.283 105.695C255.316 105.865 255.391 105.998 255.508 106.096C255.632 106.187 255.82 106.236 256.074 106.242C256.211 106.249 256.348 106.242 256.484 106.223C256.628 106.203 256.771 106.184 256.914 106.164L256.748 107.98C256.514 108.052 256.273 108.104 256.025 108.137C255.785 108.169 255.54 108.182 255.293 108.176C254.707 108.169 254.235 108.036 253.877 107.775C253.519 107.508 253.268 107.154 253.125 106.711C252.982 106.268 252.936 105.773 252.988 105.227L254.736 94.8457ZM264.648 105.08C264.701 104.722 264.622 104.445 264.414 104.25C264.206 104.048 263.945 103.895 263.633 103.791C263.32 103.687 263.034 103.602 262.773 103.537C262.376 103.439 261.979 103.316 261.582 103.166C261.191 103.01 260.833 102.814 260.508 102.58C260.182 102.346 259.925 102.059 259.736 101.721C259.548 101.376 259.463 100.965 259.482 100.49C259.508 99.9434 259.652 99.4648 259.912 99.0547C260.173 98.6445 260.508 98.3027 260.918 98.0293C261.335 97.7559 261.79 97.554 262.285 97.4238C262.78 97.2936 263.271 97.2318 263.76 97.2383C264.443 97.2513 265.072 97.3848 265.645 97.6387C266.224 97.8926 266.686 98.2669 267.031 98.7617C267.383 99.2565 267.555 99.8685 267.549 100.598L265.264 100.588C265.277 100.262 265.218 99.9824 265.088 99.748C264.964 99.5072 264.782 99.3216 264.541 99.1914C264.3 99.0612 264.01 98.9928 263.672 98.9863C263.379 98.9798 263.089 99.0286 262.803 99.1328C262.523 99.237 262.282 99.3932 262.08 99.6016C261.878 99.8099 261.755 100.074 261.709 100.393C261.67 100.64 261.706 100.845 261.816 101.008C261.927 101.164 262.08 101.291 262.275 101.389C262.471 101.486 262.676 101.568 262.891 101.633C263.112 101.691 263.311 101.74 263.486 101.779C264.04 101.929 264.583 102.121 265.117 102.355C265.651 102.583 266.087 102.906 266.426 103.322C266.764 103.732 266.917 104.273 266.885 104.943C266.865 105.516 266.715 106.011 266.436 106.428C266.156 106.838 265.798 107.176 265.361 107.443C264.925 107.704 264.447 107.896 263.926 108.02C263.411 108.143 262.904 108.202 262.402 108.195C261.712 108.182 261.061 108.039 260.449 107.766C259.844 107.492 259.355 107.098 258.984 106.584C258.62 106.063 258.438 105.428 258.438 104.68L260.654 104.689C260.654 105.067 260.729 105.386 260.879 105.646C261.035 105.907 261.25 106.105 261.523 106.242C261.803 106.372 262.129 106.441 262.5 106.447C262.806 106.447 263.112 106.405 263.418 106.32C263.73 106.229 263.997 106.083 264.219 105.881C264.447 105.679 264.59 105.412 264.648 105.08Z" fill="black"/>
<rect x="30" y="73" width="230" height="2" rx="1" fill="#767676"/>
</svg>
