<svg width="80" height="80" viewBox="0 0 80 80" fill="none" xmlns="http://www.w3.org/2000/svg">
<path opacity="0.8" d="M40 80C17.9075 80 0 62.0925 0 40C0 17.9075 17.9075 0 40 0C62.0925 0 80 17.9075 80 40C80 62.0925 62.0925 80 40 80ZM45.4175 40.115L59.13 26.4025C59.8335 25.699 60.2287 24.7449 60.2287 23.75C60.2287 22.7551 59.8335 21.801 59.13 21.0975C58.4265 20.394 57.4724 19.9988 56.4775 19.9988C55.4826 19.9988 54.5285 20.394 53.825 21.0975L40.115 34.81L26.4 21.1C25.6965 20.3965 24.7424 20.0013 23.7475 20.0013C22.7526 20.0013 21.7985 20.3965 21.095 21.1C20.3915 21.8035 19.9963 22.7576 19.9963 23.7525C19.9963 24.7474 20.3915 25.7015 21.095 26.405L34.8075 40.1175L21.1 53.825C20.3965 54.5285 20.0013 55.4826 20.0013 56.4775C20.0013 57.4724 20.3965 58.4265 21.1 59.13C21.8035 59.8335 22.7576 60.2287 23.7525 60.2287C24.7474 60.2287 25.7015 59.8335 26.405 59.13L40.1175 45.4175L53.8275 59.13C54.531 59.8335 55.4851 60.2287 56.48 60.2287C57.4749 60.2287 58.429 59.8335 59.1325 59.13C59.836 58.4265 60.2312 57.4724 60.2312 56.4775C60.2312 55.4826 59.836 54.5285 59.1325 53.825L45.42 40.115H45.4175Z" fill="black"/>
</svg>
