<svg width="60" height="60" viewBox="0 0 60 60" fill="none" xmlns="http://www.w3.org/2000/svg">
<circle cx="30" cy="30" r="30" fill="#D9D9D9"/>
<path d="M43.0851 20.0768L37.73 24.7157C37.7529 24.8582 37.766 25.0023 37.7694 25.1469C37.7694 25.9211 37.4853 26.6635 36.9795 27.211C36.4738 27.7584 35.7879 28.066 35.0728 28.066C34.3576 28.066 33.6717 27.7584 33.166 27.211C32.6603 26.6635 32.3761 25.9211 32.3761 25.1469C32.3794 25.0021 32.3928 24.8577 32.416 24.7151L27.0605 20.0768C26.531 20.3117 25.9438 20.3458 25.3942 20.1735L19.692 26.3461C19.8349 26.9345 19.8041 27.5565 19.6038 28.1249C19.4036 28.6933 19.0439 29.1796 18.5754 29.5155C18.2252 29.7665 17.8256 29.9254 17.4086 29.9793C16.9916 30.0333 16.5686 29.9808 16.1737 29.8261C15.7788 29.6714 15.4228 29.4187 15.1342 29.0884C14.8456 28.758 14.6325 28.3591 14.5119 27.9236C14.3912 27.4882 14.3664 27.0282 14.4394 26.5805C14.5124 26.1327 14.6812 25.7097 14.9323 25.3453C15.1834 24.9808 15.5098 24.6851 15.8854 24.4817C16.261 24.2783 16.6754 24.1728 17.0954 24.1739C17.3287 24.1774 17.5606 24.2138 17.7852 24.2821L23.4874 18.1095C23.4243 17.8663 23.3907 17.6153 23.3875 17.3627C23.3874 16.7853 23.5455 16.2209 23.8418 15.7409C24.1381 15.2608 24.5593 14.8866 25.052 14.6657C25.5448 14.4447 26.087 14.3869 26.6101 14.4996C27.1332 14.6123 27.6137 14.8903 27.9908 15.2986C28.2413 15.5697 28.4399 15.8915 28.5754 16.2456C28.7109 16.5998 28.7807 16.9794 28.7807 17.3627C28.7774 17.5075 28.7641 17.6518 28.7408 17.7945L34.0958 22.4322C34.7222 22.1589 35.4221 22.1589 36.0486 22.4322L41.4047 17.7939C41.3817 17.6514 41.3684 17.5073 41.3648 17.3627C41.3605 16.733 41.543 16.1184 41.8855 15.6094C42.228 15.1004 42.7124 14.7238 43.2674 14.5351C43.8224 14.3464 44.4187 14.3555 44.9685 14.561C45.5184 14.7666 45.9928 15.1578 46.3219 15.6771C46.651 16.1963 46.8174 16.8162 46.7967 17.4455C46.776 18.0749 46.5692 18.6804 46.2069 19.173C45.8445 19.6656 45.3456 20.0192 44.7836 20.182C44.2216 20.3447 43.6262 20.3078 43.0851 20.0768Z" fill="black"/>
<path d="M35.5 35.0398H32.7C32.6081 35.0398 32.517 35.06 32.4321 35.0992C32.3472 35.1383 32.27 35.1958 32.205 35.2682C32.14 35.3407 32.0884 35.4267 32.0533 35.5213C32.0181 35.6159 32 35.7174 32 35.8198V43.6198C32 43.7222 32.0181 43.8237 32.0532 43.9183C32.0884 44.013 32.14 44.099 32.205 44.1714C32.27 44.2438 32.3472 44.3013 32.4321 44.3405C32.517 44.3797 32.6081 44.3998 32.7 44.3998H35.5C35.5919 44.3998 35.683 44.3797 35.7679 44.3405C35.8528 44.3013 35.93 44.2438 35.995 44.1714C36.06 44.0989 36.1116 44.013 36.1467 43.9183C36.1819 43.8237 36.2 43.7222 36.2 43.6198V35.8198C36.2 35.613 36.1262 35.4145 35.9949 35.2683C35.8637 35.122 35.6856 35.0398 35.5 35.0398ZM42.5 28.7998H39.7C39.6081 28.7998 39.517 28.82 39.4321 28.8592C39.3472 28.8983 39.27 28.9558 39.205 29.0282C39.14 29.1007 39.0884 29.1867 39.0533 29.2813C39.0181 29.3759 39 29.4774 39 29.5798V43.6198C39 43.7222 39.0181 43.8237 39.0532 43.9183C39.0884 44.013 39.14 44.099 39.205 44.1714C39.27 44.2438 39.3472 44.3013 39.4321 44.3405C39.517 44.3797 39.6081 44.3998 39.7 44.3998H42.5C42.5919 44.3998 42.683 44.3797 42.7679 44.3405C42.8528 44.3013 42.93 44.2438 42.995 44.1714C43.06 44.0989 43.1116 44.013 43.1467 43.9183C43.1819 43.8237 43.2 43.7222 43.2 43.6198V29.5798C43.2 29.373 43.1262 29.1745 42.9949 29.0283C42.8637 28.882 42.6856 28.7998 42.5 28.7998ZM28.5 28.7998H25.7C25.6081 28.7998 25.517 28.82 25.4321 28.8592C25.3472 28.8983 25.27 28.9558 25.205 29.0282C25.14 29.1007 25.0884 29.1867 25.0533 29.2813C25.0181 29.3759 25 29.4774 25 29.5798V43.6198C25 43.7222 25.0181 43.8237 25.0532 43.9183C25.0884 44.013 25.14 44.099 25.205 44.1714C25.27 44.2438 25.3472 44.3013 25.4321 44.3405C25.517 44.3797 25.6081 44.3998 25.7 44.3998H28.5C28.5919 44.3998 28.683 44.3797 28.7679 44.3405C28.8528 44.3013 28.93 44.2438 28.995 44.1714C29.06 44.0989 29.1116 44.013 29.1467 43.9183C29.1819 43.8237 29.2 43.7222 29.2 43.6198V29.5798C29.2 29.373 29.1262 29.1745 28.9949 29.0283C28.8637 28.882 28.6856 28.7998 28.5 28.7998ZM21.5 36.5998H18.7C18.6081 36.5998 18.517 36.62 18.4321 36.6592C18.3472 36.6984 18.27 36.7558 18.205 36.8282C18.14 36.9007 18.0884 36.9867 18.0533 37.0813C18.0181 37.1759 18 37.2774 18 37.3798V43.6198C18 43.7222 18.0181 43.8237 18.0533 43.9183C18.0884 44.0129 18.14 44.0989 18.205 44.1714C18.27 44.2438 18.3472 44.3012 18.4321 44.3404C18.517 44.3796 18.6081 44.3998 18.7 44.3998H21.5C21.5919 44.3998 21.683 44.3797 21.7679 44.3405C21.8528 44.3013 21.93 44.2438 21.995 44.1714C22.06 44.0989 22.1116 44.013 22.1467 43.9183C22.1819 43.8237 22.2 43.7222 22.2 43.6198V37.3798C22.2 37.173 22.1262 36.9745 21.9949 36.8283C21.8637 36.682 21.6856 36.5998 21.5 36.5998Z" fill="black"/>
</svg>
