<svg width="80" height="80" viewBox="0 0 80 80" fill="none" xmlns="http://www.w3.org/2000/svg">
<circle cx="40" cy="40" r="40" fill="black"/>
<path d="M39.355 33.6793L58.1243 55.3824C58.5412 55.9229 58.7305 56.6049 58.6518 57.283C58.573 57.9611 58.2324 58.5815 57.7026 59.0121C57.1729 59.4426 56.4959 59.6491 55.816 59.5875C55.1361 59.5259 54.5072 59.2011 54.0634 58.6824L35.2942 36.9794C35.0776 36.7126 34.9157 36.4058 34.8177 36.0765C34.7197 35.7472 34.6875 35.4018 34.7229 35.06C34.7946 34.3698 35.1375 33.7363 35.6762 33.2989C36.2149 32.8616 36.9053 32.6561 37.5956 32.7277C38.2858 32.7994 38.9193 33.1423 39.3566 33.681L39.355 33.6793ZM36.8737 34.7766C36.7293 34.8968 36.638 35.069 36.6194 35.256C36.6008 35.4429 36.6564 35.6297 36.7743 35.776L38.3207 37.6755C38.4561 37.4777 38.6178 37.2992 38.8014 37.1451C38.992 36.9943 39.2025 36.8783 39.4196 36.7854L37.8699 34.881C37.751 34.7361 37.5797 34.6439 37.3932 34.6243C37.2068 34.6048 37.0201 34.6595 36.8737 34.7766ZM35.9688 47.2773C35.757 47.2776 35.5491 47.2216 35.3661 47.115C35.1832 47.0084 35.032 46.855 34.9279 46.6707L30.7991 39.3396L22.4238 38.5822C22.2016 38.5624 21.9894 38.4808 21.8112 38.3466C21.6331 38.2124 21.4961 38.0309 21.4158 37.8228C21.3356 37.6146 21.3153 37.3882 21.3572 37.1691C21.3992 36.95 21.5017 36.747 21.6531 36.5832L27.3449 30.3975L25.4769 22.193C25.4268 21.9754 25.4388 21.7482 25.5114 21.537C25.584 21.3259 25.7144 21.1394 25.8877 20.9987C26.0611 20.858 26.2704 20.7687 26.492 20.741C26.7135 20.7134 26.9384 20.7484 27.141 20.8422L34.787 24.3477L42.0119 20.0366C42.2035 19.9226 42.4231 19.8644 42.6459 19.8686C42.8688 19.8728 43.086 19.9393 43.2731 20.0605C43.4602 20.1817 43.6096 20.3528 43.7045 20.5545C43.7995 20.7562 43.8361 20.9804 43.8103 21.2018L42.8373 29.5539L49.1689 35.0948C49.3417 35.2448 49.4676 35.4414 49.5316 35.661C49.5957 35.8806 49.5952 36.114 49.5302 36.3334C49.4652 36.5527 49.3384 36.7487 49.165 36.8979C48.9916 37.0472 48.7789 37.1433 48.5523 37.175L45.6136 37.5926C45.3 37.6373 44.9814 37.5555 44.7281 37.3652C44.4748 37.175 44.3074 36.8919 44.2628 36.5783C44.2182 36.2646 44.3 35.9461 44.4902 35.6928C44.6804 35.4394 44.9635 35.272 45.2772 35.2274L45.6385 35.1777L40.792 30.9379C40.6462 30.8103 40.5337 30.6492 40.4641 30.4684C40.3945 30.2877 40.3699 30.0927 40.3926 29.9003L41.1583 23.3284L35.4732 26.7179C35.3066 26.8167 35.1186 26.8738 34.9252 26.8842C34.7319 26.8946 34.5388 26.858 34.3627 26.7776L28.3444 24.0212L29.8145 30.4787C29.8577 30.6675 29.8543 30.8639 29.8046 31.051C29.755 31.2381 29.6605 31.4103 29.5295 31.5528L25.0476 36.4225L31.6394 37.0192C31.8317 37.0368 32.0169 37.1008 32.1791 37.2056C32.3413 37.3103 32.4757 37.4528 32.5709 37.6208L35.8196 43.3888L36.1544 42.6049C36.2786 42.3134 36.5135 42.0832 36.8074 41.965C37.1012 41.8467 37.4301 41.85 37.7215 41.9742C38.013 42.0984 38.2432 42.3332 38.3614 42.6271C38.4797 42.921 38.4764 43.2499 38.3522 43.5413L37.0677 46.553C36.9759 46.7683 36.8227 46.9518 36.6273 47.0806C36.4318 47.2094 36.2028 47.2778 35.9688 47.2773ZM26.7648 41.4181C27.2044 41.4181 27.626 41.5927 27.9368 41.9036C28.2476 42.2144 28.4223 42.636 28.4223 43.0756C28.4223 43.5152 28.2476 43.9368 27.9368 44.2476C27.626 44.5584 27.2044 44.7331 26.7648 44.7331C26.3252 44.7331 25.9036 44.5584 25.5928 44.2476C25.2819 43.9368 25.1073 43.5152 25.1073 43.0756C25.1073 42.636 25.2819 42.2144 25.5928 41.9036C25.9036 41.5927 26.3252 41.4181 26.7648 41.4181ZM48.312 24.8433C48.5297 24.8433 48.7452 24.8861 48.9464 24.9694C49.1475 25.0527 49.3302 25.1748 49.4842 25.3287C49.6381 25.4826 49.7602 25.6653 49.8435 25.8664C49.9268 26.0676 49.9697 26.2831 49.9697 26.5008C49.9697 26.7185 49.9268 26.934 49.8435 27.1351C49.7602 27.3363 49.6381 27.519 49.4842 27.6729C49.3302 27.8268 49.1475 27.9489 48.9464 28.0322C48.7452 28.1155 48.5297 28.1583 48.312 28.1583C47.8724 28.1582 47.4509 27.9835 47.1401 27.6727C46.8294 27.3619 46.6548 26.9403 46.6548 26.5008C46.6548 26.0612 46.8294 25.6397 47.1401 25.3289C47.4509 25.018 47.8724 24.8434 48.312 24.8433ZM48.6998 29.9169C48.8021 29.7246 48.9412 29.5544 49.1093 29.416C49.2773 29.2775 49.471 29.1735 49.6793 29.1099C49.8876 29.0464 50.1063 29.0245 50.323 29.0455C50.5398 29.0665 50.7502 29.13 50.9424 29.2323L53.8679 30.7887C54.2432 31.0019 54.5206 31.3531 54.641 31.7676C54.7613 32.1822 54.7153 32.6273 54.5125 33.0084C54.3098 33.3895 53.9664 33.6764 53.5553 33.8082C53.1443 33.94 52.698 33.9063 52.3115 33.7141L49.386 32.1578C48.9979 31.9515 48.7076 31.5996 48.579 31.1794C48.4503 30.7592 48.4938 30.305 48.6998 29.9169ZM25.4952 48.1491C25.5974 47.9569 25.7365 47.7867 25.9046 47.6482C26.0727 47.5098 26.2663 47.4058 26.4746 47.3422C26.6829 47.2786 26.9016 47.2567 27.1183 47.2777C27.3351 47.2987 27.5455 47.3622 27.7377 47.4646L30.6632 49.021C30.8615 49.1196 31.0381 49.2569 31.1825 49.4249C31.3269 49.5929 31.4361 49.7882 31.5037 49.9991C31.5714 50.21 31.596 50.4324 31.5763 50.653C31.5565 50.8737 31.4927 51.0881 31.3887 51.2837C31.2847 51.4792 31.1425 51.652 30.9705 51.7916C30.7986 51.9313 30.6004 52.0351 30.3877 52.0969C30.175 52.1587 29.952 52.1772 29.732 52.1513C29.512 52.1255 29.2994 52.0558 29.1068 51.9464L26.1813 50.39C25.7932 50.1838 25.5029 49.8319 25.3743 49.4117C25.2456 48.9914 25.2891 48.5373 25.4952 48.1491Z" fill="white"/>
</svg>
