<svg width="80" height="80" viewBox="0 0 80 80" fill="none" xmlns="http://www.w3.org/2000/svg">
<path d="M40 0C62.0871 0 80 17.9129 80 40C80 62.0871 62.0871 80 40 80C17.9129 80 0 62.0871 0 40C0 17.9129 17.913 0 40 0ZM39.3042 58.435H52.8696C56.0001 58.435 58.435 56.0001 58.435 52.8696V25.913C58.435 22.7825 56.0001 20.3476 52.8696 20.3476H39.3041C37.7389 20.3476 36.5214 21.565 36.5214 23.1303C36.5214 24.6957 37.7388 25.913 39.3041 25.913H52.8696V52.8697H39.3041C37.7389 52.8697 36.5214 54.0871 36.5214 55.6524C36.5214 57.2177 37.7389 58.435 39.3042 58.435ZM20.6956 41.3911L30.4346 51.1306C30.9566 51.6522 31.6519 52.0001 32.3478 52.0001C33.0435 52.0001 33.7394 51.6522 34.261 51.1306C35.3043 50.087 35.3043 48.348 34.261 47.1306L29.2173 42.0868H41.9132C43.4786 42.0868 44.6958 40.8694 44.6958 39.3041C44.6958 37.7389 43.4786 36.5214 41.9132 36.5214H29.2173L34.0869 31.4782C35.1305 30.4346 35.1305 28.6955 34.0869 27.4782C33.0436 26.4345 31.3042 26.4345 30.0868 27.4782L20.3477 37.2172C19.4782 38.4348 19.4782 40.3478 20.6956 41.3911Z" fill="#272636"/>
</svg>
