<svg width="290" height="83" viewBox="0 0 290 83" fill="none" xmlns="http://www.w3.org/2000/svg">
<rect y="12" width="290" height="60" rx="30" fill="#D9D9D9"/>
<path d="M68.9492 51V33.8672H72.582V51H68.9492ZM84.0547 37.6523C85.4531 37.6523 86.5781 38.0352 87.4297 38.8008C88.2812 39.5586 88.707 40.7773 88.707 42.457V51H85.1328V43.3477C85.1328 42.4102 84.9609 41.7031 84.6172 41.2266C84.2812 40.75 83.75 40.5117 83.0234 40.5117C81.9297 40.5117 81.1836 40.8828 80.7852 41.625C80.3867 42.3672 80.1875 43.4375 80.1875 44.8359V51H76.6133V37.8984H79.3438L79.8242 39.5742H80.0234C80.3047 39.1211 80.6523 38.7539 81.0664 38.4727C81.4883 38.1914 81.9531 37.9844 82.4609 37.8516C82.9766 37.7188 83.5078 37.6523 84.0547 37.6523ZM97.9062 48.3867C98.2969 48.3867 98.6758 48.3477 99.043 48.2695C99.418 48.1914 99.7891 48.0938 100.156 47.9766V50.6367C99.7734 50.8086 99.2969 50.9492 98.7266 51.0586C98.1641 51.1758 97.5469 51.2344 96.875 51.2344C96.0938 51.2344 95.3906 51.1094 94.7656 50.8594C94.1484 50.6016 93.6602 50.1602 93.3008 49.5352C92.9492 48.9023 92.7734 48.0234 92.7734 46.8984V40.582H91.0625V39.0703L93.0312 37.875L94.0625 35.1094H96.3477V37.8984H100.016V40.582H96.3477V46.8984C96.3477 47.3984 96.4883 47.7734 96.7695 48.0234C97.0586 48.2656 97.4375 48.3867 97.9062 48.3867ZM108.219 37.6523C109.43 37.6523 110.473 37.8867 111.348 38.3555C112.223 38.8164 112.898 39.4883 113.375 40.3711C113.852 41.2539 114.09 42.332 114.09 43.6055V45.3398H105.641C105.68 46.3477 105.98 47.1406 106.543 47.7188C107.113 48.2891 107.902 48.5742 108.91 48.5742C109.746 48.5742 110.512 48.4883 111.207 48.3164C111.902 48.1445 112.617 47.8867 113.352 47.543V50.3086C112.703 50.6289 112.023 50.8633 111.312 51.0117C110.609 51.1602 109.754 51.2344 108.746 51.2344C107.434 51.2344 106.27 50.9922 105.254 50.5078C104.246 50.0234 103.453 49.2852 102.875 48.293C102.305 47.3008 102.02 46.0508 102.02 44.543C102.02 43.0117 102.277 41.7383 102.793 40.7227C103.316 39.6992 104.043 38.9336 104.973 38.4258C105.902 37.9102 106.984 37.6523 108.219 37.6523ZM108.242 40.1953C107.547 40.1953 106.969 40.418 106.508 40.8633C106.055 41.3086 105.793 42.0078 105.723 42.9609H110.738C110.73 42.4297 110.633 41.957 110.445 41.543C110.266 41.1289 109.992 40.8008 109.625 40.5586C109.266 40.3164 108.805 40.1953 108.242 40.1953ZM124.309 37.6523C124.488 37.6523 124.695 37.6641 124.93 37.6875C125.172 37.7031 125.367 37.7266 125.516 37.7578L125.246 41.1094C125.129 41.0703 124.961 41.043 124.742 41.0273C124.531 41.0039 124.348 40.9922 124.191 40.9922C123.73 40.9922 123.281 41.0508 122.844 41.168C122.414 41.2852 122.027 41.4766 121.684 41.7422C121.34 42 121.066 42.3438 120.863 42.7734C120.668 43.1953 120.57 43.7148 120.57 44.332V51H116.996V37.8984H119.703L120.23 40.1016H120.406C120.664 39.6562 120.984 39.25 121.367 38.8828C121.758 38.5078 122.199 38.2109 122.691 37.9922C123.191 37.7656 123.73 37.6523 124.309 37.6523ZM133.262 37.6289C135.02 37.6289 136.367 38.0117 137.305 38.7773C138.242 39.543 138.711 40.707 138.711 42.2695V51H136.215L135.523 49.2188H135.43C135.055 49.6875 134.672 50.0703 134.281 50.3672C133.891 50.6641 133.441 50.8828 132.934 51.0234C132.426 51.1641 131.809 51.2344 131.082 51.2344C130.309 51.2344 129.613 51.0859 128.996 50.7891C128.387 50.4922 127.906 50.0391 127.555 49.4297C127.203 48.8125 127.027 48.0312 127.027 47.0859C127.027 45.6953 127.516 44.6719 128.492 44.0156C129.469 43.3516 130.934 42.9844 132.887 42.9141L135.16 42.8438V42.2695C135.16 41.582 134.98 41.0781 134.621 40.7578C134.262 40.4375 133.762 40.2773 133.121 40.2773C132.488 40.2773 131.867 40.3672 131.258 40.5469C130.648 40.7266 130.039 40.9531 129.43 41.2266L128.246 38.8125C128.941 38.4453 129.719 38.1562 130.578 37.9453C131.445 37.7344 132.34 37.6289 133.262 37.6289ZM135.16 44.9297L133.777 44.9766C132.621 45.0078 131.816 45.2148 131.363 45.5977C130.918 45.9805 130.695 46.4844 130.695 47.1094C130.695 47.6562 130.855 48.0469 131.176 48.2812C131.496 48.5078 131.914 48.6211 132.43 48.6211C133.195 48.6211 133.84 48.3945 134.363 47.9414C134.895 47.4883 135.16 46.8438 135.16 46.0078V44.9297ZM147.723 51.2344C146.426 51.2344 145.32 51 144.406 50.5312C143.492 50.0547 142.797 49.3203 142.32 48.3281C141.844 47.3359 141.605 46.0664 141.605 44.5195C141.605 42.918 141.875 41.6133 142.414 40.6055C142.961 39.5898 143.715 38.8438 144.676 38.3672C145.645 37.8906 146.766 37.6523 148.039 37.6523C148.945 37.6523 149.727 37.7422 150.383 37.9219C151.047 38.0938 151.625 38.3008 152.117 38.543L151.062 41.3086C150.5 41.082 149.977 40.8984 149.492 40.7578C149.008 40.6094 148.523 40.5352 148.039 40.5352C147.414 40.5352 146.895 40.6836 146.48 40.9805C146.066 41.2695 145.758 41.707 145.555 42.293C145.352 42.8789 145.25 43.6133 145.25 44.4961C145.25 45.3633 145.359 46.082 145.578 46.6523C145.797 47.2227 146.113 47.6484 146.527 47.9297C146.941 48.2031 147.445 48.3398 148.039 48.3398C148.781 48.3398 149.441 48.2422 150.02 48.0469C150.598 47.8438 151.16 47.5625 151.707 47.2031V50.2617C151.16 50.6055 150.586 50.8516 149.984 51C149.391 51.1562 148.637 51.2344 147.723 51.2344ZM160.273 48.3867C160.664 48.3867 161.043 48.3477 161.41 48.2695C161.785 48.1914 162.156 48.0938 162.523 47.9766V50.6367C162.141 50.8086 161.664 50.9492 161.094 51.0586C160.531 51.1758 159.914 51.2344 159.242 51.2344C158.461 51.2344 157.758 51.1094 157.133 50.8594C156.516 50.6016 156.027 50.1602 155.668 49.5352C155.316 48.9023 155.141 48.0234 155.141 46.8984V40.582H153.43V39.0703L155.398 37.875L156.43 35.1094H158.715V37.8984H162.383V40.582H158.715V46.8984C158.715 47.3984 158.855 47.7734 159.137 48.0234C159.426 48.2656 159.805 48.3867 160.273 48.3867ZM168.758 37.8984V51H165.184V37.8984H168.758ZM166.977 32.7656C167.508 32.7656 167.965 32.8906 168.348 33.1406C168.73 33.3828 168.922 33.8398 168.922 34.5117C168.922 35.1758 168.73 35.6367 168.348 35.8945C167.965 36.1445 167.508 36.2695 166.977 36.2695C166.438 36.2695 165.977 36.1445 165.594 35.8945C165.219 35.6367 165.031 35.1758 165.031 34.5117C165.031 33.8398 165.219 33.3828 165.594 33.1406C165.977 32.8906 166.438 32.7656 166.977 32.7656ZM184.426 44.4258C184.426 45.5195 184.277 46.4883 183.98 47.332C183.691 48.1758 183.266 48.8906 182.703 49.4766C182.148 50.0547 181.477 50.4922 180.688 50.7891C179.906 51.0859 179.023 51.2344 178.039 51.2344C177.117 51.2344 176.27 51.0859 175.496 50.7891C174.73 50.4922 174.062 50.0547 173.492 49.4766C172.93 48.8906 172.492 48.1758 172.18 47.332C171.875 46.4883 171.723 45.5195 171.723 44.4258C171.723 42.9727 171.98 41.7422 172.496 40.7344C173.012 39.7266 173.746 38.9609 174.699 38.4375C175.652 37.9141 176.789 37.6523 178.109 37.6523C179.336 37.6523 180.422 37.9141 181.367 38.4375C182.32 38.9609 183.066 39.7266 183.605 40.7344C184.152 41.7422 184.426 42.9727 184.426 44.4258ZM175.367 44.4258C175.367 45.2852 175.461 46.0078 175.648 46.5938C175.836 47.1797 176.129 47.6211 176.527 47.918C176.926 48.2148 177.445 48.3633 178.086 48.3633C178.719 48.3633 179.23 48.2148 179.621 47.918C180.02 47.6211 180.309 47.1797 180.488 46.5938C180.676 46.0078 180.77 45.2852 180.77 44.4258C180.77 43.5586 180.676 42.8398 180.488 42.2695C180.309 41.6914 180.02 41.2578 179.621 40.9688C179.223 40.6797 178.703 40.5352 178.062 40.5352C177.117 40.5352 176.43 40.8594 176 41.5078C175.578 42.1562 175.367 43.1289 175.367 44.4258ZM194.82 37.6523C196.219 37.6523 197.344 38.0352 198.195 38.8008C199.047 39.5586 199.473 40.7773 199.473 42.457V51H195.898V43.3477C195.898 42.4102 195.727 41.7031 195.383 41.2266C195.047 40.75 194.516 40.5117 193.789 40.5117C192.695 40.5117 191.949 40.8828 191.551 41.625C191.152 42.3672 190.953 43.4375 190.953 44.8359V51H187.379V37.8984H190.109L190.59 39.5742H190.789C191.07 39.1211 191.418 38.7539 191.832 38.4727C192.254 38.1914 192.719 37.9844 193.227 37.8516C193.742 37.7188 194.273 37.6523 194.82 37.6523ZM212.293 47.1094C212.293 48 212.082 48.7539 211.66 49.3711C211.246 49.9805 210.625 50.4453 209.797 50.7656C208.969 51.0781 207.938 51.2344 206.703 51.2344C205.789 51.2344 205.004 51.1758 204.348 51.0586C203.699 50.9414 203.043 50.7461 202.379 50.4727V47.5195C203.09 47.8398 203.852 48.1055 204.664 48.3164C205.484 48.5195 206.203 48.6211 206.82 48.6211C207.516 48.6211 208.012 48.5195 208.309 48.3164C208.613 48.1055 208.766 47.832 208.766 47.4961C208.766 47.2773 208.703 47.082 208.578 46.9102C208.461 46.7305 208.203 46.5312 207.805 46.3125C207.406 46.0859 206.781 45.793 205.93 45.4336C205.109 45.0898 204.434 44.7422 203.902 44.3906C203.379 44.0391 202.988 43.625 202.73 43.1484C202.48 42.6641 202.355 42.0508 202.355 41.3086C202.355 40.0977 202.824 39.1875 203.762 38.5781C204.707 37.9609 205.969 37.6523 207.547 37.6523C208.359 37.6523 209.133 37.7344 209.867 37.8984C210.609 38.0625 211.371 38.3242 212.152 38.6836L211.074 41.2617C210.426 40.9805 209.812 40.75 209.234 40.5703C208.664 40.3906 208.082 40.3008 207.488 40.3008C206.965 40.3008 206.57 40.3711 206.305 40.5117C206.039 40.6523 205.906 40.8672 205.906 41.1562C205.906 41.3672 205.973 41.5547 206.105 41.7188C206.246 41.8828 206.512 42.0664 206.902 42.2695C207.301 42.4648 207.883 42.7188 208.648 43.0312C209.391 43.3359 210.035 43.6562 210.582 43.9922C211.129 44.3203 211.551 44.7305 211.848 45.2227C212.145 45.707 212.293 46.3359 212.293 47.1094Z" fill="black"/>
</svg>
