<svg width="290" height="138" viewBox="0 0 290 138" fill="none" xmlns="http://www.w3.org/2000/svg">
<rect y="12" width="290" height="126" rx="30" fill="#C3C3C3"/>
<path d="M68.9492 51V33.8672H72.582V51H68.9492ZM84.0547 37.6523C85.4531 37.6523 86.5781 38.0352 87.4297 38.8008C88.2812 39.5586 88.707 40.7773 88.707 42.457V51H85.1328V43.3477C85.1328 42.4102 84.9609 41.7031 84.6172 41.2266C84.2812 40.75 83.75 40.5117 83.0234 40.5117C81.9297 40.5117 81.1836 40.8828 80.7852 41.625C80.3867 42.3672 80.1875 43.4375 80.1875 44.8359V51H76.6133V37.8984H79.3438L79.8242 39.5742H80.0234C80.3047 39.1211 80.6523 38.7539 81.0664 38.4727C81.4883 38.1914 81.9531 37.9844 82.4609 37.8516C82.9766 37.7188 83.5078 37.6523 84.0547 37.6523ZM97.9062 48.3867C98.2969 48.3867 98.6758 48.3477 99.043 48.2695C99.418 48.1914 99.7891 48.0938 100.156 47.9766V50.6367C99.7734 50.8086 99.2969 50.9492 98.7266 51.0586C98.1641 51.1758 97.5469 51.2344 96.875 51.2344C96.0938 51.2344 95.3906 51.1094 94.7656 50.8594C94.1484 50.6016 93.6602 50.1602 93.3008 49.5352C92.9492 48.9023 92.7734 48.0234 92.7734 46.8984V40.582H91.0625V39.0703L93.0312 37.875L94.0625 35.1094H96.3477V37.8984H100.016V40.582H96.3477V46.8984C96.3477 47.3984 96.4883 47.7734 96.7695 48.0234C97.0586 48.2656 97.4375 48.3867 97.9062 48.3867ZM108.219 37.6523C109.43 37.6523 110.473 37.8867 111.348 38.3555C112.223 38.8164 112.898 39.4883 113.375 40.3711C113.852 41.2539 114.09 42.332 114.09 43.6055V45.3398H105.641C105.68 46.3477 105.98 47.1406 106.543 47.7188C107.113 48.2891 107.902 48.5742 108.91 48.5742C109.746 48.5742 110.512 48.4883 111.207 48.3164C111.902 48.1445 112.617 47.8867 113.352 47.543V50.3086C112.703 50.6289 112.023 50.8633 111.312 51.0117C110.609 51.1602 109.754 51.2344 108.746 51.2344C107.434 51.2344 106.27 50.9922 105.254 50.5078C104.246 50.0234 103.453 49.2852 102.875 48.293C102.305 47.3008 102.02 46.0508 102.02 44.543C102.02 43.0117 102.277 41.7383 102.793 40.7227C103.316 39.6992 104.043 38.9336 104.973 38.4258C105.902 37.9102 106.984 37.6523 108.219 37.6523ZM108.242 40.1953C107.547 40.1953 106.969 40.418 106.508 40.8633C106.055 41.3086 105.793 42.0078 105.723 42.9609H110.738C110.73 42.4297 110.633 41.957 110.445 41.543C110.266 41.1289 109.992 40.8008 109.625 40.5586C109.266 40.3164 108.805 40.1953 108.242 40.1953ZM124.309 37.6523C124.488 37.6523 124.695 37.6641 124.93 37.6875C125.172 37.7031 125.367 37.7266 125.516 37.7578L125.246 41.1094C125.129 41.0703 124.961 41.043 124.742 41.0273C124.531 41.0039 124.348 40.9922 124.191 40.9922C123.73 40.9922 123.281 41.0508 122.844 41.168C122.414 41.2852 122.027 41.4766 121.684 41.7422C121.34 42 121.066 42.3438 120.863 42.7734C120.668 43.1953 120.57 43.7148 120.57 44.332V51H116.996V37.8984H119.703L120.23 40.1016H120.406C120.664 39.6562 120.984 39.25 121.367 38.8828C121.758 38.5078 122.199 38.2109 122.691 37.9922C123.191 37.7656 123.73 37.6523 124.309 37.6523ZM133.262 37.6289C135.02 37.6289 136.367 38.0117 137.305 38.7773C138.242 39.543 138.711 40.707 138.711 42.2695V51H136.215L135.523 49.2188H135.43C135.055 49.6875 134.672 50.0703 134.281 50.3672C133.891 50.6641 133.441 50.8828 132.934 51.0234C132.426 51.1641 131.809 51.2344 131.082 51.2344C130.309 51.2344 129.613 51.0859 128.996 50.7891C128.387 50.4922 127.906 50.0391 127.555 49.4297C127.203 48.8125 127.027 48.0312 127.027 47.0859C127.027 45.6953 127.516 44.6719 128.492 44.0156C129.469 43.3516 130.934 42.9844 132.887 42.9141L135.16 42.8438V42.2695C135.16 41.582 134.98 41.0781 134.621 40.7578C134.262 40.4375 133.762 40.2773 133.121 40.2773C132.488 40.2773 131.867 40.3672 131.258 40.5469C130.648 40.7266 130.039 40.9531 129.43 41.2266L128.246 38.8125C128.941 38.4453 129.719 38.1562 130.578 37.9453C131.445 37.7344 132.34 37.6289 133.262 37.6289ZM135.16 44.9297L133.777 44.9766C132.621 45.0078 131.816 45.2148 131.363 45.5977C130.918 45.9805 130.695 46.4844 130.695 47.1094C130.695 47.6562 130.855 48.0469 131.176 48.2812C131.496 48.5078 131.914 48.6211 132.43 48.6211C133.195 48.6211 133.84 48.3945 134.363 47.9414C134.895 47.4883 135.16 46.8438 135.16 46.0078V44.9297ZM147.723 51.2344C146.426 51.2344 145.32 51 144.406 50.5312C143.492 50.0547 142.797 49.3203 142.32 48.3281C141.844 47.3359 141.605 46.0664 141.605 44.5195C141.605 42.918 141.875 41.6133 142.414 40.6055C142.961 39.5898 143.715 38.8438 144.676 38.3672C145.645 37.8906 146.766 37.6523 148.039 37.6523C148.945 37.6523 149.727 37.7422 150.383 37.9219C151.047 38.0938 151.625 38.3008 152.117 38.543L151.062 41.3086C150.5 41.082 149.977 40.8984 149.492 40.7578C149.008 40.6094 148.523 40.5352 148.039 40.5352C147.414 40.5352 146.895 40.6836 146.48 40.9805C146.066 41.2695 145.758 41.707 145.555 42.293C145.352 42.8789 145.25 43.6133 145.25 44.4961C145.25 45.3633 145.359 46.082 145.578 46.6523C145.797 47.2227 146.113 47.6484 146.527 47.9297C146.941 48.2031 147.445 48.3398 148.039 48.3398C148.781 48.3398 149.441 48.2422 150.02 48.0469C150.598 47.8438 151.16 47.5625 151.707 47.2031V50.2617C151.16 50.6055 150.586 50.8516 149.984 51C149.391 51.1562 148.637 51.2344 147.723 51.2344ZM160.273 48.3867C160.664 48.3867 161.043 48.3477 161.41 48.2695C161.785 48.1914 162.156 48.0938 162.523 47.9766V50.6367C162.141 50.8086 161.664 50.9492 161.094 51.0586C160.531 51.1758 159.914 51.2344 159.242 51.2344C158.461 51.2344 157.758 51.1094 157.133 50.8594C156.516 50.6016 156.027 50.1602 155.668 49.5352C155.316 48.9023 155.141 48.0234 155.141 46.8984V40.582H153.43V39.0703L155.398 37.875L156.43 35.1094H158.715V37.8984H162.383V40.582H158.715V46.8984C158.715 47.3984 158.855 47.7734 159.137 48.0234C159.426 48.2656 159.805 48.3867 160.273 48.3867ZM168.758 37.8984V51H165.184V37.8984H168.758ZM166.977 32.7656C167.508 32.7656 167.965 32.8906 168.348 33.1406C168.73 33.3828 168.922 33.8398 168.922 34.5117C168.922 35.1758 168.73 35.6367 168.348 35.8945C167.965 36.1445 167.508 36.2695 166.977 36.2695C166.438 36.2695 165.977 36.1445 165.594 35.8945C165.219 35.6367 165.031 35.1758 165.031 34.5117C165.031 33.8398 165.219 33.3828 165.594 33.1406C165.977 32.8906 166.438 32.7656 166.977 32.7656ZM184.426 44.4258C184.426 45.5195 184.277 46.4883 183.98 47.332C183.691 48.1758 183.266 48.8906 182.703 49.4766C182.148 50.0547 181.477 50.4922 180.688 50.7891C179.906 51.0859 179.023 51.2344 178.039 51.2344C177.117 51.2344 176.27 51.0859 175.496 50.7891C174.73 50.4922 174.062 50.0547 173.492 49.4766C172.93 48.8906 172.492 48.1758 172.18 47.332C171.875 46.4883 171.723 45.5195 171.723 44.4258C171.723 42.9727 171.98 41.7422 172.496 40.7344C173.012 39.7266 173.746 38.9609 174.699 38.4375C175.652 37.9141 176.789 37.6523 178.109 37.6523C179.336 37.6523 180.422 37.9141 181.367 38.4375C182.32 38.9609 183.066 39.7266 183.605 40.7344C184.152 41.7422 184.426 42.9727 184.426 44.4258ZM175.367 44.4258C175.367 45.2852 175.461 46.0078 175.648 46.5938C175.836 47.1797 176.129 47.6211 176.527 47.918C176.926 48.2148 177.445 48.3633 178.086 48.3633C178.719 48.3633 179.23 48.2148 179.621 47.918C180.02 47.6211 180.309 47.1797 180.488 46.5938C180.676 46.0078 180.77 45.2852 180.77 44.4258C180.77 43.5586 180.676 42.8398 180.488 42.2695C180.309 41.6914 180.02 41.2578 179.621 40.9688C179.223 40.6797 178.703 40.5352 178.062 40.5352C177.117 40.5352 176.43 40.8594 176 41.5078C175.578 42.1562 175.367 43.1289 175.367 44.4258ZM194.82 37.6523C196.219 37.6523 197.344 38.0352 198.195 38.8008C199.047 39.5586 199.473 40.7773 199.473 42.457V51H195.898V43.3477C195.898 42.4102 195.727 41.7031 195.383 41.2266C195.047 40.75 194.516 40.5117 193.789 40.5117C192.695 40.5117 191.949 40.8828 191.551 41.625C191.152 42.3672 190.953 43.4375 190.953 44.8359V51H187.379V37.8984H190.109L190.59 39.5742H190.789C191.07 39.1211 191.418 38.7539 191.832 38.4727C192.254 38.1914 192.719 37.9844 193.227 37.8516C193.742 37.7188 194.273 37.6523 194.82 37.6523ZM212.293 47.1094C212.293 48 212.082 48.7539 211.66 49.3711C211.246 49.9805 210.625 50.4453 209.797 50.7656C208.969 51.0781 207.938 51.2344 206.703 51.2344C205.789 51.2344 205.004 51.1758 204.348 51.0586C203.699 50.9414 203.043 50.7461 202.379 50.4727V47.5195C203.09 47.8398 203.852 48.1055 204.664 48.3164C205.484 48.5195 206.203 48.6211 206.82 48.6211C207.516 48.6211 208.012 48.5195 208.309 48.3164C208.613 48.1055 208.766 47.832 208.766 47.4961C208.766 47.2773 208.703 47.082 208.578 46.9102C208.461 46.7305 208.203 46.5312 207.805 46.3125C207.406 46.0859 206.781 45.793 205.93 45.4336C205.109 45.0898 204.434 44.7422 203.902 44.3906C203.379 44.0391 202.988 43.625 202.73 43.1484C202.48 42.6641 202.355 42.0508 202.355 41.3086C202.355 40.0977 202.824 39.1875 203.762 38.5781C204.707 37.9609 205.969 37.6523 207.547 37.6523C208.359 37.6523 209.133 37.7344 209.867 37.8984C210.609 38.0625 211.371 38.3242 212.152 38.6836L211.074 41.2617C210.426 40.9805 209.812 40.75 209.234 40.5703C208.664 40.3906 208.082 40.3008 207.488 40.3008C206.965 40.3008 206.57 40.3711 206.305 40.5117C206.039 40.6523 205.906 40.8672 205.906 41.1562C205.906 41.3672 205.973 41.5547 206.105 41.7188C206.246 41.8828 206.512 42.0664 206.902 42.2695C207.301 42.4648 207.883 42.7188 208.648 43.0312C209.391 43.3359 210.035 43.6562 210.582 43.9922C211.129 44.3203 211.551 44.7305 211.848 45.2227C212.145 45.707 212.293 46.3359 212.293 47.1094Z" fill="black"/>
<path d="M33.7871 93.7812L31.3164 108H28.9238L31.3945 93.7812H33.7871ZM37.7227 99.8262L36.3066 108H34.002L35.8379 97.4336H37.9961L37.7227 99.8262ZM36.9121 102.326L36.209 102.336C36.2871 101.704 36.4401 101.083 36.668 100.471C36.9023 99.8522 37.2116 99.2988 37.5957 98.8105C37.9798 98.3158 38.4453 97.9251 38.9922 97.6387C39.5456 97.3522 40.1836 97.2188 40.9062 97.2383C41.4792 97.2513 41.9544 97.3652 42.332 97.5801C42.7161 97.7949 43.0124 98.0846 43.2207 98.4492C43.4355 98.8138 43.5755 99.2305 43.6406 99.6992C43.7057 100.168 43.709 100.66 43.6504 101.174L42.5176 108H40.2031L41.3555 101.145C41.3945 100.767 41.3815 100.428 41.3164 100.129C41.2513 99.8229 41.1081 99.582 40.8867 99.4062C40.6654 99.224 40.3464 99.1296 39.9297 99.123C39.474 99.11 39.0736 99.1947 38.7285 99.377C38.3835 99.5592 38.0872 99.8099 37.8398 100.129C37.5924 100.441 37.3906 100.79 37.2344 101.174C37.0846 101.558 36.9772 101.942 36.9121 102.326ZM51.375 97.4336L51.0723 99.1523H45.291L45.584 97.4336H51.375ZM47.7031 94.8457H49.998L48.25 105.1C48.224 105.327 48.224 105.526 48.25 105.695C48.2826 105.865 48.3574 105.998 48.4746 106.096C48.5983 106.187 48.7871 106.236 49.041 106.242C49.1777 106.249 49.3145 106.242 49.4512 106.223C49.5944 106.203 49.7376 106.184 49.8809 106.164L49.7148 107.98C49.4805 108.052 49.2396 108.104 48.9922 108.137C48.7513 108.169 48.5072 108.182 48.2598 108.176C47.6738 108.169 47.2018 108.036 46.8438 107.775C46.4857 107.508 46.235 107.154 46.0918 106.711C45.9486 106.268 45.903 105.773 45.9551 105.227L47.7031 94.8457ZM56.043 108.195C55.3203 108.182 54.679 108.042 54.1191 107.775C53.5658 107.502 53.1068 107.134 52.7422 106.672C52.3776 106.203 52.1139 105.666 51.9512 105.061C51.7884 104.449 51.7331 103.798 51.7852 103.107L51.8242 102.707C51.8958 101.997 52.0684 101.314 52.3418 100.656C52.6152 99.9922 52.9798 99.403 53.4355 98.8887C53.8978 98.3678 54.4414 97.9577 55.0664 97.6582C55.6914 97.3587 56.388 97.2188 57.1562 97.2383C57.8919 97.2513 58.5137 97.4043 59.0215 97.6973C59.5293 97.9902 59.9329 98.3809 60.2324 98.8691C60.5319 99.3509 60.7305 99.8978 60.8281 100.51C60.9323 101.122 60.9486 101.757 60.877 102.414L60.7402 103.42H52.8105L53.084 101.73L58.6797 101.74L58.7188 101.535C58.7773 101.125 58.7546 100.738 58.6504 100.373C58.5527 100.008 58.3704 99.709 58.1035 99.4746C57.8366 99.2402 57.4785 99.1165 57.0293 99.1035C56.541 99.0905 56.1211 99.1914 55.7695 99.4062C55.4245 99.6211 55.138 99.9108 54.9102 100.275C54.6823 100.64 54.5033 101.037 54.373 101.467C54.2493 101.89 54.1615 102.303 54.1094 102.707L54.0703 103.098C54.0312 103.482 54.041 103.863 54.0996 104.24C54.1582 104.618 54.2721 104.963 54.4414 105.275C54.6107 105.581 54.8451 105.832 55.1445 106.027C55.444 106.216 55.8151 106.317 56.2578 106.33C56.8112 106.343 57.3125 106.229 57.7617 105.988C58.2174 105.741 58.6309 105.422 59.002 105.031L60.1348 106.232C59.8353 106.682 59.4642 107.053 59.0215 107.346C58.5853 107.639 58.11 107.857 57.5957 108C57.0879 108.137 56.5703 108.202 56.043 108.195ZM65.457 99.5625L63.9922 108H61.6973L63.5332 97.4336H65.7109L65.457 99.5625ZM68.8945 97.3457L68.6406 99.543C68.4909 99.5169 68.3379 99.4941 68.1816 99.4746C68.0319 99.4551 67.8822 99.4453 67.7324 99.4453C67.3353 99.4388 66.9772 99.4941 66.6582 99.6113C66.3392 99.7285 66.0592 99.8978 65.8184 100.119C65.5775 100.334 65.3757 100.594 65.2129 100.9C65.0501 101.2 64.9232 101.535 64.832 101.906L64.2852 101.945C64.3503 101.431 64.4609 100.897 64.6172 100.344C64.7799 99.7904 65.0046 99.276 65.291 98.8008C65.5775 98.319 65.9421 97.9316 66.3848 97.6387C66.8275 97.3392 67.3646 97.196 67.9961 97.209C68.1458 97.209 68.2956 97.222 68.4453 97.248C68.5951 97.2741 68.7448 97.3066 68.8945 97.3457ZM74.3633 105.881L75.1641 100.812C75.2031 100.474 75.1803 100.168 75.0957 99.8945C75.0111 99.6211 74.8548 99.4062 74.627 99.25C74.4056 99.0872 74.1126 99.0026 73.748 98.9961C73.4225 98.9896 73.1165 99.0449 72.8301 99.1621C72.5436 99.2728 72.2995 99.4388 72.0977 99.6602C71.9023 99.8815 71.7721 100.152 71.707 100.471L69.4121 100.48C69.4512 99.9271 69.6139 99.4453 69.9004 99.0352C70.1934 98.6185 70.5612 98.2767 71.0039 98.0098C71.4531 97.7363 71.9349 97.5378 72.4492 97.4141C72.9701 97.2839 73.4779 97.222 73.9727 97.2285C74.6888 97.2415 75.3236 97.3945 75.877 97.6875C76.4303 97.9805 76.8503 98.3939 77.1367 98.9277C77.4297 99.4616 77.5404 100.106 77.4688 100.861L76.6973 105.568C76.6387 105.939 76.5964 106.32 76.5703 106.711C76.5508 107.095 76.6029 107.466 76.7266 107.824L76.707 108L74.4316 108.01C74.334 107.665 74.2852 107.313 74.2852 106.955C74.2852 106.59 74.3112 106.232 74.3633 105.881ZM75.4277 101.574L75.1934 103.029L73.6699 103.02C73.3574 103.02 73.0352 103.049 72.7031 103.107C72.3776 103.166 72.0716 103.267 71.7852 103.41C71.4987 103.553 71.2578 103.749 71.0625 103.996C70.8672 104.237 70.7467 104.54 70.7012 104.904C70.6686 105.197 70.7012 105.451 70.7988 105.666C70.903 105.874 71.0592 106.04 71.2676 106.164C71.4759 106.288 71.7233 106.353 72.0098 106.359C72.3939 106.366 72.7715 106.291 73.1426 106.135C73.5202 105.979 73.8457 105.757 74.1191 105.471C74.3991 105.178 74.5911 104.842 74.6953 104.465L75.3105 105.52C75.1673 105.917 74.9655 106.281 74.7051 106.613C74.4512 106.945 74.1549 107.232 73.8164 107.473C73.4779 107.714 73.1068 107.899 72.7031 108.029C72.306 108.16 71.8958 108.221 71.4727 108.215C70.8867 108.202 70.3529 108.068 69.8711 107.814C69.3893 107.554 69.0085 107.193 68.7285 106.73C68.4486 106.268 68.3249 105.734 68.3574 105.129C68.39 104.445 68.5625 103.876 68.875 103.42C69.194 102.958 69.6009 102.593 70.0957 102.326C70.597 102.053 71.1439 101.857 71.7363 101.74C72.3288 101.623 72.9147 101.564 73.4941 101.564L75.4277 101.574ZM83.1914 106.33C83.5755 106.337 83.9271 106.265 84.2461 106.115C84.5651 105.965 84.8288 105.751 85.0371 105.471C85.252 105.191 85.4017 104.868 85.4863 104.504L87.6641 104.494C87.5794 105.249 87.3125 105.907 86.8633 106.467C86.4206 107.027 85.8672 107.46 85.2031 107.766C84.5456 108.065 83.849 108.208 83.1133 108.195C82.3646 108.182 81.7233 108.029 81.1895 107.736C80.6621 107.443 80.2357 107.049 79.9102 106.555C79.5846 106.06 79.3568 105.5 79.2266 104.875C79.1029 104.243 79.0736 103.589 79.1387 102.912L79.1777 102.561C79.2559 101.838 79.4284 101.154 79.6953 100.51C79.9688 99.8652 80.3301 99.2956 80.7793 98.8008C81.235 98.2995 81.7721 97.9089 82.3906 97.6289C83.0091 97.349 83.7057 97.2188 84.4805 97.2383C85.2617 97.2513 85.9355 97.4303 86.502 97.7754C87.0684 98.1204 87.5013 98.5924 87.8008 99.1914C88.1003 99.7839 88.2467 100.461 88.2402 101.223L86.082 101.213C86.082 100.848 86.0202 100.51 85.8965 100.197C85.7793 99.8783 85.5905 99.6211 85.3301 99.4258C85.0762 99.224 84.7441 99.1165 84.334 99.1035C83.8522 99.0905 83.4388 99.1849 83.0938 99.3867C82.7552 99.5885 82.472 99.862 82.2441 100.207C82.0228 100.552 81.847 100.933 81.7168 101.35C81.5931 101.76 81.5085 102.167 81.4629 102.57L81.4238 102.912C81.3913 103.257 81.3783 103.628 81.3848 104.025C81.3978 104.416 81.4596 104.784 81.5703 105.129C81.681 105.474 81.8633 105.757 82.1172 105.979C82.3776 106.2 82.7357 106.317 83.1914 106.33ZM95.3398 97.4336L95.0371 99.1523H89.2559L89.5488 97.4336H95.3398ZM91.668 94.8457H93.9629L92.2148 105.1C92.1888 105.327 92.1888 105.526 92.2148 105.695C92.2474 105.865 92.3223 105.998 92.4395 106.096C92.5632 106.187 92.752 106.236 93.0059 106.242C93.1426 106.249 93.2793 106.242 93.416 106.223C93.5592 106.203 93.7025 106.184 93.8457 106.164L93.6797 107.98C93.4453 108.052 93.2044 108.104 92.957 108.137C92.7161 108.169 92.472 108.182 92.2246 108.176C91.6387 108.169 91.1667 108.036 90.8086 107.775C90.4505 107.508 90.1999 107.154 90.0566 106.711C89.9134 106.268 89.8678 105.773 89.9199 105.227L91.668 94.8457ZM103.387 105.549L107.127 97.4336H108.67L107.791 100.002L104.061 108H102.684L103.387 105.549ZM103.396 97.4336L103.816 105.832L103.582 108H102.146L101.209 97.4336H103.396ZM109.451 105.48L112.605 97.4336H114.91L110.311 108H108.787L109.451 105.48ZM108.855 97.4336L109.793 105.695L109.666 108H108.406L107.381 99.7676L107.41 97.4336H108.855ZM118.865 97.4336L117.029 108H114.734L116.57 97.4336H118.865ZM116.893 94.6992C116.886 94.3216 117.01 94.0124 117.264 93.7715C117.518 93.5306 117.83 93.4069 118.201 93.4004C118.559 93.3939 118.865 93.5046 119.119 93.7324C119.38 93.9538 119.51 94.25 119.51 94.6211C119.516 94.9987 119.389 95.3047 119.129 95.5391C118.875 95.7734 118.566 95.8939 118.201 95.9004C117.843 95.9069 117.537 95.8027 117.283 95.5879C117.029 95.3665 116.899 95.0703 116.893 94.6992ZM126.062 97.4336L125.76 99.1523H119.979L120.271 97.4336H126.062ZM122.391 94.8457H124.686L122.938 105.1C122.911 105.327 122.911 105.526 122.938 105.695C122.97 105.865 123.045 105.998 123.162 106.096C123.286 106.187 123.475 106.236 123.729 106.242C123.865 106.249 124.002 106.242 124.139 106.223C124.282 106.203 124.425 106.184 124.568 106.164L124.402 107.98C124.168 108.052 123.927 108.104 123.68 108.137C123.439 108.169 123.195 108.182 122.947 108.176C122.361 108.169 121.889 108.036 121.531 107.775C121.173 107.508 120.923 107.154 120.779 106.711C120.636 106.268 120.59 105.773 120.643 105.227L122.391 94.8457ZM130.857 93L128.25 108H125.955L128.562 93H130.857ZM128.865 102.326H128.143C128.227 101.714 128.38 101.105 128.602 100.5C128.829 99.888 129.135 99.3346 129.52 98.8398C129.904 98.3385 130.366 97.9414 130.906 97.6484C131.447 97.3555 132.072 97.2188 132.781 97.2383C133.361 97.2513 133.842 97.3652 134.227 97.5801C134.617 97.7949 134.923 98.0879 135.145 98.459C135.366 98.8236 135.512 99.2435 135.584 99.7188C135.656 100.188 135.662 100.686 135.604 101.213L134.471 108H132.156L133.309 101.184C133.348 100.799 133.335 100.454 133.27 100.148C133.204 99.8424 133.061 99.5983 132.84 99.416C132.618 99.2272 132.296 99.1296 131.873 99.123C131.417 99.11 131.014 99.1947 130.662 99.377C130.317 99.5592 130.021 99.8066 129.773 100.119C129.533 100.432 129.337 100.78 129.188 101.164C129.038 101.548 128.93 101.936 128.865 102.326ZM144.881 106.73L149.236 97.4336H151.775L145.584 109.621C145.408 109.986 145.206 110.331 144.979 110.656C144.757 110.982 144.503 111.268 144.217 111.516C143.93 111.763 143.608 111.955 143.25 112.092C142.898 112.235 142.501 112.307 142.059 112.307C141.857 112.3 141.658 112.277 141.463 112.238C141.261 112.206 141.062 112.167 140.867 112.121L141.033 110.314C141.105 110.321 141.176 110.327 141.248 110.334C141.32 110.347 141.391 110.354 141.463 110.354C141.834 110.367 142.16 110.318 142.439 110.207C142.719 110.103 142.964 109.94 143.172 109.719C143.387 109.497 143.576 109.227 143.738 108.908L144.881 106.73ZM144.9 97.4336L145.975 105.461L145.955 107.863L144.354 108.273L142.498 97.4336H144.9ZM151.521 102.893L151.551 102.668C151.629 101.939 151.808 101.245 152.088 100.588C152.368 99.9303 152.739 99.3477 153.201 98.8398C153.67 98.3255 154.22 97.9251 154.852 97.6387C155.49 97.3522 156.199 97.2188 156.98 97.2383C157.736 97.2513 158.383 97.4076 158.924 97.707C159.471 98.0065 159.913 98.4069 160.252 98.9082C160.597 99.403 160.838 99.9694 160.975 100.607C161.111 101.239 161.147 101.9 161.082 102.59L161.062 102.814C160.978 103.544 160.792 104.234 160.506 104.885C160.226 105.536 159.852 106.115 159.383 106.623C158.921 107.124 158.37 107.518 157.732 107.805C157.101 108.085 156.398 108.215 155.623 108.195C154.874 108.182 154.227 108.029 153.68 107.736C153.139 107.437 152.697 107.04 152.352 106.545C152.013 106.05 151.775 105.49 151.639 104.865C151.502 104.234 151.463 103.576 151.521 102.893ZM153.836 102.668L153.816 102.893C153.784 103.251 153.781 103.628 153.807 104.025C153.833 104.423 153.911 104.794 154.041 105.139C154.171 105.484 154.373 105.767 154.646 105.988C154.92 106.21 155.285 106.327 155.74 106.34C156.222 106.353 156.642 106.255 157 106.047C157.358 105.839 157.658 105.559 157.898 105.207C158.139 104.855 158.331 104.471 158.475 104.055C158.618 103.632 158.712 103.218 158.758 102.814L158.777 102.59C158.816 102.238 158.823 101.864 158.797 101.467C158.771 101.063 158.693 100.686 158.562 100.334C158.432 99.9759 158.23 99.6862 157.957 99.4648C157.684 99.237 157.319 99.1165 156.863 99.1035C156.375 99.0905 155.952 99.1914 155.594 99.4062C155.236 99.6146 154.936 99.8978 154.695 100.256C154.454 100.614 154.262 101.005 154.119 101.428C153.982 101.851 153.888 102.264 153.836 102.668ZM168.68 105.393L170.057 97.4336H172.361L170.525 108H168.357L168.68 105.393ZM169.324 103.312L170.086 103.283C170.008 103.921 169.865 104.54 169.656 105.139C169.448 105.731 169.165 106.262 168.807 106.73C168.449 107.199 168.003 107.567 167.469 107.834C166.935 108.101 166.307 108.225 165.584 108.205C165.005 108.186 164.516 108.072 164.119 107.863C163.729 107.648 163.419 107.359 163.191 106.994C162.964 106.63 162.811 106.213 162.732 105.744C162.661 105.275 162.651 104.781 162.703 104.26L163.846 97.4336H166.141L164.988 104.289C164.969 104.543 164.969 104.787 164.988 105.021C165.008 105.256 165.063 105.467 165.154 105.656C165.245 105.845 165.379 105.998 165.555 106.115C165.737 106.226 165.975 106.288 166.268 106.301C166.893 106.32 167.413 106.2 167.83 105.939C168.253 105.673 168.585 105.308 168.826 104.846C169.074 104.383 169.24 103.872 169.324 103.312ZM176.629 99.5625L175.164 108H172.869L174.705 97.4336H176.883L176.629 99.5625ZM180.066 97.3457L179.812 99.543C179.663 99.5169 179.51 99.4941 179.354 99.4746C179.204 99.4551 179.054 99.4453 178.904 99.4453C178.507 99.4388 178.149 99.4941 177.83 99.6113C177.511 99.7285 177.231 99.8978 176.99 100.119C176.749 100.334 176.548 100.594 176.385 100.9C176.222 101.2 176.095 101.535 176.004 101.906L175.457 101.945C175.522 101.431 175.633 100.897 175.789 100.344C175.952 99.7904 176.176 99.276 176.463 98.8008C176.749 98.319 177.114 97.9316 177.557 97.6387C177.999 97.3392 178.536 97.196 179.168 97.209C179.318 97.209 179.467 97.222 179.617 97.248C179.767 97.2741 179.917 97.3066 180.066 97.3457ZM187.576 108H185.271L187.195 96.7598C187.306 95.9069 187.57 95.1842 187.986 94.5918C188.403 93.9928 188.943 93.5371 189.607 93.2246C190.278 92.9121 191.04 92.7624 191.893 92.7754C192.4 92.7884 192.898 92.8568 193.387 92.9805C193.875 93.0977 194.36 93.2279 194.842 93.3711L194.305 95.2949C193.927 95.1452 193.54 95.0247 193.143 94.9336C192.752 94.8424 192.355 94.7969 191.951 94.7969C191.287 94.7839 190.74 94.9434 190.311 95.2754C189.881 95.6009 189.614 96.0924 189.51 96.75L187.576 108ZM191.482 97.4336L191.17 99.1523H185.242L185.545 97.4336H191.482ZM195.291 97.4336L193.455 108H191.15L192.986 97.4336H195.291ZM204.363 97.4336H206.473L204.725 107.697C204.594 108.628 204.288 109.432 203.807 110.109C203.331 110.786 202.716 111.304 201.961 111.662C201.206 112.027 200.359 112.196 199.422 112.17C198.953 112.163 198.491 112.089 198.035 111.945C197.579 111.809 197.156 111.61 196.766 111.35C196.375 111.089 196.04 110.767 195.76 110.383L196.961 109.016C197.26 109.419 197.612 109.738 198.016 109.973C198.419 110.207 198.872 110.331 199.373 110.344C199.92 110.357 200.405 110.256 200.828 110.041C201.251 109.833 201.596 109.533 201.863 109.143C202.137 108.752 202.316 108.29 202.4 107.756L203.768 99.709L204.363 97.4336ZM196.482 102.912L196.512 102.697C196.59 102.046 196.746 101.395 196.98 100.744C197.215 100.087 197.527 99.4909 197.918 98.957C198.315 98.4167 198.797 97.9902 199.363 97.6777C199.936 97.3652 200.604 97.2155 201.365 97.2285C202.055 97.248 202.622 97.4173 203.064 97.7363C203.514 98.0553 203.859 98.4688 204.1 98.9766C204.347 99.4844 204.513 100.038 204.598 100.637C204.682 101.236 204.708 101.828 204.676 102.414L204.598 103.078C204.493 103.684 204.318 104.292 204.07 104.904C203.823 105.516 203.501 106.076 203.104 106.584C202.713 107.085 202.244 107.486 201.697 107.785C201.157 108.085 200.535 108.225 199.832 108.205C199.135 108.186 198.556 108.013 198.094 107.688C197.632 107.355 197.273 106.929 197.02 106.408C196.766 105.887 196.596 105.321 196.512 104.709C196.434 104.097 196.424 103.498 196.482 102.912ZM198.816 102.697L198.797 102.902C198.758 103.247 198.745 103.612 198.758 103.996C198.771 104.38 198.833 104.745 198.943 105.09C199.054 105.435 199.236 105.721 199.49 105.949C199.744 106.171 200.089 106.288 200.525 106.301C201.053 106.327 201.518 106.216 201.922 105.969C202.332 105.721 202.671 105.393 202.938 104.982C203.211 104.572 203.403 104.13 203.514 103.654L203.787 101.867C203.813 101.535 203.794 101.21 203.729 100.891C203.663 100.565 203.549 100.272 203.387 100.012C203.23 99.7513 203.022 99.543 202.762 99.3867C202.501 99.224 202.186 99.1393 201.814 99.1328C201.326 99.1133 200.903 99.2109 200.545 99.4258C200.193 99.6406 199.897 99.9271 199.656 100.285C199.422 100.643 199.236 101.034 199.1 101.457C198.963 101.88 198.868 102.294 198.816 102.697ZM213.602 105.393L214.979 97.4336H217.283L215.447 108H213.279L213.602 105.393ZM214.246 103.312L215.008 103.283C214.93 103.921 214.786 104.54 214.578 105.139C214.37 105.731 214.087 106.262 213.729 106.73C213.37 107.199 212.924 107.567 212.391 107.834C211.857 108.101 211.229 108.225 210.506 108.205C209.926 108.186 209.438 108.072 209.041 107.863C208.65 107.648 208.341 107.359 208.113 106.994C207.885 106.63 207.732 106.213 207.654 105.744C207.583 105.275 207.573 104.781 207.625 104.26L208.768 97.4336H211.062L209.91 104.289C209.891 104.543 209.891 104.787 209.91 105.021C209.93 105.256 209.985 105.467 210.076 105.656C210.167 105.845 210.301 105.998 210.477 106.115C210.659 106.226 210.896 106.288 211.189 106.301C211.814 106.32 212.335 106.2 212.752 105.939C213.175 105.673 213.507 105.308 213.748 104.846C213.995 104.383 214.161 103.872 214.246 103.312ZM221.551 99.5625L220.086 108H217.791L219.627 97.4336H221.805L221.551 99.5625ZM224.988 97.3457L224.734 99.543C224.585 99.5169 224.432 99.4941 224.275 99.4746C224.126 99.4551 223.976 99.4453 223.826 99.4453C223.429 99.4388 223.071 99.4941 222.752 99.6113C222.433 99.7285 222.153 99.8978 221.912 100.119C221.671 100.334 221.469 100.594 221.307 100.9C221.144 101.2 221.017 101.535 220.926 101.906L220.379 101.945C220.444 101.431 220.555 100.897 220.711 100.344C220.874 99.7904 221.098 99.276 221.385 98.8008C221.671 98.319 222.036 97.9316 222.479 97.6387C222.921 97.3392 223.458 97.196 224.09 97.209C224.24 97.209 224.389 97.222 224.539 97.248C224.689 97.2741 224.839 97.3066 224.988 97.3457ZM228.924 97.4336L227.088 108H224.793L226.629 97.4336H228.924ZM226.951 94.6992C226.945 94.3216 227.068 94.0124 227.322 93.7715C227.576 93.5306 227.889 93.4069 228.26 93.4004C228.618 93.3939 228.924 93.5046 229.178 93.7324C229.438 93.9538 229.568 94.25 229.568 94.6211C229.575 94.9987 229.448 95.3047 229.188 95.5391C228.934 95.7734 228.624 95.8939 228.26 95.9004C227.902 95.9069 227.596 95.8027 227.342 95.5879C227.088 95.3665 226.958 95.0703 226.951 94.6992ZM233.27 99.8262L231.854 108H229.549L231.385 97.4336H233.543L233.27 99.8262ZM232.459 102.326L231.756 102.336C231.834 101.704 231.987 101.083 232.215 100.471C232.449 99.8522 232.758 99.2988 233.143 98.8105C233.527 98.3158 233.992 97.9251 234.539 97.6387C235.092 97.3522 235.73 97.2188 236.453 97.2383C237.026 97.2513 237.501 97.3652 237.879 97.5801C238.263 97.7949 238.559 98.0846 238.768 98.4492C238.982 98.8138 239.122 99.2305 239.188 99.6992C239.253 100.168 239.256 100.66 239.197 101.174L238.064 108H235.75L236.902 101.145C236.941 100.767 236.928 100.428 236.863 100.129C236.798 99.8229 236.655 99.582 236.434 99.4062C236.212 99.224 235.893 99.1296 235.477 99.123C235.021 99.11 234.62 99.1947 234.275 99.377C233.93 99.5592 233.634 99.8099 233.387 100.129C233.139 100.441 232.938 100.79 232.781 101.174C232.632 101.558 232.524 101.942 232.459 102.326ZM245.125 108.195C244.402 108.182 243.761 108.042 243.201 107.775C242.648 107.502 242.189 107.134 241.824 106.672C241.46 106.203 241.196 105.666 241.033 105.061C240.87 104.449 240.815 103.798 240.867 103.107L240.906 102.707C240.978 101.997 241.15 101.314 241.424 100.656C241.697 99.9922 242.062 99.403 242.518 98.8887C242.98 98.3678 243.523 97.9577 244.148 97.6582C244.773 97.3587 245.47 97.2188 246.238 97.2383C246.974 97.2513 247.596 97.4043 248.104 97.6973C248.611 97.9902 249.015 98.3809 249.314 98.8691C249.614 99.3509 249.812 99.8978 249.91 100.51C250.014 101.122 250.031 101.757 249.959 102.414L249.822 103.42H241.893L242.166 101.73L247.762 101.74L247.801 101.535C247.859 101.125 247.837 100.738 247.732 100.373C247.635 100.008 247.452 99.709 247.186 99.4746C246.919 99.2402 246.561 99.1165 246.111 99.1035C245.623 99.0905 245.203 99.1914 244.852 99.4062C244.507 99.6211 244.22 99.9108 243.992 100.275C243.764 100.64 243.585 101.037 243.455 101.467C243.331 101.89 243.243 102.303 243.191 102.707L243.152 103.098C243.113 103.482 243.123 103.863 243.182 104.24C243.24 104.618 243.354 104.963 243.523 105.275C243.693 105.581 243.927 105.832 244.227 106.027C244.526 106.216 244.897 106.317 245.34 106.33C245.893 106.343 246.395 106.229 246.844 105.988C247.299 105.741 247.713 105.422 248.084 105.031L249.217 106.232C248.917 106.682 248.546 107.053 248.104 107.346C247.667 107.639 247.192 107.857 246.678 108C246.17 108.137 245.652 108.202 245.125 108.195ZM257.088 105.08C257.14 104.722 257.062 104.445 256.854 104.25C256.645 104.048 256.385 103.895 256.072 103.791C255.76 103.687 255.473 103.602 255.213 103.537C254.816 103.439 254.419 103.316 254.021 103.166C253.631 103.01 253.273 102.814 252.947 102.58C252.622 102.346 252.365 102.059 252.176 101.721C251.987 101.376 251.902 100.965 251.922 100.49C251.948 99.9434 252.091 99.4648 252.352 99.0547C252.612 98.6445 252.947 98.3027 253.357 98.0293C253.774 97.7559 254.23 97.554 254.725 97.4238C255.219 97.2936 255.711 97.2318 256.199 97.2383C256.883 97.2513 257.511 97.3848 258.084 97.6387C258.663 97.8926 259.126 98.2669 259.471 98.7617C259.822 99.2565 259.995 99.8685 259.988 100.598L257.703 100.588C257.716 100.262 257.658 99.9824 257.527 99.748C257.404 99.5072 257.221 99.3216 256.98 99.1914C256.74 99.0612 256.45 98.9928 256.111 98.9863C255.818 98.9798 255.529 99.0286 255.242 99.1328C254.962 99.237 254.721 99.3932 254.52 99.6016C254.318 99.8099 254.194 100.074 254.148 100.393C254.109 100.64 254.145 100.845 254.256 101.008C254.367 101.164 254.52 101.291 254.715 101.389C254.91 101.486 255.115 101.568 255.33 101.633C255.551 101.691 255.75 101.74 255.926 101.779C256.479 101.929 257.023 102.121 257.557 102.355C258.09 102.583 258.527 102.906 258.865 103.322C259.204 103.732 259.357 104.273 259.324 104.943C259.305 105.516 259.155 106.011 258.875 106.428C258.595 106.838 258.237 107.176 257.801 107.443C257.365 107.704 256.886 107.896 256.365 108.02C255.851 108.143 255.343 108.202 254.842 108.195C254.152 108.182 253.501 108.039 252.889 107.766C252.283 107.492 251.795 107.098 251.424 106.584C251.059 106.063 250.877 105.428 250.877 104.68L253.094 104.689C253.094 105.067 253.169 105.386 253.318 105.646C253.475 105.907 253.689 106.105 253.963 106.242C254.243 106.372 254.568 106.441 254.939 106.447C255.245 106.447 255.551 106.405 255.857 106.32C256.17 106.229 256.437 106.083 256.658 105.881C256.886 105.679 257.029 105.412 257.088 105.08Z" fill="black"/>
<rect x="51" y="73" width="188" height="2" rx="1" fill="#767676"/>
</svg>
