<svg width="160" height="73" viewBox="0 0 160 73" fill="none" xmlns="http://www.w3.org/2000/svg">
<g filter="url(#filter0_i_882_10275)">
<path d="M28.8253 0.0189051C29.0167 0.0185252 29.2081 0.0181135 29.3995 0.0176726C29.9158 0.0166055 30.4321 0.0160712 30.9484 0.0157056C31.2713 0.0154646 31.5941 0.0151282 31.917 0.0147632C32.8127 0.0137734 33.7084 0.0129219 34.6041 0.0126435C34.6612 0.0126255 34.7183 0.0126075 34.7771 0.012589C34.8343 0.0125711 34.8915 0.0125532 34.9504 0.0125348C35.0663 0.0124985 35.1822 0.0124619 35.298 0.0124251C35.3555 0.0124069 35.413 0.0123888 35.4722 0.0123701C36.4059 0.0120459 37.3396 0.0106126 38.2733 0.00870918C39.2342 0.00676623 40.1951 0.00574563 41.156 0.0056501C41.6947 0.00556424 42.2333 0.00508002 42.7719 0.00361685C43.2777 0.00226926 43.7835 0.00208894 44.2893 0.00280903C44.4748 0.00287224 44.6604 0.00251503 44.8459 0.00170652C45.0992 0.000667555 45.3524 0.00114431 45.6056 0.00199996C45.679 0.00133997 45.7524 0.000679987 45.828 0C46.274 0.00352442 46.5859 0.0645972 46.9803 0.277868C47.2275 0.550319 47.3011 0.716475 47.349 1.08172C47.3031 1.86974 46.7408 2.60234 46.3555 3.26798C46.2963 3.37083 46.2371 3.47369 46.178 3.57656C45.7403 4.33683 45.2973 5.09393 44.8498 5.84848C44.2124 6.92539 43.5861 8.00858 42.9615 9.09296C42.7543 9.4526 42.5469 9.8121 42.3394 10.1716C42.2376 10.3479 42.1358 10.5243 42.0341 10.7007C41.7733 11.1528 41.5121 11.6048 41.2505 12.0565C40.5811 13.2128 40.5811 13.2128 39.9282 14.3785C39.5724 15.0245 39.2018 15.6615 38.829 16.2979C38.4708 16.9094 38.1155 17.5225 37.7619 18.1366C37.3698 18.8172 36.9756 19.4965 36.5789 20.1744C36.163 20.8853 35.7525 21.5991 35.3446 22.3146C34.8907 23.1109 34.4323 23.9046 33.9693 24.6958C33.6217 25.2901 33.2764 25.8858 32.9325 26.4823C32.8817 26.5703 32.831 26.6582 32.7787 26.7489C32.5698 27.1113 32.361 27.4738 32.1522 27.8363C32.0989 27.9288 32.0456 28.0213 31.9908 28.1165C31.938 28.2082 31.8852 28.2999 31.8308 28.3943C31.6759 28.6628 31.5205 28.931 31.365 29.1991C31.1923 29.4975 31.0223 29.7969 30.8561 30.099C30.2009 31.2786 29.3995 32.1982 28.0611 32.6012C27.8662 32.641 27.6873 32.6476 27.4884 32.6486C27.4081 32.6492 27.3278 32.6498 27.2451 32.6504C27.1575 32.6506 27.07 32.6509 26.9798 32.6511C26.8408 32.6519 26.8408 32.6519 26.699 32.6527C26.3923 32.6543 26.0856 32.6553 25.7789 32.6561C25.6218 32.6566 25.6218 32.6566 25.4615 32.6571C24.9643 32.6587 24.4672 32.6599 23.97 32.6605C23.3971 32.6613 22.8241 32.6635 22.2512 32.6668C21.7542 32.6696 21.2572 32.6705 20.7601 32.6709C20.5491 32.6713 20.338 32.6722 20.1269 32.6737C19.8315 32.6757 19.5362 32.6757 19.2408 32.6751C19.1537 32.6761 19.0666 32.6772 18.9769 32.6783C18.4608 32.6746 18.1476 32.6153 17.7272 32.3089C17.4796 31.9647 17.513 31.5673 17.5633 31.162C17.8415 30.4346 18.3074 29.7693 18.7093 29.1051C19.0951 28.4665 19.4529 27.8209 19.7757 27.1479C19.8298 27.1479 19.8839 27.1479 19.9396 27.1479C19.9675 27.0476 19.9675 27.0476 19.9959 26.9453C20.1522 26.5256 20.3893 26.1643 20.6252 25.7852C20.9062 25.3226 21.0909 24.9367 21.0817 24.3831C21.0271 24.1135 21.0271 24.1135 20.8461 23.9581C20.1917 23.7311 19.657 23.8826 19.0347 24.1431C18.3652 24.5233 18 25.0537 17.5889 25.6938C17.4735 25.8702 17.358 26.0467 17.2426 26.2231C17.186 26.3102 17.1295 26.3973 17.0712 26.487C16.7271 27.016 16.3754 27.5401 16.0238 28.0643C15.936 28.1956 15.8492 28.3275 15.7625 28.4596C15.0276 29.555 14.0504 30.2371 12.8926 30.8343C12.8042 30.8811 12.7158 30.9279 12.6247 30.9761C11.8057 31.4026 10.9598 31.7625 10.1099 32.1226C10.0588 32.1442 10.0076 32.1659 9.95489 32.1883C9.90244 32.2105 9.84999 32.2327 9.79596 32.2556C9.16195 32.5249 8.53152 32.8024 7.9006 33.0788C3.85671 34.8493 3.85671 34.8493 2.32217 35.34C2.26967 35.3569 2.21717 35.3738 2.16308 35.3912C1.89295 35.4404 1.62279 35.4437 1.34911 35.4475C1.29218 35.4499 1.23524 35.4523 1.17658 35.4547C0.751557 35.4599 0.519138 35.3596 0.191685 35.0942C0.00165792 34.8524 -0.00684207 34.5928 0.00241569 34.2894C0.10027 33.6024 0.590244 32.9501 0.934281 32.3652C1.31635 31.7109 1.69349 31.0544 2.05586 30.3889C2.44495 29.6757 2.84928 28.9723 3.25849 28.2705C3.51073 27.8371 3.76147 27.4029 4.01221 26.9687C4.09122 26.8319 4.09122 26.8319 4.17183 26.6923C4.49131 26.1384 4.80735 25.5828 5.1192 25.0246C5.31568 24.6737 5.52049 24.3288 5.72946 23.9853C5.94263 23.6254 6.13965 23.2566 6.3373 22.888C6.39138 22.888 6.44546 22.888 6.50118 22.888C6.51935 22.8225 6.53752 22.7571 6.55624 22.6896C6.69616 22.3127 6.89061 21.9837 7.09526 21.6387C7.13595 21.5693 7.17663 21.4999 7.21855 21.4283C7.4593 21.0183 7.70396 20.6106 7.95021 20.2038C8.11308 19.9275 8.26429 19.645 8.41689 19.3629C8.78986 18.68 9.18167 18.0087 9.58424 17.343C9.83676 16.9253 10.078 16.5037 10.3089 16.0735C10.4578 15.7998 10.6121 15.5293 10.7673 15.2591C11.015 14.8276 11.2597 14.3946 11.4996 13.9586C11.5537 13.9586 11.6078 13.9586 11.6635 13.9586C11.6912 13.859 11.6912 13.859 11.7195 13.7574C11.8541 13.3952 12.0415 13.0843 12.2422 12.7554C12.3168 12.6324 12.3912 12.5092 12.4653 12.3858C12.4982 12.3319 12.531 12.278 12.5649 12.2224C12.6588 12.0634 12.6588 12.0634 12.7287 11.8287C12.7828 11.8287 12.8369 11.8287 12.8926 11.8287C12.9124 11.7603 12.9321 11.6918 12.9525 11.6213C13.072 11.2949 13.2301 11.0189 13.4099 10.7228C13.4844 10.5981 13.5588 10.4734 13.6333 10.3487C13.6728 10.2829 13.7124 10.2171 13.7531 10.1493C13.9645 9.79688 14.1737 9.44317 14.3829 9.08948C14.427 9.01509 14.4711 8.94071 14.5166 8.86407C14.7671 8.44049 15.0147 8.01538 15.2593 7.58834C15.313 7.49477 15.3666 7.4012 15.4219 7.3048C15.5248 7.12488 15.6275 6.9448 15.7298 6.76451C16.195 5.95127 16.6969 5.16338 17.2816 4.43023C17.3198 4.3821 17.3579 4.33396 17.3972 4.28437C17.7565 3.83634 18.1375 3.37226 18.6285 3.06318C18.6826 3.06318 18.7367 3.06318 18.7924 3.06318C18.7924 3.00911 18.7924 2.95504 18.7924 2.89933C18.9057 2.80219 18.9057 2.80219 19.0661 2.69421C19.1552 2.63412 19.1552 2.63412 19.246 2.57281C19.311 2.53019 19.3759 2.48756 19.4428 2.44365C19.5428 2.37781 19.5428 2.37781 19.6448 2.31065C22.4925 0.462727 25.4825 0.0204632 28.8253 0.0189051ZM28.0518 7.24114C27.6073 7.8026 27.2628 8.42202 26.92 9.04852C26.8192 9.23066 26.7182 9.41274 26.6172 9.59476C26.5684 9.68277 26.5195 9.77077 26.4692 9.86144C26.286 10.1888 26.0974 10.5128 25.906 10.8354C25.8736 10.89 25.8412 10.9445 25.8079 11.0008C25.7427 11.1107 25.6775 11.2206 25.6123 11.3305C25.4283 11.6422 25.2473 11.9556 25.0661 12.269C25.0284 12.3342 24.9907 12.3994 24.9518 12.4665C24.8379 12.6635 24.7241 12.8605 24.6103 13.0575C24.4652 13.3084 24.3201 13.5593 24.175 13.8102C24.1381 13.8738 24.1013 13.9375 24.0633 14.0031C23.8112 14.4384 23.5577 14.8728 23.3036 15.307C22.8499 16.0828 22.3983 16.8599 21.9509 17.6393C21.868 17.7836 21.7849 17.9277 21.7018 18.0718C21.4491 18.5129 21.202 18.9565 20.9671 19.4073C20.9271 19.484 20.8871 19.5606 20.846 19.6396C20.7333 19.9213 20.7306 20.1466 20.7737 20.4435C20.8677 20.6542 20.9681 20.7271 21.1687 20.84C22.0117 21.0057 22.6876 20.7192 23.3811 20.2665C23.5222 20.1347 23.659 19.998 23.7909 19.8569C23.8612 19.7897 23.9315 19.7224 24.004 19.6531C24.1969 19.4512 24.3335 19.2613 24.4771 19.0224C24.5167 18.9568 24.5167 18.9568 24.557 18.89C24.9747 18.1921 25.3762 17.4845 25.7815 16.7795C26.0668 16.2835 26.3555 15.7896 26.6469 15.2971C26.705 15.199 26.7629 15.1007 26.8206 15.0024C26.8794 14.9025 26.9391 14.8031 26.9993 14.7041C27.1869 14.3945 27.1869 14.3945 27.2324 14.0406C27.2865 14.0406 27.3406 14.0406 27.3963 14.0406C27.4421 13.9569 27.488 13.8733 27.5352 13.7871C27.9793 12.9805 28.437 12.1827 28.9026 11.3884C29.294 10.7199 29.6803 10.0488 30.0645 9.3762C30.0922 9.32784 30.1198 9.27947 30.1483 9.22964C30.2779 9.00285 30.4072 8.77589 30.536 8.54863C30.6231 8.39549 30.711 8.24281 30.8 8.09079C31.0597 7.64163 31.1987 7.27718 31.1656 6.74961C31.08 6.49924 31.08 6.49924 30.9198 6.34001C29.8846 5.99503 28.7981 6.52738 28.0518 7.24114Z" fill="black"/>
<path d="M104.13 12.8828C104.219 12.8824 104.309 12.882 104.401 12.8817C104.498 12.8817 104.596 12.8817 104.696 12.8817C104.8 12.8814 104.904 12.8811 105.011 12.8808C105.3 12.88 105.588 12.8797 105.877 12.8794C106.188 12.8791 106.499 12.8783 106.811 12.8776C107.562 12.876 108.313 12.8752 109.065 12.8744C109.419 12.8741 109.773 12.8737 110.126 12.8732C111.303 12.8718 112.479 12.8706 113.655 12.87C113.96 12.8699 114.265 12.8697 114.571 12.8696C114.646 12.8695 114.722 12.8695 114.8 12.8695C116.03 12.8688 117.259 12.8667 118.488 12.864C119.75 12.8613 121.012 12.8599 122.274 12.8596C122.982 12.8594 123.691 12.8587 124.4 12.8566C125.003 12.8548 125.606 12.8542 126.209 12.855C126.517 12.8553 126.825 12.8552 127.132 12.8536C127.466 12.8519 127.8 12.8527 128.133 12.8538C128.231 12.8529 128.328 12.852 128.428 12.8511C128.965 12.8553 129.306 12.8958 129.741 13.2214C129.856 13.3917 129.856 13.3917 129.91 13.5696C129.929 13.6275 129.949 13.6853 129.969 13.745C130.025 14.4256 129.638 14.9903 129.311 15.5562C129.259 15.6459 129.208 15.7356 129.156 15.828C128.997 16.1067 128.836 16.3845 128.676 16.6621C128.627 16.7455 128.579 16.8289 128.529 16.9149C128.294 17.3195 128.058 17.7235 127.822 18.1271C127.511 18.6563 127.205 19.1874 126.898 19.7188C126.847 19.8086 126.795 19.8985 126.741 19.991C126.641 20.1659 126.54 20.3408 126.439 20.5157C126.006 21.2672 125.572 22.0181 125.133 22.7668C124.616 23.6512 124.103 24.5375 123.595 25.4276C123.142 26.223 122.685 27.0158 122.221 27.8056C121.967 28.2402 121.714 28.6759 121.465 29.1134C121.41 29.2102 121.354 29.3069 121.299 29.4036C121.194 29.5875 121.089 29.7715 120.985 29.9557C120.419 30.9457 119.805 31.8084 118.755 32.3243C118.63 32.3869 118.63 32.3869 118.502 32.4507C118.124 32.6194 117.821 32.647 117.407 32.6474C117.353 32.6476 117.3 32.6478 117.245 32.6479C117.066 32.6484 116.886 32.6484 116.707 32.6483C116.579 32.6485 116.45 32.6488 116.322 32.6492C116.045 32.6498 115.768 32.6502 115.491 32.6505C115.052 32.651 114.614 32.6523 114.176 32.6539C114.025 32.6544 113.875 32.6549 113.725 32.6554C113.65 32.6557 113.574 32.6559 113.497 32.6562C112.476 32.6597 111.456 32.6624 110.435 32.6634C109.746 32.6641 109.058 32.6659 108.369 32.6691C108.005 32.6707 107.641 32.6717 107.277 32.6713C106.934 32.6709 106.591 32.672 106.248 32.6743C106.123 32.6749 105.998 32.6749 105.872 32.6743C104.782 32.6696 103.918 32.8469 103.11 33.6197C102.693 34.0482 102.411 34.5258 102.126 35.0482C102.032 35.2177 101.938 35.3871 101.844 35.5564C101.772 35.6862 101.772 35.6862 101.698 35.8186C101.469 36.2271 101.232 36.6309 100.995 37.0348C100.575 37.7506 100.161 38.4694 99.7501 39.1903C99.2967 39.9858 98.8396 40.779 98.3761 41.5686C98.1228 42.0008 97.8724 42.4344 97.6257 42.8704C97.5712 42.9664 97.5166 43.0624 97.462 43.1583C97.359 43.3399 97.2564 43.5218 97.1546 43.704C96.241 45.309 96.241 45.309 95.5711 45.4982C95.2481 45.4982 95.1215 45.4537 94.8793 45.2383C94.6654 45.0018 94.5128 44.772 94.3538 44.496C94.3257 44.4476 94.2976 44.3993 94.2687 44.3495C94.1781 44.1934 94.0885 44.0369 93.9989 43.8803C93.9359 43.7714 93.8728 43.6626 93.8097 43.5538C93.6862 43.3406 93.5629 43.1273 93.4399 42.9138C93.249 42.583 93.0561 42.2534 92.8619 41.9244C92.8313 41.8725 92.8008 41.8205 92.7693 41.7669C92.567 41.4232 92.3635 41.0803 92.1597 40.7376C92.0489 40.5512 91.9381 40.3649 91.8274 40.1785C91.7997 40.1319 91.772 40.0853 91.7435 40.0372C91.1659 39.0644 90.5999 38.085 90.0371 37.1035C89.9537 36.9597 89.8687 36.8169 89.7823 36.6749C89.5848 36.3404 89.5745 36.0424 89.5689 35.6575C89.5668 35.5711 89.5647 35.4847 89.5625 35.3957C89.6293 34.6471 89.9355 34.0445 90.3115 33.4047C90.3584 33.3234 90.4052 33.2421 90.4535 33.1584C90.6016 32.902 90.7509 32.6464 90.9005 32.3909C90.9945 32.2293 91.0885 32.0677 91.1824 31.9061C91.372 31.5805 91.5621 31.2552 91.7525 30.9301C92.058 30.408 92.3603 29.884 92.6622 29.3598C93.0543 28.6792 93.4485 28 93.8452 27.3221C94.2611 26.6112 94.6716 25.8974 95.0795 25.1819C95.6275 24.2206 96.1826 23.2635 96.7418 22.3086C97.6404 20.774 98.5315 19.2351 99.4191 17.694C99.729 17.1559 100.039 16.6182 100.35 16.0807C100.477 15.8618 100.602 15.6424 100.727 15.4227C101.379 14.281 102.032 13.5079 103.274 12.9757C103.563 12.9056 103.832 12.8833 104.13 12.8828ZM112.861 16.3344C112.638 16.6742 112.442 17.0281 112.246 17.384C112.189 17.4862 112.132 17.5883 112.075 17.6904C111.957 17.9001 111.839 18.11 111.722 18.3201C111.461 18.7873 111.193 19.2505 110.925 19.7137C110.849 19.8445 110.849 19.8445 110.772 19.978C110.38 20.6575 109.984 21.3352 109.588 22.0126C109.242 22.6046 108.901 23.1991 108.562 23.7948C108.25 24.3412 107.934 24.8847 107.617 25.4276C107.128 26.2622 106.647 27.1003 106.168 27.9406C106.065 28.1222 105.96 28.3033 105.856 28.4843C105.81 28.5643 105.81 28.5643 105.763 28.6459C105.682 28.7852 105.602 28.9243 105.521 29.0635C105.306 29.4577 105.257 29.8194 105.322 30.261C105.454 30.4938 105.454 30.4938 105.732 30.5886C106.553 30.7035 107.224 30.5007 107.888 30.0203C108.144 29.8153 108.382 29.605 108.6 29.3598C108.6 29.3058 108.6 29.2517 108.6 29.196C108.654 29.196 108.708 29.196 108.764 29.196C108.795 29.1418 108.826 29.0875 108.858 29.0317C109.425 28.0474 109.993 27.0636 110.566 26.083C111.119 25.137 111.667 24.1883 112.214 23.2389C112.47 22.7942 112.727 22.3496 112.984 21.905C113.086 21.7275 113.189 21.5501 113.291 21.3726C113.906 20.3076 113.906 20.3076 114.059 20.041C114.161 19.8647 114.263 19.6883 114.364 19.5119C114.602 19.0987 114.841 18.686 115.083 18.2751C115.168 18.1299 115.254 17.9846 115.339 17.8392C115.445 17.6572 115.553 17.4754 115.66 17.294C116.151 16.4615 116.151 16.4615 116.292 15.5255C116.221 15.2731 116.187 15.1706 115.975 15.0237C114.819 14.6385 113.579 15.4771 112.861 16.3344Z" fill="black"/>
<path d="M44.735 12.8717C44.8391 12.8714 44.9433 12.871 45.0506 12.8706C45.3387 12.8696 45.6269 12.8696 45.915 12.8698C46.2261 12.8699 46.5373 12.869 46.8484 12.8682C47.4575 12.8668 48.0666 12.8664 48.6758 12.8663C49.1709 12.8662 49.6659 12.8659 50.161 12.8653C51.5649 12.8639 52.9689 12.8631 54.3728 12.8633C54.4862 12.8633 54.4862 12.8633 54.602 12.8633C54.6777 12.8633 54.7535 12.8633 54.8315 12.8633C56.0596 12.8634 57.2877 12.8618 58.5158 12.8595C59.7771 12.8571 61.0383 12.856 62.2996 12.8562C63.0076 12.8562 63.7156 12.8558 64.4236 12.854C65.0262 12.8525 65.6288 12.8521 66.2315 12.8533C66.5389 12.8538 66.8463 12.8538 67.1537 12.8524C67.487 12.8509 67.8203 12.8519 68.1536 12.8531C68.2993 12.8519 68.2993 12.8519 68.4478 12.8506C68.9848 12.8551 69.3261 12.8948 69.7598 13.2213C69.9648 13.4967 70.026 13.7141 70.0107 14.0508C69.8698 14.8929 69.3022 15.6764 68.8738 16.4009C68.7983 16.5289 68.7983 16.5289 68.7214 16.6595C68.6214 16.8289 68.5214 16.9983 68.4212 17.1676C68.3034 17.3678 68.1873 17.5689 68.0723 17.7708C67.4344 18.8824 66.6874 19.7598 65.4503 20.2139C65.0669 20.3162 64.6781 20.3013 64.2837 20.2996C64.1885 20.3002 64.0933 20.3007 63.9952 20.3013C63.6819 20.3028 63.3686 20.3025 63.0553 20.302C62.8922 20.3023 62.729 20.3026 62.5659 20.303C62.0538 20.3041 61.5416 20.304 61.0295 20.3031C60.502 20.3021 59.9745 20.3033 59.4471 20.3055C58.993 20.3073 58.539 20.3078 58.085 20.3073C57.8143 20.3071 57.5437 20.3074 57.273 20.3087C56.9713 20.3099 56.6697 20.309 56.3681 20.3076C56.2789 20.3084 56.1898 20.3092 56.0979 20.31C55.6018 20.3052 55.3039 20.2746 54.9284 19.9388C54.7368 19.6168 54.7276 19.3247 54.7645 18.9558C55.0092 18.2615 55.4199 17.6304 55.7876 16.9969C55.8571 16.8759 55.8571 16.8759 55.928 16.7526C55.9701 16.68 56.0122 16.6075 56.0556 16.5328C56.2913 16.0737 56.2941 15.6 56.1575 15.1055C55.152 14.9469 54.3761 15.1904 53.5354 15.7609C52.9592 16.2382 52.6389 16.9007 52.2912 17.5481C52.0425 18.0101 51.7782 18.4624 51.5124 18.9148C51.1052 19.6097 50.7006 20.3059 50.2987 21.0038C49.9047 21.6877 49.5088 22.3704 49.1105 23.0518C48.5586 23.9961 48.0117 24.9432 47.4656 25.8909C47.248 26.2687 47.0302 26.6464 46.8123 27.0241C46.7094 27.2025 46.6065 27.3809 46.5036 27.5594C46.4563 27.6413 46.4091 27.7233 46.3604 27.8077C46.3144 27.8874 46.2685 27.9671 46.2211 28.0492C46.1209 28.2221 46.0199 28.3945 45.9183 28.5665C45.8665 28.6545 45.8146 28.7424 45.7612 28.833C45.6905 28.9521 45.6905 28.9521 45.6184 29.0737C45.471 29.3392 45.4106 29.5513 45.4078 29.8513C45.4066 29.907 45.4055 29.9628 45.4043 30.0202C45.4142 30.2057 45.4142 30.2057 45.587 30.4247C46.2467 30.6445 46.8609 30.5144 47.4781 30.2282C48.0356 29.9227 48.474 29.5771 48.8106 29.0327C48.8597 28.9533 48.9088 28.874 48.9593 28.7922C49.213 28.3699 49.4601 27.9441 49.7046 27.5165C49.8129 27.328 49.9212 27.1395 50.0295 26.9511C50.0822 26.8592 50.1349 26.7674 50.1892 26.6727C50.3973 26.3101 50.6064 25.9481 50.8159 25.5863C50.8515 25.5247 50.8872 25.4632 50.9239 25.3998C51.2726 24.7982 51.6238 24.1981 51.9786 23.6C52.0513 23.4768 52.1226 23.3527 52.1936 23.2285C52.3349 23.0069 52.5067 22.881 52.7159 22.7241C52.769 22.6676 52.769 22.6676 52.8232 22.6099C53.0055 22.4369 53.2024 22.3164 53.4176 22.1865C53.4971 22.1374 53.5766 22.0883 53.6586 22.0377C54.3074 21.737 54.9872 21.717 55.6922 21.7199C55.8254 21.7195 55.8254 21.7195 55.9614 21.719C56.2525 21.7183 56.5436 21.7188 56.8348 21.7193C57.0382 21.7192 57.2416 21.7191 57.445 21.7189C57.8701 21.7186 58.2952 21.719 58.7203 21.7197C59.265 21.7207 59.8096 21.7201 60.3542 21.7192C60.7738 21.7186 61.1933 21.7187 61.6128 21.7192C61.8137 21.7193 62.0145 21.7191 62.2154 21.7188C62.4958 21.7183 62.7762 21.719 63.0567 21.7199C63.1808 21.7194 63.1808 21.7194 63.3075 21.7189C63.8433 21.7221 64.2491 21.7446 64.6692 22.1097C64.8753 22.3876 64.9089 22.6379 64.8859 22.979C64.7507 23.7303 64.215 24.4502 63.8293 25.0999C63.7278 25.2722 63.6265 25.4445 63.5252 25.617C63.4727 25.7063 63.4202 25.7957 63.3662 25.8877C63.0903 26.3604 62.8198 26.8361 62.5489 27.3117C62.1412 28.0273 61.7305 28.741 61.3147 29.4519C60.5271 30.7984 59.7447 32.1477 58.9794 33.507C58.5744 34.226 58.1615 34.9402 57.7446 35.6524C57.236 36.5213 56.7332 37.3936 56.2305 38.266C55.9232 38.7992 55.6154 39.3323 55.3077 39.8653C55.0493 40.313 54.7911 40.7608 54.5334 41.2088C54.2782 41.6523 54.0222 42.0952 53.7657 42.5379C53.6185 42.7926 53.4724 43.0479 53.3263 43.3032C53.2339 43.4632 53.1414 43.6231 53.0488 43.7829C53.0083 43.8545 52.9677 43.9261 52.9259 43.9998C52.1768 45.2849 52.1768 45.2849 51.4868 45.4981C51.2461 45.5033 51.2461 45.5033 50.9952 45.4162C50.5378 44.9492 50.2378 44.4118 49.9197 43.8444C49.8105 43.652 49.7009 43.4599 49.5913 43.2677C49.5642 43.22 49.537 43.1723 49.5091 43.1231C49.2728 42.708 49.0296 42.2974 48.7828 41.8885C48.7435 41.8234 48.7043 41.7583 48.6639 41.6913C48.5826 41.5566 48.5013 41.422 48.4199 41.2875C47.9942 40.5833 47.5706 39.8779 47.1487 39.1715C47.0572 39.0185 46.9656 38.8656 46.874 38.7127C46.7129 38.4436 46.5525 38.174 46.3926 37.9041C46.3307 37.8 46.2687 37.696 46.2064 37.5922C46.1191 37.4466 46.0327 37.3005 45.9465 37.1544C45.8968 37.0709 45.8471 36.9874 45.7959 36.9014C45.3602 36.0411 45.4594 35.2471 45.7509 34.3569C45.8076 34.241 45.8671 34.1264 45.9302 34.0139C46.0906 33.7167 46.1201 33.4611 46.1302 33.1265C46.0904 32.9467 46.0903 32.9467 45.9047 32.8331C45.6238 32.6965 45.4345 32.6879 45.1227 32.688C45.0689 32.6877 45.0151 32.6874 44.9596 32.6871C44.7799 32.6863 44.6002 32.6873 44.4205 32.6883C44.2914 32.6881 44.1623 32.6877 44.0332 32.6873C43.7555 32.6866 43.4777 32.6867 43.2 32.6873C42.7606 32.6883 42.3212 32.6873 41.8818 32.686C40.7903 32.683 39.6989 32.6825 38.6075 32.6827C37.7593 32.6829 36.9111 32.6823 36.0629 32.6794C35.6264 32.6781 35.1898 32.6782 34.7532 32.6795C34.4813 32.68 34.2094 32.6791 33.9375 32.6779C33.8117 32.6775 33.6858 32.6778 33.56 32.6787C32.3756 32.6862 32.3756 32.6862 31.9028 32.3089C31.6554 31.965 31.6879 31.5669 31.7389 31.162C31.8138 30.9711 31.8138 30.9711 31.9137 30.7805C31.951 30.7093 31.9883 30.6381 32.0268 30.5647C32.2328 30.1895 32.4478 29.8202 32.6659 29.4519C33.0997 28.7141 33.5278 27.9734 33.9513 27.2298C34.4183 26.4103 34.8904 25.5939 35.3667 24.7798C35.6575 24.2829 35.9448 23.7843 36.2294 23.2838C36.5307 22.7565 36.8391 22.2332 37.1463 21.7093C37.3923 21.2888 37.6346 20.8668 37.8699 20.4403C38.0332 20.1464 38.2022 19.8558 38.3711 19.5651C38.4095 19.4988 38.4479 19.4326 38.4875 19.3643C38.7039 18.9914 38.9209 18.6189 39.1383 18.2467C39.1845 18.1675 39.2307 18.0884 39.2783 18.0069C39.3739 17.8433 39.4697 17.6797 39.5655 17.5162C39.7979 17.119 40.0287 16.7212 40.2546 16.3203C40.3353 16.1772 40.4162 16.0342 40.4973 15.8913C40.5991 15.7115 40.7002 15.5313 40.8006 15.3506C41.252 14.5557 41.739 13.7748 42.5654 13.3391C42.6586 13.2883 42.7518 13.2375 42.8478 13.1852C43.4908 12.893 44.0343 12.8699 44.735 12.8717Z" fill="black"/>
<path d="M134.115 12.8827C134.249 12.8822 134.249 12.8822 134.385 12.8817C134.483 12.8818 134.581 12.8819 134.682 12.8819C134.786 12.8817 134.89 12.8814 134.997 12.8812C135.286 12.8805 135.575 12.8804 135.864 12.8803C136.175 12.8802 136.487 12.8796 136.798 12.879C137.479 12.8779 138.16 12.8774 138.841 12.877C139.266 12.8768 139.692 12.8765 140.117 12.8761C141.294 12.8751 142.471 12.8742 143.648 12.874C143.723 12.874 143.798 12.8739 143.876 12.8739C143.989 12.8739 143.989 12.8739 144.105 12.8739C144.258 12.8738 144.411 12.8738 144.564 12.8738C144.64 12.8737 144.716 12.8737 144.794 12.8737C146.024 12.8734 147.254 12.8719 148.485 12.87C149.748 12.8681 151.01 12.8671 152.273 12.867C152.982 12.8669 153.691 12.8664 154.401 12.8649C155.004 12.8637 155.608 12.8633 156.212 12.8639C156.52 12.8643 156.828 12.8642 157.136 12.863C157.47 12.8618 157.804 12.8625 158.138 12.8633C158.235 12.8627 158.333 12.862 158.433 12.8613C158.981 12.8646 159.366 12.9012 159.802 13.2621C160.037 13.5588 160.018 13.9266 159.982 14.2861C159.884 14.5591 159.884 14.5591 159.736 14.8442C159.693 14.9256 159.693 14.9256 159.65 15.0086C159.299 15.6707 158.909 16.3118 158.524 16.9547C158.16 17.5625 157.804 18.174 157.457 18.7917C157.414 18.8685 157.37 18.9452 157.326 19.0242C157.241 19.1744 157.157 19.3247 157.073 19.4749C154.986 23.1769 154.986 23.1769 153.426 23.707C153.074 23.7774 152.741 23.7988 152.382 23.798C152.329 23.798 152.275 23.798 152.22 23.798C152.042 23.7979 151.864 23.7973 151.686 23.7966C151.558 23.7965 151.43 23.7964 151.301 23.7963C151.026 23.7961 150.75 23.7957 150.474 23.7952C150.038 23.7945 149.601 23.795 149.164 23.7957C149.09 23.7958 149.016 23.7959 148.94 23.7961C148.789 23.7963 148.638 23.7966 148.487 23.7968C147.471 23.7986 146.454 23.7997 145.438 23.7971C144.752 23.7953 144.065 23.7956 143.379 23.7982C143.017 23.7995 142.654 23.7997 142.291 23.7975C141.95 23.7955 141.608 23.7961 141.266 23.7987C141.142 23.7992 141.017 23.7988 140.893 23.7972C139.834 23.785 138.877 24.0719 138.094 24.8267C137.758 25.2413 137.509 25.712 137.25 26.1772C137.098 26.4488 136.943 26.7186 136.788 26.9883C136.67 27.1933 136.552 27.3983 136.434 27.6033C136.405 27.653 136.376 27.7026 136.347 27.7538C136.166 28.0695 135.986 28.3863 135.809 28.7042C135.772 28.7687 135.735 28.8333 135.698 28.8998C135.512 29.243 135.443 29.5026 135.461 29.892C135.463 29.9773 135.466 30.0627 135.469 30.1506C135.473 30.2139 135.477 30.2773 135.481 30.3426C135.878 30.5732 136.263 30.555 136.71 30.5064C137.202 30.37 137.607 30.1412 138.021 29.851C138.075 29.851 138.129 29.851 138.185 29.851C138.212 29.7699 138.239 29.6888 138.267 29.6053C138.321 29.6053 138.375 29.6053 138.431 29.6053C138.458 29.5242 138.485 29.4431 138.513 29.3595C138.567 29.3595 138.621 29.3595 138.677 29.3595C138.709 29.293 138.709 29.293 138.742 29.2252C138.93 28.8555 139.14 28.4975 139.347 28.1376C139.428 27.9946 139.509 27.8512 139.59 27.7078C140.455 26.1999 140.455 26.1999 141.053 26.0008C141.053 25.9467 141.053 25.8926 141.053 25.8369C141.225 25.7565 141.398 25.6764 141.57 25.5963C141.666 25.5516 141.762 25.5069 141.861 25.4609C142.181 25.3171 142.414 25.2532 142.761 25.252C142.843 25.2515 142.925 25.251 143.009 25.2506C143.143 25.2504 143.143 25.2504 143.281 25.2503C143.422 25.2497 143.422 25.2497 143.567 25.249C143.88 25.2478 144.193 25.2473 144.507 25.2468C144.669 25.2465 144.832 25.2461 144.994 25.2458C145.446 25.2448 145.899 25.2442 146.351 25.2439C146.936 25.2435 147.521 25.2421 148.106 25.2397C148.559 25.238 149.011 25.2371 149.463 25.237C149.733 25.2369 150.003 25.2363 150.273 25.235C150.575 25.2336 150.876 25.2337 151.177 25.2343C151.267 25.2335 151.356 25.2328 151.448 25.232C151.971 25.2349 152.264 25.2858 152.668 25.6321C152.903 25.914 152.875 26.2259 152.853 26.5742C152.681 27.1121 152.423 27.5679 152.13 28.0488C152.035 28.2079 151.939 28.367 151.843 28.5262C151.794 28.6087 151.744 28.6911 151.693 28.776C151.54 29.0349 151.39 29.2959 151.242 29.5579C151.193 29.6445 151.144 29.7311 151.093 29.8203C150.999 29.9859 150.906 30.1518 150.813 30.3182C150.324 31.1741 149.74 31.8804 148.837 32.3087C148.783 32.3354 148.729 32.3622 148.673 32.3897C148.092 32.6518 147.583 32.6825 146.952 32.6774C146.847 32.6779 146.742 32.6783 146.634 32.6788C146.345 32.68 146.056 32.6792 145.768 32.678C145.455 32.6771 145.143 32.6781 144.831 32.6788C144.22 32.6799 143.609 32.6793 142.998 32.6781C142.287 32.6767 141.575 32.677 140.864 32.6773C139.594 32.6778 138.325 32.6766 137.056 32.6746C135.824 32.6726 134.593 32.672 133.361 32.6729C132.019 32.6738 130.677 32.674 129.336 32.6728C129.193 32.6727 129.049 32.6726 128.906 32.6724C128.836 32.6724 128.766 32.6723 128.693 32.6722C128.197 32.6719 127.701 32.672 127.205 32.6723C126.601 32.6728 125.997 32.6723 125.393 32.6706C125.085 32.6698 124.776 32.6694 124.468 32.6701C124.134 32.6707 123.801 32.6695 123.467 32.6681C123.369 32.6686 123.271 32.6691 123.17 32.6696C123.081 32.6689 122.992 32.6682 122.9 32.6675C122.823 32.6674 122.746 32.6673 122.666 32.6673C122.308 32.6155 122.027 32.4206 121.797 32.1448C121.592 31.5303 121.786 31.0662 122.043 30.5064C122.205 30.1999 122.381 29.9027 122.56 29.6053C122.662 29.432 122.765 29.2586 122.867 29.0853C122.947 28.9514 122.947 28.9514 123.028 28.8148C123.297 28.3584 123.561 27.8989 123.825 27.4395C124.172 26.8369 124.521 26.2356 124.875 25.6372C125.084 25.2836 125.289 24.9291 125.484 24.5672C125.711 24.1454 125.953 23.7338 126.197 23.3217C126.517 22.7816 126.83 22.2385 127.143 21.6948C127.591 20.918 128.041 20.1428 128.494 19.3689C128.898 18.6763 129.299 17.9814 129.699 17.2861C130.092 16.6037 130.492 15.9252 130.897 15.2497C130.959 15.1454 130.959 15.1454 131.022 15.0391C131.059 14.9784 131.095 14.9177 131.132 14.8552C131.231 14.6866 131.231 14.6866 131.302 14.4499C131.356 14.4499 131.41 14.4499 131.466 14.4499C131.497 14.3573 131.497 14.3573 131.528 14.2627C131.831 13.5998 132.716 13.2488 133.351 12.9754C133.61 12.8956 133.844 12.883 134.115 12.8827ZM143.02 16.1703C142.799 16.4754 142.612 16.7961 142.426 17.1226C142.373 17.2123 142.321 17.302 142.267 17.3944C142.107 17.6684 141.949 17.9433 141.79 18.2183C141.695 18.382 141.6 18.5456 141.504 18.7092C141.417 18.8595 141.33 19.0099 141.243 19.1604C141.203 19.2282 141.164 19.2961 141.123 19.366C140.533 20.3281 140.533 20.3281 140.479 21.4132C140.655 21.6518 140.758 21.7303 141.05 21.793C142.054 21.808 142.788 21.4796 143.508 20.8001C143.939 20.3565 144.232 19.8756 144.525 19.3345C144.63 19.1465 144.735 18.9587 144.841 18.7709C144.892 18.6782 144.944 18.5855 144.997 18.4899C145.264 18.0166 145.548 17.5535 145.832 17.0903C146.188 16.5054 146.388 16.0491 146.297 15.3511C146.165 15.1146 146.07 15.0524 145.812 14.9779C144.765 14.7963 143.718 15.4372 143.02 16.1703Z" fill="black"/>
<path d="M74.1329 12.8827C74.2221 12.8824 74.3113 12.882 74.4031 12.8817C74.5011 12.8818 74.599 12.8819 74.6999 12.8819C74.8039 12.8817 74.908 12.8814 75.0152 12.8812C75.3042 12.8805 75.5932 12.8804 75.8823 12.8803C76.1939 12.8802 76.5055 12.8796 76.8172 12.879C77.4986 12.8779 78.18 12.8774 78.8614 12.877C79.2868 12.8768 79.7121 12.8765 80.1375 12.8761C81.3148 12.8751 82.4921 12.8742 83.6695 12.874C83.7825 12.8739 83.7825 12.8739 83.8978 12.8739C83.9733 12.8739 84.0489 12.8739 84.1267 12.8739C84.2797 12.8738 84.4328 12.8738 84.5858 12.8738C84.6618 12.8737 84.7377 12.8737 84.8159 12.8737C86.0468 12.8734 87.2776 12.8719 88.5085 12.87C89.7718 12.8681 91.0351 12.8671 92.2984 12.867C93.0078 12.8669 93.7173 12.8664 94.4268 12.8649C95.0307 12.8637 95.6347 12.8633 96.2386 12.8639C96.5469 12.8643 96.8551 12.8642 97.1633 12.863C97.4972 12.8618 97.8311 12.8625 98.1651 12.8633C98.2628 12.8627 98.3605 12.862 98.4612 12.8613C98.5506 12.8619 98.64 12.8624 98.7321 12.863C98.8092 12.8629 98.8863 12.8629 98.9657 12.8628C99.3077 12.9118 99.5254 13.0822 99.7788 13.3082C99.9862 13.6692 99.9902 13.9615 99.9171 14.368C99.7887 14.7168 99.6116 15.03 99.4254 15.3511C99.3839 15.423 99.3839 15.423 99.3415 15.4964C99.1794 15.7764 99.0148 16.0549 98.8493 16.3328C98.5604 16.8187 98.2786 17.3086 97.9965 17.7984C97.8901 17.9832 97.7836 18.1679 97.6771 18.3527C97.6259 18.4416 97.5747 18.5304 97.5219 18.622C97.322 18.9689 97.1217 19.3156 96.9211 19.6621C96.8677 19.7543 96.8677 19.7543 96.8133 19.8484C96.6133 20.1935 96.4125 20.5381 96.2111 20.8823C95.6937 21.7667 95.1802 22.653 94.6728 23.5431C94.2188 24.3395 93.7605 25.1331 93.2975 25.9243C92.9499 26.5187 92.6047 27.1144 92.2606 27.7109C92.21 27.7984 92.1593 27.886 92.1071 27.9762C91.8682 28.3894 91.6306 28.8032 91.3976 29.2197C91.3165 29.3644 91.2351 29.5089 91.1534 29.6533C91.0518 29.8334 90.951 30.0139 90.8512 30.195C90.224 31.3017 89.4221 32.1335 88.2117 32.5652C87.7696 32.6871 87.3371 32.6811 86.881 32.6774C86.7766 32.6779 86.6721 32.6783 86.5644 32.6788C86.2768 32.68 85.9893 32.6792 85.7017 32.678C85.3906 32.6771 85.0796 32.6781 84.7685 32.6788C84.1602 32.6799 83.5519 32.6793 82.9437 32.6781C82.235 32.6767 81.5263 32.677 80.8177 32.6773C79.5533 32.6778 78.289 32.6766 77.0247 32.6746C75.7982 32.6726 74.5717 32.672 73.3452 32.6729C72.0086 32.6738 70.672 32.674 69.3353 32.6728C69.1929 32.6727 69.0504 32.6726 68.9079 32.6724C68.8378 32.6724 68.7677 32.6723 68.6954 32.6722C68.2015 32.6719 67.7076 32.672 67.2137 32.6723C66.6121 32.6728 66.0104 32.6723 65.4088 32.6706C65.1019 32.6698 64.795 32.6694 64.4881 32.6701C64.1555 32.6707 63.8229 32.6695 63.4903 32.6681C63.3446 32.6688 63.3446 32.6688 63.196 32.6696C62.3703 32.6632 62.3704 32.6632 61.9781 32.3906C61.7556 32.133 61.6603 31.9648 61.6094 31.6277C61.7093 30.8912 62.1666 30.2409 62.5363 29.6104C62.6189 29.4686 62.7014 29.3268 62.7839 29.185C62.869 29.0389 62.9542 28.8928 63.0394 28.7467C63.199 28.4728 63.3573 28.1982 63.5152 27.9233C63.9373 27.1885 64.3603 26.4543 64.7936 25.7259C64.8233 25.6759 64.853 25.6259 64.8836 25.5744C65.027 25.3335 65.1708 25.0928 65.315 24.8523C65.5874 24.396 65.8459 23.9407 66.0752 23.4612C66.1293 23.4612 66.1834 23.4612 66.2391 23.4612C66.2543 23.4038 66.2695 23.3463 66.2852 23.2871C66.6014 22.6549 67.3495 22.2886 67.9598 21.9866C68.3515 21.857 68.6901 21.8022 69.102 21.8016C69.1562 21.8013 69.2104 21.801 69.2663 21.8007C69.4464 21.7999 69.6266 21.8003 69.8067 21.8006C69.9365 21.8002 70.0663 21.7998 70.1961 21.7993C70.4749 21.7983 70.7537 21.7979 71.0324 21.7978C71.4736 21.7977 71.9147 21.7962 72.3559 21.7945C73.4515 21.7905 74.5472 21.7879 75.6428 21.7862C76.4947 21.7848 77.3465 21.783 78.1983 21.7794C78.6365 21.7776 79.0747 21.7769 79.5129 21.7771C79.7859 21.777 80.0589 21.7758 80.3319 21.7744C80.4581 21.7739 80.5842 21.7739 80.7104 21.7743C81.8145 21.7775 82.704 21.5664 83.5239 20.7665C83.9097 20.2985 84.1899 19.7569 84.48 19.2269C84.6425 18.9311 84.8128 18.6408 84.9865 18.3514C85.9607 16.9098 85.9607 16.9098 86.1509 15.2691C85.9149 15.0332 85.736 15.0312 85.4083 14.9978C84.4432 15.0743 83.589 15.6012 82.9686 16.3277C82.6831 16.7336 82.4574 17.1708 82.2233 17.6077C81.5219 18.9124 80.7105 19.8674 79.2678 20.3482C79.1358 20.3562 79.0035 20.3596 78.8713 20.3603C78.7897 20.3609 78.708 20.3615 78.6238 20.3621C78.5343 20.3623 78.4448 20.3625 78.3526 20.3627C78.2582 20.3633 78.1639 20.3638 78.0666 20.3644C77.7538 20.366 77.4409 20.3669 77.128 20.3677C77.0213 20.3681 76.9145 20.3684 76.8046 20.3688C76.298 20.3703 75.7915 20.3715 75.2849 20.3722C74.7006 20.373 74.1164 20.3751 73.5321 20.3784C73.0802 20.3809 72.6283 20.3821 72.1763 20.3824C71.9066 20.3826 71.6368 20.3835 71.3671 20.3854C71.0659 20.3874 70.7649 20.3873 70.4638 20.3867C70.3747 20.3878 70.2857 20.3888 70.194 20.3899C69.6973 20.3865 69.3998 20.3583 69.0251 20.0205C68.8051 19.6769 68.7531 19.4607 68.8151 19.058C68.8956 18.747 69.0079 18.4872 69.165 18.2074C69.2089 18.1287 69.2528 18.0501 69.298 17.969C69.3657 17.8491 69.3657 17.8491 69.4348 17.7268C69.4975 17.6145 69.4975 17.6145 69.5615 17.4999C69.8278 17.024 70.0972 16.5499 70.3671 16.0761C70.4515 15.9279 70.5356 15.7796 70.6195 15.6312C71.4478 14.1676 71.4478 14.1676 71.893 13.7946C71.9471 13.7946 72.0012 13.7946 72.0569 13.7946C72.0569 13.7405 72.0569 13.6864 72.0569 13.6307C72.2684 13.5228 72.4801 13.4153 72.692 13.3082C72.7518 13.2776 72.8115 13.247 72.8731 13.2155C72.9312 13.1862 72.9893 13.1569 73.0492 13.1267C73.1024 13.0997 73.1556 13.0727 73.2104 13.0448C73.5194 12.9086 73.7968 12.8831 74.1329 12.8827ZM77.9794 24.9323C77.6166 25.3945 77.3219 25.8751 77.04 26.3899C76.9479 26.5558 76.8557 26.7217 76.7634 26.8875C76.7171 26.9712 76.6707 27.0548 76.6229 27.1411C76.4841 27.3892 76.3428 27.6355 76.2001 27.8814C76.1553 27.9587 76.1106 28.036 76.0644 28.1156C75.9794 28.2621 75.8941 28.4084 75.8084 28.5545C75.4962 29.0946 75.2872 29.5392 75.3346 30.1787C75.3873 30.3566 75.3873 30.3566 75.4985 30.5064C76.008 30.7279 76.5455 30.7019 77.0554 30.5064C77.3636 30.3551 77.6615 30.1903 77.9567 30.0149C77.9567 29.9608 77.9567 29.9067 77.9567 29.851C78.0023 29.8325 78.048 29.8139 78.095 29.7947C78.5525 29.5351 78.8078 29.1262 79.0629 28.6837C79.0928 28.6331 79.1227 28.5825 79.1535 28.5304C79.3142 28.2571 79.4696 27.9811 79.6228 27.7035C79.9334 27.142 80.2615 26.5904 80.5864 26.0371C80.6357 25.9528 80.6851 25.8684 80.736 25.7816C80.7806 25.7056 80.8252 25.6296 80.8711 25.5514C81.0723 25.1985 81.1764 24.9741 81.178 24.562C81.1801 24.4453 81.1801 24.4453 81.1822 24.3262C81.1693 24.1148 81.1693 24.1148 81.0433 23.971C80.0866 23.2699 78.6251 24.199 77.9794 24.9323Z" fill="black"/>
</g>
<path d="M6.73391 51.424H18.6139V54.088H10.4779V57.664H17.8219V60.328H10.4779V64.336H18.8539V67H6.73391V51.424ZM24.8383 55.384H28.2943V56.8C28.5663 55.696 29.8063 55.144 32.0143 55.144C33.5023 55.144 34.5423 55.416 35.1343 55.96C35.7423 56.488 36.0463 57.328 36.0463 58.48V67H32.5423V58.936C32.5423 58.488 32.4943 58.152 32.3983 57.928C32.3183 57.704 32.1423 57.544 31.8703 57.448C31.6143 57.352 31.2143 57.304 30.6703 57.304C29.9823 57.304 29.4783 57.352 29.1583 57.448C28.8383 57.528 28.6223 57.68 28.5103 57.904C28.3983 58.128 28.3423 58.472 28.3423 58.936V67H24.8383V55.384ZM47.4158 72.28C45.5278 72.28 44.1278 72.224 43.2158 72.112V69.76C44.7198 69.968 46.1198 70.072 47.4158 70.072C48.5998 70.072 49.4478 69.88 49.9598 69.496C50.4718 69.112 50.7278 68.472 50.7278 67.576V65.704C50.4398 66.12 50.1598 66.44 49.8878 66.664C49.6158 66.872 49.2558 67.016 48.8078 67.096C48.3758 67.192 47.7758 67.24 47.0078 67.24C45.8718 67.24 44.9678 67.136 44.2958 66.928C43.6238 66.704 43.1358 66.344 42.8318 65.848C42.5278 65.336 42.3758 64.632 42.3758 63.736V59.2C42.3758 58.128 42.5118 57.304 42.7838 56.728C43.0718 56.152 43.5518 55.744 44.2238 55.504C44.9118 55.264 45.8958 55.144 47.1758 55.144C48.0078 55.144 48.6478 55.192 49.0958 55.288C49.5278 55.384 49.8558 55.528 50.0798 55.72C50.3038 55.912 50.5598 56.24 50.8478 56.704V55.384H54.2318V67.624C54.2318 69.272 53.6638 70.456 52.5278 71.176C51.4078 71.912 49.7038 72.28 47.4158 72.28ZM48.2558 65.056C48.9438 65.056 49.4558 65.008 49.7918 64.912C50.1438 64.816 50.3838 64.664 50.5118 64.456C50.6558 64.232 50.7278 63.92 50.7278 63.52V58.84C50.7278 58.408 50.6638 58.088 50.5358 57.88C50.4078 57.656 50.1598 57.504 49.7918 57.424C49.4238 57.344 48.8478 57.304 48.0638 57.304C47.4238 57.304 46.9518 57.352 46.6478 57.448C46.3438 57.544 46.1358 57.712 46.0238 57.952C45.9278 58.176 45.8798 58.512 45.8798 58.96V63.4C45.8798 63.896 45.9278 64.256 46.0238 64.48C46.1358 64.688 46.3518 64.84 46.6718 64.936C46.9918 65.016 47.5198 65.056 48.2558 65.056ZM61.0093 51.184H64.5133V54.016H61.0093V51.184ZM61.0093 55.384H64.5133V67H61.0093V55.384ZM71.2868 55.384H74.7428V56.8C75.0148 55.696 76.2548 55.144 78.4628 55.144C79.9508 55.144 80.9908 55.416 81.5828 55.96C82.1908 56.488 82.4948 57.328 82.4948 58.48V67H78.9908V58.936C78.9908 58.488 78.9428 58.152 78.8468 57.928C78.7668 57.704 78.5908 57.544 78.3188 57.448C78.0628 57.352 77.6628 57.304 77.1188 57.304C76.4308 57.304 75.9268 57.352 75.6068 57.448C75.2868 57.528 75.0708 57.68 74.9588 57.904C74.8468 58.128 74.7908 58.472 74.7908 58.936V67H71.2868V55.384ZM94.9922 67.24C90.8802 67.24 88.8242 65.984 88.8242 63.472V59.296C88.8242 57.84 89.2882 56.784 90.2162 56.128C91.1602 55.472 92.6082 55.144 94.5602 55.144C96.4002 55.144 97.7442 55.464 98.5922 56.104C99.4562 56.728 99.8882 57.792 99.8882 59.296V62.128H92.3522V63.184C92.3522 63.856 92.5922 64.336 93.0722 64.624C93.5522 64.912 94.4162 65.056 95.6642 65.056C96.8162 65.056 98.1122 64.888 99.5522 64.552V66.784C98.1282 67.088 96.6082 67.24 94.9922 67.24ZM96.5522 60.136V58.456C96.5522 58.072 96.3922 57.784 96.0722 57.592C95.7682 57.4 95.2482 57.304 94.5122 57.304C93.6642 57.304 93.0962 57.4 92.8082 57.592C92.5042 57.8 92.3522 58.088 92.3522 58.456V60.136H96.5522ZM115.154 63.448C115.154 62.584 115.394 61.832 115.874 61.192C116.354 60.552 116.978 60.064 117.746 59.728C118.354 59.456 119.066 59.184 119.882 58.912C120.698 58.64 121.33 58.352 121.778 58.048C122.226 57.744 122.45 57.384 122.45 56.968V54.976C122.45 54.48 122.25 54.152 121.85 53.992C121.418 53.816 120.746 53.728 119.834 53.728C118.73 53.728 117.274 53.928 115.466 54.328V51.688C117.066 51.352 118.738 51.184 120.482 51.184C122.37 51.184 123.77 51.472 124.682 52.048C125.61 52.624 126.074 53.584 126.074 54.928V57.088C126.074 57.904 125.826 58.616 125.33 59.224C124.85 59.816 124.226 60.264 123.458 60.568C122.738 60.872 122.002 61.144 121.25 61.384C120.434 61.672 119.786 61.992 119.306 62.344C118.842 62.696 118.61 63.112 118.61 63.592V64.384H126.098V67H115.154V63.448ZM132.484 63.688H136.228V67H132.484V63.688ZM147.96 67.24C147.256 67.24 146.68 67.216 146.232 67.168C145.784 67.12 145.296 67.024 144.768 66.88C144.224 66.72 143.784 66.496 143.448 66.208C143.112 65.904 142.832 65.472 142.608 64.912C142.368 64.368 142.248 63.712 142.248 62.944V55.48C142.248 54.744 142.36 54.096 142.584 53.536C142.808 52.976 143.096 52.536 143.448 52.216C143.752 51.944 144.168 51.728 144.696 51.568C145.224 51.392 145.752 51.28 146.28 51.232C146.888 51.2 147.448 51.184 147.96 51.184C148.68 51.184 149.256 51.208 149.688 51.256C150.12 51.288 150.6 51.384 151.128 51.544C151.704 51.72 152.16 51.952 152.496 52.24C152.832 52.528 153.12 52.944 153.36 53.488C153.6 54.032 153.72 54.696 153.72 55.48V62.944C153.72 63.68 153.6 64.328 153.36 64.888C153.136 65.448 152.848 65.88 152.496 66.184C152.176 66.456 151.736 66.68 151.176 66.856C150.632 67.032 150.112 67.136 149.616 67.168C149.168 67.216 148.616 67.24 147.96 67.24ZM148.008 64.984C148.68 64.984 149.16 64.944 149.448 64.864C149.736 64.768 149.928 64.6 150.024 64.36C150.12 64.12 150.168 63.728 150.168 63.184V55.24C150.168 54.696 150.12 54.304 150.024 54.064C149.928 53.824 149.736 53.664 149.448 53.584C149.16 53.488 148.68 53.44 148.008 53.44C147.32 53.44 146.824 53.488 146.52 53.584C146.232 53.664 146.04 53.824 145.944 54.064C145.848 54.304 145.8 54.696 145.8 55.24V63.184C145.8 63.728 145.848 64.12 145.944 64.36C146.04 64.6 146.232 64.768 146.52 64.864C146.824 64.944 147.32 64.984 148.008 64.984Z" fill="black"/>
<defs>
<filter id="filter0_i_882_10275" x="0" y="0" width="160" height="49.5" filterUnits="userSpaceOnUse" color-interpolation-filters="sRGB">
<feFlood flood-opacity="0" result="BackgroundImageFix"/>
<feBlend mode="normal" in="SourceGraphic" in2="BackgroundImageFix" result="shape"/>
<feColorMatrix in="SourceAlpha" type="matrix" values="0 0 0 0 0 0 0 0 0 0 0 0 0 0 0 0 0 0 127 0" result="hardAlpha"/>
<feOffset dy="4"/>
<feGaussianBlur stdDeviation="2"/>
<feComposite in2="hardAlpha" operator="arithmetic" k2="-1" k3="1"/>
<feColorMatrix type="matrix" values="0 0 0 0 0 0 0 0 0 0 0 0 0 0 0 0 0 0 0.1 0"/>
<feBlend mode="normal" in2="shape" result="effect1_innerShadow_882_10275"/>
</filter>
</defs>
</svg>
