<svg width="290" height="83" viewBox="0 0 290 83" fill="none" xmlns="http://www.w3.org/2000/svg">
<path d="M0 40C0 23.4315 13.4315 10 30 10H260C276.569 10 290 23.4315 290 40C290 56.5685 276.569 70 260 70H30C13.4315 70 0 56.5685 0 40Z" fill="#D9D9D9"/>
<path d="M60.4141 51L56.2891 37.5586H56.1836C56.1992 37.8789 56.2227 38.3633 56.2539 39.0117C56.293 39.6523 56.3281 40.3359 56.3594 41.0625C56.3906 41.7891 56.4062 42.4453 56.4062 43.0312V51H53.1602V33.8672H58.1055L62.1602 46.9688H62.2305L66.5312 33.8672H71.4766V51H68.0898V42.8906C68.0898 42.3516 68.0977 41.7305 68.1133 41.0273C68.1367 40.3242 68.1641 39.6562 68.1953 39.0234C68.2266 38.3828 68.25 37.9023 68.2656 37.582H68.1602L63.7422 51H60.4141ZM87.4258 44.4258C87.4258 45.5195 87.2773 46.4883 86.9805 47.332C86.6914 48.1758 86.2656 48.8906 85.7031 49.4766C85.1484 50.0547 84.4766 50.4922 83.6875 50.7891C82.9062 51.0859 82.0234 51.2344 81.0391 51.2344C80.1172 51.2344 79.2695 51.0859 78.4961 50.7891C77.7305 50.4922 77.0625 50.0547 76.4922 49.4766C75.9297 48.8906 75.4922 48.1758 75.1797 47.332C74.875 46.4883 74.7227 45.5195 74.7227 44.4258C74.7227 42.9727 74.9805 41.7422 75.4961 40.7344C76.0117 39.7266 76.7461 38.9609 77.6992 38.4375C78.6523 37.9141 79.7891 37.6523 81.1094 37.6523C82.3359 37.6523 83.4219 37.9141 84.3672 38.4375C85.3203 38.9609 86.0664 39.7266 86.6055 40.7344C87.1523 41.7422 87.4258 42.9727 87.4258 44.4258ZM78.3672 44.4258C78.3672 45.2852 78.4609 46.0078 78.6484 46.5938C78.8359 47.1797 79.1289 47.6211 79.5273 47.918C79.9258 48.2148 80.4453 48.3633 81.0859 48.3633C81.7188 48.3633 82.2305 48.2148 82.6211 47.918C83.0195 47.6211 83.3086 47.1797 83.4883 46.5938C83.6758 46.0078 83.7695 45.2852 83.7695 44.4258C83.7695 43.5586 83.6758 42.8398 83.4883 42.2695C83.3086 41.6914 83.0195 41.2578 82.6211 40.9688C82.2227 40.6797 81.7031 40.5352 81.0625 40.5352C80.1172 40.5352 79.4297 40.8594 79 41.5078C78.5781 42.1562 78.3672 43.1289 78.3672 44.4258ZM94.5273 51.2344C93.0664 51.2344 91.875 50.6641 90.9531 49.5234C90.0391 48.375 89.582 46.6914 89.582 44.4727C89.582 42.2305 90.0469 40.5352 90.9766 39.3867C91.9062 38.2305 93.1211 37.6523 94.6211 37.6523C95.2461 37.6523 95.7969 37.7383 96.2734 37.9102C96.75 38.082 97.1602 38.3125 97.5039 38.6016C97.8555 38.8906 98.1523 39.2148 98.3945 39.5742H98.5117C98.4648 39.3242 98.4062 38.957 98.3359 38.4727C98.2734 37.9805 98.2422 37.4766 98.2422 36.9609V32.7656H101.828V51H99.0859L98.3945 49.3008H98.2422C98.0156 49.6602 97.7305 49.9883 97.3867 50.2852C97.0508 50.5742 96.6484 50.8047 96.1797 50.9766C95.7109 51.1484 95.1602 51.2344 94.5273 51.2344ZM95.7812 48.3867C96.7578 48.3867 97.4453 48.0977 97.8438 47.5195C98.25 46.9336 98.4648 46.0547 98.4883 44.8828V44.4961C98.4883 43.2227 98.293 42.25 97.9023 41.5781C97.5117 40.8984 96.7852 40.5586 95.7227 40.5586C94.9336 40.5586 94.3164 40.8984 93.8711 41.5781C93.4258 42.2578 93.2031 43.2383 93.2031 44.5195C93.2031 45.8008 93.4258 46.7656 93.8711 47.4141C94.3242 48.0625 94.9609 48.3867 95.7812 48.3867ZM117.59 37.8984V51H114.848L114.367 49.3242H114.18C113.898 49.7695 113.547 50.1328 113.125 50.4141C112.703 50.6953 112.238 50.9023 111.73 51.0352C111.223 51.168 110.695 51.2344 110.148 51.2344C109.211 51.2344 108.395 51.0703 107.699 50.7422C107.004 50.4062 106.461 49.8867 106.07 49.1836C105.688 48.4805 105.496 47.5664 105.496 46.4414V37.8984H109.07V45.5508C109.07 46.4883 109.238 47.1953 109.574 47.6719C109.91 48.1484 110.445 48.3867 111.18 48.3867C111.906 48.3867 112.477 48.2227 112.891 47.8945C113.305 47.5586 113.594 47.0703 113.758 46.4297C113.93 45.7812 114.016 44.9922 114.016 44.0625V37.8984H117.59ZM124.914 51H121.34V32.7656H124.914V51ZM134.043 37.6289C135.801 37.6289 137.148 38.0117 138.086 38.7773C139.023 39.543 139.492 40.707 139.492 42.2695V51H136.996L136.305 49.2188H136.211C135.836 49.6875 135.453 50.0703 135.062 50.3672C134.672 50.6641 134.223 50.8828 133.715 51.0234C133.207 51.1641 132.59 51.2344 131.863 51.2344C131.09 51.2344 130.395 51.0859 129.777 50.7891C129.168 50.4922 128.688 50.0391 128.336 49.4297C127.984 48.8125 127.809 48.0312 127.809 47.0859C127.809 45.6953 128.297 44.6719 129.273 44.0156C130.25 43.3516 131.715 42.9844 133.668 42.9141L135.941 42.8438V42.2695C135.941 41.582 135.762 41.0781 135.402 40.7578C135.043 40.4375 134.543 40.2773 133.902 40.2773C133.27 40.2773 132.648 40.3672 132.039 40.5469C131.43 40.7266 130.82 40.9531 130.211 41.2266L129.027 38.8125C129.723 38.4453 130.5 38.1562 131.359 37.9453C132.227 37.7344 133.121 37.6289 134.043 37.6289ZM135.941 44.9297L134.559 44.9766C133.402 45.0078 132.598 45.2148 132.145 45.5977C131.699 45.9805 131.477 46.4844 131.477 47.1094C131.477 47.6562 131.637 48.0469 131.957 48.2812C132.277 48.5078 132.695 48.6211 133.211 48.6211C133.977 48.6211 134.621 48.3945 135.145 47.9414C135.676 47.4883 135.941 46.8438 135.941 46.0078V44.9297ZM150.496 37.6523C150.676 37.6523 150.883 37.6641 151.117 37.6875C151.359 37.7031 151.555 37.7266 151.703 37.7578L151.434 41.1094C151.316 41.0703 151.148 41.043 150.93 41.0273C150.719 41.0039 150.535 40.9922 150.379 40.9922C149.918 40.9922 149.469 41.0508 149.031 41.168C148.602 41.2852 148.215 41.4766 147.871 41.7422C147.527 42 147.254 42.3438 147.051 42.7734C146.855 43.1953 146.758 43.7148 146.758 44.332V51H143.184V37.8984H145.891L146.418 40.1016H146.594C146.852 39.6562 147.172 39.25 147.555 38.8828C147.945 38.5078 148.387 38.2109 148.879 37.9922C149.379 37.7656 149.918 37.6523 150.496 37.6523ZM174.812 42.2695C174.812 44.1992 174.441 45.8125 173.699 47.1094C172.965 48.3984 171.898 49.3711 170.5 50.0273C169.102 50.6758 167.418 51 165.449 51H160.598V33.8672H165.977C167.773 33.8672 169.332 34.1875 170.652 34.8281C171.973 35.4609 172.996 36.4023 173.723 37.6523C174.449 38.8945 174.812 40.4336 174.812 42.2695ZM171.039 42.3633C171.039 41.0977 170.852 40.0586 170.477 39.2461C170.109 38.4258 169.562 37.8203 168.836 37.4297C168.117 37.0391 167.227 36.8438 166.164 36.8438H164.23V48H165.789C167.562 48 168.879 47.5273 169.738 46.582C170.605 45.6367 171.039 44.2305 171.039 42.3633ZM183.484 37.6523C184.695 37.6523 185.738 37.8867 186.613 38.3555C187.488 38.8164 188.164 39.4883 188.641 40.3711C189.117 41.2539 189.355 42.332 189.355 43.6055V45.3398H180.906C180.945 46.3477 181.246 47.1406 181.809 47.7188C182.379 48.2891 183.168 48.5742 184.176 48.5742C185.012 48.5742 185.777 48.4883 186.473 48.3164C187.168 48.1445 187.883 47.8867 188.617 47.543V50.3086C187.969 50.6289 187.289 50.8633 186.578 51.0117C185.875 51.1602 185.02 51.2344 184.012 51.2344C182.699 51.2344 181.535 50.9922 180.52 50.5078C179.512 50.0234 178.719 49.2852 178.141 48.293C177.57 47.3008 177.285 46.0508 177.285 44.543C177.285 43.0117 177.543 41.7383 178.059 40.7227C178.582 39.6992 179.309 38.9336 180.238 38.4258C181.168 37.9102 182.25 37.6523 183.484 37.6523ZM183.508 40.1953C182.812 40.1953 182.234 40.418 181.773 40.8633C181.32 41.3086 181.059 42.0078 180.988 42.9609H186.004C185.996 42.4297 185.898 41.957 185.711 41.543C185.531 41.1289 185.258 40.8008 184.891 40.5586C184.531 40.3164 184.07 40.1953 183.508 40.1953ZM201.402 47.1094C201.402 48 201.191 48.7539 200.77 49.3711C200.355 49.9805 199.734 50.4453 198.906 50.7656C198.078 51.0781 197.047 51.2344 195.812 51.2344C194.898 51.2344 194.113 51.1758 193.457 51.0586C192.809 50.9414 192.152 50.7461 191.488 50.4727V47.5195C192.199 47.8398 192.961 48.1055 193.773 48.3164C194.594 48.5195 195.312 48.6211 195.93 48.6211C196.625 48.6211 197.121 48.5195 197.418 48.3164C197.723 48.1055 197.875 47.832 197.875 47.4961C197.875 47.2773 197.812 47.082 197.688 46.9102C197.57 46.7305 197.312 46.5312 196.914 46.3125C196.516 46.0859 195.891 45.793 195.039 45.4336C194.219 45.0898 193.543 44.7422 193.012 44.3906C192.488 44.0391 192.098 43.625 191.84 43.1484C191.59 42.6641 191.465 42.0508 191.465 41.3086C191.465 40.0977 191.934 39.1875 192.871 38.5781C193.816 37.9609 195.078 37.6523 196.656 37.6523C197.469 37.6523 198.242 37.7344 198.977 37.8984C199.719 38.0625 200.48 38.3242 201.262 38.6836L200.184 41.2617C199.535 40.9805 198.922 40.75 198.344 40.5703C197.773 40.3906 197.191 40.3008 196.598 40.3008C196.074 40.3008 195.68 40.3711 195.414 40.5117C195.148 40.6523 195.016 40.8672 195.016 41.1562C195.016 41.3672 195.082 41.5547 195.215 41.7188C195.355 41.8828 195.621 42.0664 196.012 42.2695C196.41 42.4648 196.992 42.7188 197.758 43.0312C198.5 43.3359 199.145 43.6562 199.691 43.9922C200.238 44.3203 200.66 44.7305 200.957 45.2227C201.254 45.707 201.402 46.3359 201.402 47.1094ZM207.766 37.8984V51H204.191V37.8984H207.766ZM205.984 32.7656C206.516 32.7656 206.973 32.8906 207.355 33.1406C207.738 33.3828 207.93 33.8398 207.93 34.5117C207.93 35.1758 207.738 35.6367 207.355 35.8945C206.973 36.1445 206.516 36.2695 205.984 36.2695C205.445 36.2695 204.984 36.1445 204.602 35.8945C204.227 35.6367 204.039 35.1758 204.039 34.5117C204.039 33.8398 204.227 33.3828 204.602 33.1406C204.984 32.8906 205.445 32.7656 205.984 32.7656ZM215.359 56.7656C213.531 56.7656 212.133 56.4453 211.164 55.8047C210.203 55.1719 209.723 54.2812 209.723 53.1328C209.723 52.3438 209.969 51.6836 210.461 51.1523C210.953 50.6211 211.676 50.2422 212.629 50.0156C212.262 49.8594 211.941 49.6055 211.668 49.2539C211.395 48.8945 211.258 48.5156 211.258 48.1172C211.258 47.6172 211.402 47.2031 211.691 46.875C211.98 46.5391 212.398 46.2109 212.945 45.8906C212.258 45.5938 211.711 45.1172 211.305 44.4609C210.906 43.8047 210.707 43.0312 210.707 42.1406C210.707 41.1875 210.914 40.3789 211.328 39.7148C211.75 39.043 212.359 38.5312 213.156 38.1797C213.961 37.8281 214.938 37.6523 216.086 37.6523C216.328 37.6523 216.609 37.668 216.93 37.6992C217.25 37.7305 217.543 37.7656 217.809 37.8047C218.082 37.8438 218.266 37.875 218.359 37.8984H222.93V39.7148L220.879 40.2422C221.066 40.5312 221.207 40.8398 221.301 41.168C221.395 41.4961 221.441 41.8438 221.441 42.2109C221.441 43.6172 220.949 44.7148 219.965 45.5039C218.988 46.2852 217.629 46.6758 215.887 46.6758C215.473 46.6523 215.082 46.6211 214.715 46.582C214.535 46.7227 214.398 46.8711 214.305 47.0273C214.211 47.1836 214.164 47.3477 214.164 47.5195C214.164 47.6914 214.234 47.8359 214.375 47.9531C214.523 48.0625 214.742 48.1484 215.031 48.2109C215.328 48.2656 215.695 48.293 216.133 48.293H218.359C219.797 48.293 220.891 48.6016 221.641 49.2188C222.398 49.8359 222.777 50.7422 222.777 51.9375C222.777 53.4688 222.137 54.6562 220.855 55.5C219.582 56.3438 217.75 56.7656 215.359 56.7656ZM215.512 54.4336C216.363 54.4336 217.094 54.3516 217.703 54.1875C218.32 54.0312 218.793 53.8047 219.121 53.5078C219.449 53.2188 219.613 52.8711 219.613 52.4648C219.613 52.1367 219.516 51.875 219.32 51.6797C219.133 51.4922 218.844 51.3594 218.453 51.2812C218.07 51.2031 217.578 51.1641 216.977 51.1641H215.125C214.688 51.1641 214.293 51.2344 213.941 51.375C213.598 51.5156 213.324 51.7109 213.121 51.9609C212.918 52.2188 212.816 52.5156 212.816 52.8516C212.816 53.3438 213.051 53.7305 213.52 54.0117C213.996 54.293 214.66 54.4336 215.512 54.4336ZM216.086 44.4961C216.758 44.4961 217.25 44.2891 217.562 43.875C217.875 43.4609 218.031 42.8984 218.031 42.1875C218.031 41.3984 217.867 40.8086 217.539 40.418C217.219 40.0195 216.734 39.8203 216.086 39.8203C215.43 39.8203 214.938 40.0195 214.609 40.418C214.281 40.8086 214.117 41.3984 214.117 42.1875C214.117 42.8984 214.277 43.4609 214.598 43.875C214.926 44.2891 215.422 44.4961 216.086 44.4961ZM232.539 37.6523C233.938 37.6523 235.062 38.0352 235.914 38.8008C236.766 39.5586 237.191 40.7773 237.191 42.457V51H233.617V43.3477C233.617 42.4102 233.445 41.7031 233.102 41.2266C232.766 40.75 232.234 40.5117 231.508 40.5117C230.414 40.5117 229.668 40.8828 229.27 41.625C228.871 42.3672 228.672 43.4375 228.672 44.8359V51H225.098V37.8984H227.828L228.309 39.5742H228.508C228.789 39.1211 229.137 38.7539 229.551 38.4727C229.973 38.1914 230.438 37.9844 230.945 37.8516C231.461 37.7188 231.992 37.6523 232.539 37.6523Z" fill="black"/>
</svg>
