<svg width="290" height="136" viewBox="0 0 290 136" fill="none" xmlns="http://www.w3.org/2000/svg">
<rect y="10" width="290" height="126" rx="30" fill="#CBCBCB"/>
<path d="M60.4141 51L56.2891 37.5586H56.1836C56.1992 37.8789 56.2227 38.3633 56.2539 39.0117C56.293 39.6523 56.3281 40.3359 56.3594 41.0625C56.3906 41.7891 56.4062 42.4453 56.4062 43.0312V51H53.1602V33.8672H58.1055L62.1602 46.9688H62.2305L66.5312 33.8672H71.4766V51H68.0898V42.8906C68.0898 42.3516 68.0977 41.7305 68.1133 41.0273C68.1367 40.3242 68.1641 39.6562 68.1953 39.0234C68.2266 38.3828 68.25 37.9023 68.2656 37.582H68.1602L63.7422 51H60.4141ZM87.4258 44.4258C87.4258 45.5195 87.2773 46.4883 86.9805 47.332C86.6914 48.1758 86.2656 48.8906 85.7031 49.4766C85.1484 50.0547 84.4766 50.4922 83.6875 50.7891C82.9062 51.0859 82.0234 51.2344 81.0391 51.2344C80.1172 51.2344 79.2695 51.0859 78.4961 50.7891C77.7305 50.4922 77.0625 50.0547 76.4922 49.4766C75.9297 48.8906 75.4922 48.1758 75.1797 47.332C74.875 46.4883 74.7227 45.5195 74.7227 44.4258C74.7227 42.9727 74.9805 41.7422 75.4961 40.7344C76.0117 39.7266 76.7461 38.9609 77.6992 38.4375C78.6523 37.9141 79.7891 37.6523 81.1094 37.6523C82.3359 37.6523 83.4219 37.9141 84.3672 38.4375C85.3203 38.9609 86.0664 39.7266 86.6055 40.7344C87.1523 41.7422 87.4258 42.9727 87.4258 44.4258ZM78.3672 44.4258C78.3672 45.2852 78.4609 46.0078 78.6484 46.5938C78.8359 47.1797 79.1289 47.6211 79.5273 47.918C79.9258 48.2148 80.4453 48.3633 81.0859 48.3633C81.7188 48.3633 82.2305 48.2148 82.6211 47.918C83.0195 47.6211 83.3086 47.1797 83.4883 46.5938C83.6758 46.0078 83.7695 45.2852 83.7695 44.4258C83.7695 43.5586 83.6758 42.8398 83.4883 42.2695C83.3086 41.6914 83.0195 41.2578 82.6211 40.9688C82.2227 40.6797 81.7031 40.5352 81.0625 40.5352C80.1172 40.5352 79.4297 40.8594 79 41.5078C78.5781 42.1562 78.3672 43.1289 78.3672 44.4258ZM94.5273 51.2344C93.0664 51.2344 91.875 50.6641 90.9531 49.5234C90.0391 48.375 89.582 46.6914 89.582 44.4727C89.582 42.2305 90.0469 40.5352 90.9766 39.3867C91.9062 38.2305 93.1211 37.6523 94.6211 37.6523C95.2461 37.6523 95.7969 37.7383 96.2734 37.9102C96.75 38.082 97.1602 38.3125 97.5039 38.6016C97.8555 38.8906 98.1523 39.2148 98.3945 39.5742H98.5117C98.4648 39.3242 98.4062 38.957 98.3359 38.4727C98.2734 37.9805 98.2422 37.4766 98.2422 36.9609V32.7656H101.828V51H99.0859L98.3945 49.3008H98.2422C98.0156 49.6602 97.7305 49.9883 97.3867 50.2852C97.0508 50.5742 96.6484 50.8047 96.1797 50.9766C95.7109 51.1484 95.1602 51.2344 94.5273 51.2344ZM95.7812 48.3867C96.7578 48.3867 97.4453 48.0977 97.8438 47.5195C98.25 46.9336 98.4648 46.0547 98.4883 44.8828V44.4961C98.4883 43.2227 98.293 42.25 97.9023 41.5781C97.5117 40.8984 96.7852 40.5586 95.7227 40.5586C94.9336 40.5586 94.3164 40.8984 93.8711 41.5781C93.4258 42.2578 93.2031 43.2383 93.2031 44.5195C93.2031 45.8008 93.4258 46.7656 93.8711 47.4141C94.3242 48.0625 94.9609 48.3867 95.7812 48.3867ZM117.59 37.8984V51H114.848L114.367 49.3242H114.18C113.898 49.7695 113.547 50.1328 113.125 50.4141C112.703 50.6953 112.238 50.9023 111.73 51.0352C111.223 51.168 110.695 51.2344 110.148 51.2344C109.211 51.2344 108.395 51.0703 107.699 50.7422C107.004 50.4062 106.461 49.8867 106.07 49.1836C105.688 48.4805 105.496 47.5664 105.496 46.4414V37.8984H109.07V45.5508C109.07 46.4883 109.238 47.1953 109.574 47.6719C109.91 48.1484 110.445 48.3867 111.18 48.3867C111.906 48.3867 112.477 48.2227 112.891 47.8945C113.305 47.5586 113.594 47.0703 113.758 46.4297C113.93 45.7812 114.016 44.9922 114.016 44.0625V37.8984H117.59ZM124.914 51H121.34V32.7656H124.914V51ZM134.043 37.6289C135.801 37.6289 137.148 38.0117 138.086 38.7773C139.023 39.543 139.492 40.707 139.492 42.2695V51H136.996L136.305 49.2188H136.211C135.836 49.6875 135.453 50.0703 135.062 50.3672C134.672 50.6641 134.223 50.8828 133.715 51.0234C133.207 51.1641 132.59 51.2344 131.863 51.2344C131.09 51.2344 130.395 51.0859 129.777 50.7891C129.168 50.4922 128.688 50.0391 128.336 49.4297C127.984 48.8125 127.809 48.0312 127.809 47.0859C127.809 45.6953 128.297 44.6719 129.273 44.0156C130.25 43.3516 131.715 42.9844 133.668 42.9141L135.941 42.8438V42.2695C135.941 41.582 135.762 41.0781 135.402 40.7578C135.043 40.4375 134.543 40.2773 133.902 40.2773C133.27 40.2773 132.648 40.3672 132.039 40.5469C131.43 40.7266 130.82 40.9531 130.211 41.2266L129.027 38.8125C129.723 38.4453 130.5 38.1562 131.359 37.9453C132.227 37.7344 133.121 37.6289 134.043 37.6289ZM135.941 44.9297L134.559 44.9766C133.402 45.0078 132.598 45.2148 132.145 45.5977C131.699 45.9805 131.477 46.4844 131.477 47.1094C131.477 47.6562 131.637 48.0469 131.957 48.2812C132.277 48.5078 132.695 48.6211 133.211 48.6211C133.977 48.6211 134.621 48.3945 135.145 47.9414C135.676 47.4883 135.941 46.8438 135.941 46.0078V44.9297ZM150.496 37.6523C150.676 37.6523 150.883 37.6641 151.117 37.6875C151.359 37.7031 151.555 37.7266 151.703 37.7578L151.434 41.1094C151.316 41.0703 151.148 41.043 150.93 41.0273C150.719 41.0039 150.535 40.9922 150.379 40.9922C149.918 40.9922 149.469 41.0508 149.031 41.168C148.602 41.2852 148.215 41.4766 147.871 41.7422C147.527 42 147.254 42.3438 147.051 42.7734C146.855 43.1953 146.758 43.7148 146.758 44.332V51H143.184V37.8984H145.891L146.418 40.1016H146.594C146.852 39.6562 147.172 39.25 147.555 38.8828C147.945 38.5078 148.387 38.2109 148.879 37.9922C149.379 37.7656 149.918 37.6523 150.496 37.6523ZM174.812 42.2695C174.812 44.1992 174.441 45.8125 173.699 47.1094C172.965 48.3984 171.898 49.3711 170.5 50.0273C169.102 50.6758 167.418 51 165.449 51H160.598V33.8672H165.977C167.773 33.8672 169.332 34.1875 170.652 34.8281C171.973 35.4609 172.996 36.4023 173.723 37.6523C174.449 38.8945 174.812 40.4336 174.812 42.2695ZM171.039 42.3633C171.039 41.0977 170.852 40.0586 170.477 39.2461C170.109 38.4258 169.562 37.8203 168.836 37.4297C168.117 37.0391 167.227 36.8438 166.164 36.8438H164.23V48H165.789C167.562 48 168.879 47.5273 169.738 46.582C170.605 45.6367 171.039 44.2305 171.039 42.3633ZM183.484 37.6523C184.695 37.6523 185.738 37.8867 186.613 38.3555C187.488 38.8164 188.164 39.4883 188.641 40.3711C189.117 41.2539 189.355 42.332 189.355 43.6055V45.3398H180.906C180.945 46.3477 181.246 47.1406 181.809 47.7188C182.379 48.2891 183.168 48.5742 184.176 48.5742C185.012 48.5742 185.777 48.4883 186.473 48.3164C187.168 48.1445 187.883 47.8867 188.617 47.543V50.3086C187.969 50.6289 187.289 50.8633 186.578 51.0117C185.875 51.1602 185.02 51.2344 184.012 51.2344C182.699 51.2344 181.535 50.9922 180.52 50.5078C179.512 50.0234 178.719 49.2852 178.141 48.293C177.57 47.3008 177.285 46.0508 177.285 44.543C177.285 43.0117 177.543 41.7383 178.059 40.7227C178.582 39.6992 179.309 38.9336 180.238 38.4258C181.168 37.9102 182.25 37.6523 183.484 37.6523ZM183.508 40.1953C182.812 40.1953 182.234 40.418 181.773 40.8633C181.32 41.3086 181.059 42.0078 180.988 42.9609H186.004C185.996 42.4297 185.898 41.957 185.711 41.543C185.531 41.1289 185.258 40.8008 184.891 40.5586C184.531 40.3164 184.07 40.1953 183.508 40.1953ZM201.402 47.1094C201.402 48 201.191 48.7539 200.77 49.3711C200.355 49.9805 199.734 50.4453 198.906 50.7656C198.078 51.0781 197.047 51.2344 195.812 51.2344C194.898 51.2344 194.113 51.1758 193.457 51.0586C192.809 50.9414 192.152 50.7461 191.488 50.4727V47.5195C192.199 47.8398 192.961 48.1055 193.773 48.3164C194.594 48.5195 195.312 48.6211 195.93 48.6211C196.625 48.6211 197.121 48.5195 197.418 48.3164C197.723 48.1055 197.875 47.832 197.875 47.4961C197.875 47.2773 197.812 47.082 197.688 46.9102C197.57 46.7305 197.312 46.5312 196.914 46.3125C196.516 46.0859 195.891 45.793 195.039 45.4336C194.219 45.0898 193.543 44.7422 193.012 44.3906C192.488 44.0391 192.098 43.625 191.84 43.1484C191.59 42.6641 191.465 42.0508 191.465 41.3086C191.465 40.0977 191.934 39.1875 192.871 38.5781C193.816 37.9609 195.078 37.6523 196.656 37.6523C197.469 37.6523 198.242 37.7344 198.977 37.8984C199.719 38.0625 200.48 38.3242 201.262 38.6836L200.184 41.2617C199.535 40.9805 198.922 40.75 198.344 40.5703C197.773 40.3906 197.191 40.3008 196.598 40.3008C196.074 40.3008 195.68 40.3711 195.414 40.5117C195.148 40.6523 195.016 40.8672 195.016 41.1562C195.016 41.3672 195.082 41.5547 195.215 41.7188C195.355 41.8828 195.621 42.0664 196.012 42.2695C196.41 42.4648 196.992 42.7188 197.758 43.0312C198.5 43.3359 199.145 43.6562 199.691 43.9922C200.238 44.3203 200.66 44.7305 200.957 45.2227C201.254 45.707 201.402 46.3359 201.402 47.1094ZM207.766 37.8984V51H204.191V37.8984H207.766ZM205.984 32.7656C206.516 32.7656 206.973 32.8906 207.355 33.1406C207.738 33.3828 207.93 33.8398 207.93 34.5117C207.93 35.1758 207.738 35.6367 207.355 35.8945C206.973 36.1445 206.516 36.2695 205.984 36.2695C205.445 36.2695 204.984 36.1445 204.602 35.8945C204.227 35.6367 204.039 35.1758 204.039 34.5117C204.039 33.8398 204.227 33.3828 204.602 33.1406C204.984 32.8906 205.445 32.7656 205.984 32.7656ZM215.359 56.7656C213.531 56.7656 212.133 56.4453 211.164 55.8047C210.203 55.1719 209.723 54.2812 209.723 53.1328C209.723 52.3438 209.969 51.6836 210.461 51.1523C210.953 50.6211 211.676 50.2422 212.629 50.0156C212.262 49.8594 211.941 49.6055 211.668 49.2539C211.395 48.8945 211.258 48.5156 211.258 48.1172C211.258 47.6172 211.402 47.2031 211.691 46.875C211.98 46.5391 212.398 46.2109 212.945 45.8906C212.258 45.5938 211.711 45.1172 211.305 44.4609C210.906 43.8047 210.707 43.0312 210.707 42.1406C210.707 41.1875 210.914 40.3789 211.328 39.7148C211.75 39.043 212.359 38.5312 213.156 38.1797C213.961 37.8281 214.938 37.6523 216.086 37.6523C216.328 37.6523 216.609 37.668 216.93 37.6992C217.25 37.7305 217.543 37.7656 217.809 37.8047C218.082 37.8438 218.266 37.875 218.359 37.8984H222.93V39.7148L220.879 40.2422C221.066 40.5312 221.207 40.8398 221.301 41.168C221.395 41.4961 221.441 41.8438 221.441 42.2109C221.441 43.6172 220.949 44.7148 219.965 45.5039C218.988 46.2852 217.629 46.6758 215.887 46.6758C215.473 46.6523 215.082 46.6211 214.715 46.582C214.535 46.7227 214.398 46.8711 214.305 47.0273C214.211 47.1836 214.164 47.3477 214.164 47.5195C214.164 47.6914 214.234 47.8359 214.375 47.9531C214.523 48.0625 214.742 48.1484 215.031 48.2109C215.328 48.2656 215.695 48.293 216.133 48.293H218.359C219.797 48.293 220.891 48.6016 221.641 49.2188C222.398 49.8359 222.777 50.7422 222.777 51.9375C222.777 53.4688 222.137 54.6562 220.855 55.5C219.582 56.3438 217.75 56.7656 215.359 56.7656ZM215.512 54.4336C216.363 54.4336 217.094 54.3516 217.703 54.1875C218.32 54.0312 218.793 53.8047 219.121 53.5078C219.449 53.2188 219.613 52.8711 219.613 52.4648C219.613 52.1367 219.516 51.875 219.32 51.6797C219.133 51.4922 218.844 51.3594 218.453 51.2812C218.07 51.2031 217.578 51.1641 216.977 51.1641H215.125C214.688 51.1641 214.293 51.2344 213.941 51.375C213.598 51.5156 213.324 51.7109 213.121 51.9609C212.918 52.2188 212.816 52.5156 212.816 52.8516C212.816 53.3438 213.051 53.7305 213.52 54.0117C213.996 54.293 214.66 54.4336 215.512 54.4336ZM216.086 44.4961C216.758 44.4961 217.25 44.2891 217.562 43.875C217.875 43.4609 218.031 42.8984 218.031 42.1875C218.031 41.3984 217.867 40.8086 217.539 40.418C217.219 40.0195 216.734 39.8203 216.086 39.8203C215.43 39.8203 214.938 40.0195 214.609 40.418C214.281 40.8086 214.117 41.3984 214.117 42.1875C214.117 42.8984 214.277 43.4609 214.598 43.875C214.926 44.2891 215.422 44.4961 216.086 44.4961ZM232.539 37.6523C233.938 37.6523 235.062 38.0352 235.914 38.8008C236.766 39.5586 237.191 40.7773 237.191 42.457V51H233.617V43.3477C233.617 42.4102 233.445 41.7031 233.102 41.2266C232.766 40.75 232.234 40.5117 231.508 40.5117C230.414 40.5117 229.668 40.8828 229.27 41.625C228.871 42.3672 228.672 43.4375 228.672 44.8359V51H225.098V37.8984H227.828L228.309 39.5742H228.508C228.789 39.1211 229.137 38.7539 229.551 38.4727C229.973 38.1914 230.438 37.9844 230.945 37.8516C231.461 37.7188 231.992 37.6523 232.539 37.6523Z" fill="black"/>
<path d="M57.127 101H54.0312L54.3926 99.0566L57.1953 99.0762C58.1523 99.0762 58.9661 98.8581 59.6367 98.4219C60.3138 97.9857 60.8509 97.403 61.248 96.6738C61.6517 95.9447 61.9219 95.1406 62.0586 94.2617L62.1562 93.4805C62.2279 92.9271 62.2441 92.377 62.2051 91.8301C62.1725 91.2767 62.0553 90.7721 61.8535 90.3164C61.6517 89.8542 61.349 89.4831 60.9453 89.2031C60.5417 88.9167 60.0046 88.7637 59.334 88.7441L56.1016 88.7344L56.4434 86.7812L59.4023 86.791C60.3529 86.8105 61.1732 87.0059 61.8633 87.377C62.5599 87.7415 63.1263 88.2363 63.5625 88.8613C63.9987 89.4798 64.2982 90.1895 64.4609 90.9902C64.6302 91.791 64.6628 92.6309 64.5586 93.5098L64.4609 94.2715C64.3242 95.2285 64.054 96.1204 63.6504 96.9473C63.2467 97.7676 62.7259 98.4805 62.0879 99.0859C61.4499 99.6914 60.7109 100.163 59.8711 100.502C59.0378 100.834 58.123 101 57.127 101ZM57.8398 86.7812L55.3691 101H52.9668L55.4375 86.7812H57.8398ZM70.1738 101.195C69.4512 101.182 68.8099 101.042 68.25 100.775C67.6966 100.502 67.2376 100.134 66.873 99.6719C66.5085 99.2031 66.2448 98.666 66.082 98.0605C65.9193 97.4486 65.8639 96.7975 65.916 96.1074L65.9551 95.707C66.0267 94.9974 66.1992 94.3138 66.4727 93.6562C66.7461 92.9922 67.1107 92.403 67.5664 91.8887C68.0286 91.3678 68.5723 90.9577 69.1973 90.6582C69.8223 90.3587 70.5189 90.2188 71.2871 90.2383C72.0228 90.2513 72.6445 90.4043 73.1523 90.6973C73.6602 90.9902 74.0638 91.3809 74.3633 91.8691C74.6628 92.3509 74.8613 92.8978 74.959 93.5098C75.0632 94.1217 75.0794 94.7565 75.0078 95.4141L74.8711 96.4199H66.9414L67.2148 94.7305L72.8105 94.7402L72.8496 94.5352C72.9082 94.125 72.8854 93.7376 72.7812 93.373C72.6836 93.0085 72.5013 92.709 72.2344 92.4746C71.9674 92.2402 71.6094 92.1165 71.1602 92.1035C70.6719 92.0905 70.252 92.1914 69.9004 92.4062C69.5553 92.6211 69.2689 92.9108 69.041 93.2754C68.8132 93.64 68.6341 94.0371 68.5039 94.4668C68.3802 94.89 68.2923 95.3034 68.2402 95.707L68.2012 96.0977C68.1621 96.4818 68.1719 96.8626 68.2305 97.2402C68.2891 97.6178 68.403 97.9629 68.5723 98.2754C68.7415 98.5814 68.9759 98.832 69.2754 99.0273C69.5749 99.2161 69.946 99.3171 70.3887 99.3301C70.9421 99.3431 71.4434 99.2292 71.8926 98.9883C72.3483 98.7409 72.7617 98.4219 73.1328 98.0312L74.2656 99.2324C73.9661 99.6816 73.5951 100.053 73.1523 100.346C72.7161 100.639 72.2409 100.857 71.7266 101C71.2188 101.137 70.7012 101.202 70.1738 101.195ZM82.1367 98.0801C82.1888 97.722 82.1107 97.4453 81.9023 97.25C81.694 97.0482 81.4336 96.8952 81.1211 96.791C80.8086 96.6868 80.5221 96.6022 80.2617 96.5371C79.8646 96.4395 79.4674 96.3158 79.0703 96.166C78.6797 96.0098 78.3216 95.8145 77.9961 95.5801C77.6706 95.3457 77.4134 95.0592 77.2246 94.7207C77.0358 94.3757 76.9512 93.9655 76.9707 93.4902C76.9967 92.9434 77.14 92.4648 77.4004 92.0547C77.6608 91.6445 77.9961 91.3027 78.4062 91.0293C78.8229 90.7559 79.2786 90.554 79.7734 90.4238C80.2682 90.2936 80.7598 90.2318 81.248 90.2383C81.9316 90.2513 82.5599 90.3848 83.1328 90.6387C83.7122 90.8926 84.1745 91.2669 84.5195 91.7617C84.8711 92.2565 85.0436 92.8685 85.0371 93.5977L82.752 93.5879C82.765 93.2624 82.7064 92.9824 82.5762 92.748C82.4525 92.5072 82.2702 92.3216 82.0293 92.1914C81.7884 92.0612 81.4987 91.9928 81.1602 91.9863C80.8672 91.9798 80.5775 92.0286 80.291 92.1328C80.0111 92.237 79.7702 92.3932 79.5684 92.6016C79.3665 92.8099 79.2428 93.0736 79.1973 93.3926C79.1582 93.64 79.194 93.8451 79.3047 94.0078C79.4154 94.1641 79.5684 94.291 79.7637 94.3887C79.959 94.4863 80.1641 94.5677 80.3789 94.6328C80.6003 94.6914 80.7988 94.7402 80.9746 94.7793C81.528 94.929 82.0716 95.1211 82.6055 95.3555C83.1393 95.5833 83.5755 95.9056 83.9141 96.3223C84.2526 96.7324 84.4056 97.2728 84.373 97.9434C84.3535 98.5163 84.2038 99.0111 83.9238 99.4277C83.6439 99.8379 83.2858 100.176 82.8496 100.443C82.4134 100.704 81.9349 100.896 81.4141 101.02C80.8997 101.143 80.3919 101.202 79.8906 101.195C79.2005 101.182 78.5495 101.039 77.9375 100.766C77.332 100.492 76.8438 100.098 76.4727 99.584C76.1081 99.0632 75.9258 98.4284 75.9258 97.6797L78.1426 97.6895C78.1426 98.0671 78.2174 98.3861 78.3672 98.6465C78.5234 98.9069 78.7383 99.1055 79.0117 99.2422C79.2917 99.3724 79.6172 99.4408 79.9883 99.4473C80.2943 99.4473 80.6003 99.4049 80.9062 99.3203C81.2188 99.2292 81.4857 99.0827 81.707 98.8809C81.9349 98.679 82.0781 98.4121 82.1367 98.0801ZM90.1055 90.4336L88.2695 101H85.9746L87.8105 90.4336H90.1055ZM88.1328 87.6992C88.1263 87.3216 88.25 87.0124 88.5039 86.7715C88.7578 86.5306 89.0703 86.4069 89.4414 86.4004C89.7995 86.3939 90.1055 86.5046 90.3594 86.7324C90.6198 86.9538 90.75 87.25 90.75 87.6211C90.7565 87.9987 90.6296 88.3047 90.3691 88.5391C90.1152 88.7734 89.806 88.8939 89.4414 88.9004C89.0833 88.9069 88.7773 88.8027 88.5234 88.5879C88.2695 88.3665 88.1393 88.0703 88.1328 87.6992ZM99.1387 90.4336H101.248L99.5 100.697C99.3698 101.628 99.0638 102.432 98.582 103.109C98.1068 103.786 97.4915 104.304 96.7363 104.662C95.9811 105.027 95.1348 105.196 94.1973 105.17C93.7285 105.163 93.2663 105.089 92.8105 104.945C92.3548 104.809 91.9316 104.61 91.541 104.35C91.1504 104.089 90.8151 103.767 90.5352 103.383L91.7363 102.016C92.0358 102.419 92.3874 102.738 92.791 102.973C93.1947 103.207 93.6471 103.331 94.1484 103.344C94.6953 103.357 95.1803 103.256 95.6035 103.041C96.0267 102.833 96.3717 102.533 96.6387 102.143C96.9121 101.752 97.0911 101.29 97.1758 100.756L98.543 92.709L99.1387 90.4336ZM91.2578 95.9121L91.2871 95.6973C91.3652 95.0462 91.5215 94.3952 91.7559 93.7441C91.9902 93.0866 92.3027 92.4909 92.6934 91.957C93.0905 91.4167 93.5723 90.9902 94.1387 90.6777C94.7116 90.3652 95.3789 90.2155 96.1406 90.2285C96.8307 90.248 97.3971 90.4173 97.8398 90.7363C98.2891 91.0553 98.6341 91.4688 98.875 91.9766C99.1224 92.4844 99.2884 93.0378 99.373 93.6367C99.4577 94.2357 99.4837 94.8281 99.4512 95.4141L99.373 96.0781C99.2689 96.6836 99.0931 97.2923 98.8457 97.9043C98.5983 98.5163 98.276 99.0762 97.8789 99.584C97.4883 100.085 97.0195 100.486 96.4727 100.785C95.9323 101.085 95.3105 101.225 94.6074 101.205C93.9108 101.186 93.3314 101.013 92.8691 100.688C92.4069 100.355 92.0488 99.929 91.7949 99.4082C91.541 98.8874 91.3717 98.321 91.2871 97.709C91.209 97.097 91.1992 96.498 91.2578 95.9121ZM93.5918 95.6973L93.5723 95.9023C93.5332 96.2474 93.5202 96.612 93.5332 96.9961C93.5462 97.3802 93.6081 97.7448 93.7188 98.0898C93.8294 98.4349 94.0117 98.7214 94.2656 98.9492C94.5195 99.1706 94.8646 99.2878 95.3008 99.3008C95.8281 99.3268 96.2936 99.2161 96.6973 98.9688C97.1074 98.7214 97.446 98.3926 97.7129 97.9824C97.9863 97.5723 98.1784 97.1296 98.2891 96.6543L98.5625 94.8672C98.5885 94.5352 98.569 94.2096 98.5039 93.8906C98.4388 93.5651 98.3249 93.2721 98.1621 93.0117C98.0059 92.7513 97.7975 92.543 97.5371 92.3867C97.2767 92.224 96.9609 92.1393 96.5898 92.1328C96.1016 92.1133 95.6784 92.2109 95.3203 92.4258C94.9688 92.6406 94.6725 92.9271 94.4316 93.2852C94.1973 93.6432 94.0117 94.0339 93.875 94.457C93.7383 94.8802 93.6439 95.2936 93.5918 95.6973ZM105.447 92.8262L104.031 101H101.727L103.562 90.4336H105.721L105.447 92.8262ZM104.637 95.3262L103.934 95.3359C104.012 94.7044 104.165 94.0827 104.393 93.4707C104.627 92.8522 104.936 92.2988 105.32 91.8105C105.704 91.3158 106.17 90.9251 106.717 90.6387C107.27 90.3522 107.908 90.2188 108.631 90.2383C109.204 90.2513 109.679 90.3652 110.057 90.5801C110.441 90.7949 110.737 91.0846 110.945 91.4492C111.16 91.8138 111.3 92.2305 111.365 92.6992C111.43 93.168 111.434 93.6595 111.375 94.1738L110.242 101H107.928L109.08 94.1445C109.119 93.7669 109.106 93.4284 109.041 93.1289C108.976 92.8229 108.833 92.582 108.611 92.4062C108.39 92.224 108.071 92.1296 107.654 92.123C107.199 92.11 106.798 92.1947 106.453 92.377C106.108 92.5592 105.812 92.8099 105.564 93.1289C105.317 93.4414 105.115 93.7897 104.959 94.1738C104.809 94.5579 104.702 94.9421 104.637 95.3262ZM120.672 99.7305L125.027 90.4336H127.566L121.375 102.621C121.199 102.986 120.997 103.331 120.77 103.656C120.548 103.982 120.294 104.268 120.008 104.516C119.721 104.763 119.399 104.955 119.041 105.092C118.689 105.235 118.292 105.307 117.85 105.307C117.648 105.3 117.449 105.277 117.254 105.238C117.052 105.206 116.854 105.167 116.658 105.121L116.824 103.314C116.896 103.321 116.967 103.327 117.039 103.334C117.111 103.347 117.182 103.354 117.254 103.354C117.625 103.367 117.951 103.318 118.23 103.207C118.51 103.103 118.755 102.94 118.963 102.719C119.178 102.497 119.367 102.227 119.529 101.908L120.672 99.7305ZM120.691 90.4336L121.766 98.4609L121.746 100.863L120.145 101.273L118.289 90.4336H120.691ZM127.312 95.8926L127.342 95.668C127.42 94.9388 127.599 94.2454 127.879 93.5879C128.159 92.9303 128.53 92.3477 128.992 91.8398C129.461 91.3255 130.011 90.9251 130.643 90.6387C131.281 90.3522 131.99 90.2188 132.771 90.2383C133.527 90.2513 134.174 90.4076 134.715 90.707C135.262 91.0065 135.704 91.4069 136.043 91.9082C136.388 92.403 136.629 92.9694 136.766 93.6074C136.902 94.2389 136.938 94.8997 136.873 95.5898L136.854 95.8145C136.769 96.5436 136.583 97.2337 136.297 97.8848C136.017 98.5358 135.643 99.1152 135.174 99.623C134.712 100.124 134.161 100.518 133.523 100.805C132.892 101.085 132.189 101.215 131.414 101.195C130.665 101.182 130.018 101.029 129.471 100.736C128.93 100.437 128.488 100.04 128.143 99.5449C127.804 99.0501 127.566 98.4902 127.43 97.8652C127.293 97.2337 127.254 96.5762 127.312 95.8926ZM129.627 95.668L129.607 95.8926C129.575 96.2507 129.572 96.6283 129.598 97.0254C129.624 97.4225 129.702 97.7936 129.832 98.1387C129.962 98.4837 130.164 98.7669 130.438 98.9883C130.711 99.2096 131.076 99.3268 131.531 99.3398C132.013 99.3529 132.433 99.2552 132.791 99.0469C133.149 98.8385 133.449 98.5586 133.689 98.207C133.93 97.8555 134.122 97.4714 134.266 97.0547C134.409 96.6315 134.503 96.2181 134.549 95.8145L134.568 95.5898C134.607 95.2383 134.614 94.8639 134.588 94.4668C134.562 94.0632 134.484 93.6855 134.354 93.334C134.223 92.9759 134.021 92.6862 133.748 92.4648C133.475 92.237 133.11 92.1165 132.654 92.1035C132.166 92.0905 131.743 92.1914 131.385 92.4062C131.027 92.6146 130.727 92.8978 130.486 93.2559C130.245 93.6139 130.053 94.0046 129.91 94.4277C129.773 94.8509 129.679 95.2643 129.627 95.668ZM144.471 98.3926L145.848 90.4336H148.152L146.316 101H144.148L144.471 98.3926ZM145.115 96.3125L145.877 96.2832C145.799 96.9212 145.656 97.5397 145.447 98.1387C145.239 98.7311 144.956 99.2617 144.598 99.7305C144.24 100.199 143.794 100.567 143.26 100.834C142.726 101.101 142.098 101.225 141.375 101.205C140.796 101.186 140.307 101.072 139.91 100.863C139.52 100.648 139.21 100.359 138.982 99.9941C138.755 99.6296 138.602 99.2129 138.523 98.7441C138.452 98.2754 138.442 97.7806 138.494 97.2598L139.637 90.4336H141.932L140.779 97.2891C140.76 97.543 140.76 97.7871 140.779 98.0215C140.799 98.2559 140.854 98.4674 140.945 98.6562C141.036 98.8451 141.17 98.998 141.346 99.1152C141.528 99.2259 141.766 99.2878 142.059 99.3008C142.684 99.3203 143.204 99.1999 143.621 98.9395C144.044 98.6725 144.376 98.3079 144.617 97.8457C144.865 97.3835 145.031 96.8724 145.115 96.3125ZM152.42 92.5625L150.955 101H148.66L150.496 90.4336H152.674L152.42 92.5625ZM155.857 90.3457L155.604 92.543C155.454 92.5169 155.301 92.4941 155.145 92.4746C154.995 92.4551 154.845 92.4453 154.695 92.4453C154.298 92.4388 153.94 92.4941 153.621 92.6113C153.302 92.7285 153.022 92.8978 152.781 93.1191C152.54 93.334 152.339 93.5944 152.176 93.9004C152.013 94.1999 151.886 94.5352 151.795 94.9062L151.248 94.9453C151.313 94.431 151.424 93.8971 151.58 93.3438C151.743 92.7904 151.967 92.276 152.254 91.8008C152.54 91.319 152.905 90.9316 153.348 90.6387C153.79 90.3392 154.327 90.196 154.959 90.209C155.109 90.209 155.258 90.222 155.408 90.248C155.558 90.2741 155.708 90.3066 155.857 90.3457ZM163.367 101H161.062L162.986 89.7598C163.097 88.9069 163.361 88.1842 163.777 87.5918C164.194 86.9928 164.734 86.5371 165.398 86.2246C166.069 85.9121 166.831 85.7624 167.684 85.7754C168.191 85.7884 168.689 85.8568 169.178 85.9805C169.666 86.0977 170.151 86.2279 170.633 86.3711L170.096 88.2949C169.718 88.1452 169.331 88.0247 168.934 87.9336C168.543 87.8424 168.146 87.7969 167.742 87.7969C167.078 87.7839 166.531 87.9434 166.102 88.2754C165.672 88.6009 165.405 89.0924 165.301 89.75L163.367 101ZM167.273 90.4336L166.961 92.1523H161.033L161.336 90.4336H167.273ZM171.082 90.4336L169.246 101H166.941L168.777 90.4336H171.082ZM180.154 90.4336H182.264L180.516 100.697C180.385 101.628 180.079 102.432 179.598 103.109C179.122 103.786 178.507 104.304 177.752 104.662C176.997 105.027 176.15 105.196 175.213 105.17C174.744 105.163 174.282 105.089 173.826 104.945C173.37 104.809 172.947 104.61 172.557 104.35C172.166 104.089 171.831 103.767 171.551 103.383L172.752 102.016C173.051 102.419 173.403 102.738 173.807 102.973C174.21 103.207 174.663 103.331 175.164 103.344C175.711 103.357 176.196 103.256 176.619 103.041C177.042 102.833 177.387 102.533 177.654 102.143C177.928 101.752 178.107 101.29 178.191 100.756L179.559 92.709L180.154 90.4336ZM172.273 95.9121L172.303 95.6973C172.381 95.0462 172.537 94.3952 172.771 93.7441C173.006 93.0866 173.318 92.4909 173.709 91.957C174.106 91.4167 174.588 90.9902 175.154 90.6777C175.727 90.3652 176.395 90.2155 177.156 90.2285C177.846 90.248 178.413 90.4173 178.855 90.7363C179.305 91.0553 179.65 91.4688 179.891 91.9766C180.138 92.4844 180.304 93.0378 180.389 93.6367C180.473 94.2357 180.499 94.8281 180.467 95.4141L180.389 96.0781C180.285 96.6836 180.109 97.2923 179.861 97.9043C179.614 98.5163 179.292 99.0762 178.895 99.584C178.504 100.085 178.035 100.486 177.488 100.785C176.948 101.085 176.326 101.225 175.623 101.205C174.926 101.186 174.347 101.013 173.885 100.688C173.423 100.355 173.064 99.929 172.811 99.4082C172.557 98.8874 172.387 98.321 172.303 97.709C172.225 97.097 172.215 96.498 172.273 95.9121ZM174.607 95.6973L174.588 95.9023C174.549 96.2474 174.536 96.612 174.549 96.9961C174.562 97.3802 174.624 97.7448 174.734 98.0898C174.845 98.4349 175.027 98.7214 175.281 98.9492C175.535 99.1706 175.88 99.2878 176.316 99.3008C176.844 99.3268 177.309 99.2161 177.713 98.9688C178.123 98.7214 178.462 98.3926 178.729 97.9824C179.002 97.5723 179.194 97.1296 179.305 96.6543L179.578 94.8672C179.604 94.5352 179.585 94.2096 179.52 93.8906C179.454 93.5651 179.34 93.2721 179.178 93.0117C179.021 92.7513 178.813 92.543 178.553 92.3867C178.292 92.224 177.977 92.1393 177.605 92.1328C177.117 92.1133 176.694 92.2109 176.336 92.4258C175.984 92.6406 175.688 92.9271 175.447 93.2852C175.213 93.6432 175.027 94.0339 174.891 94.457C174.754 94.8802 174.66 95.2936 174.607 95.6973ZM189.393 98.3926L190.77 90.4336H193.074L191.238 101H189.07L189.393 98.3926ZM190.037 96.3125L190.799 96.2832C190.721 96.9212 190.577 97.5397 190.369 98.1387C190.161 98.7311 189.878 99.2617 189.52 99.7305C189.161 100.199 188.715 100.567 188.182 100.834C187.648 101.101 187.02 101.225 186.297 101.205C185.717 101.186 185.229 101.072 184.832 100.863C184.441 100.648 184.132 100.359 183.904 99.9941C183.676 99.6296 183.523 99.2129 183.445 98.7441C183.374 98.2754 183.364 97.7806 183.416 97.2598L184.559 90.4336H186.854L185.701 97.2891C185.682 97.543 185.682 97.7871 185.701 98.0215C185.721 98.2559 185.776 98.4674 185.867 98.6562C185.958 98.8451 186.092 98.998 186.268 99.1152C186.45 99.2259 186.688 99.2878 186.98 99.3008C187.605 99.3203 188.126 99.1999 188.543 98.9395C188.966 98.6725 189.298 98.3079 189.539 97.8457C189.786 97.3835 189.952 96.8724 190.037 96.3125ZM197.342 92.5625L195.877 101H193.582L195.418 90.4336H197.596L197.342 92.5625ZM200.779 90.3457L200.525 92.543C200.376 92.5169 200.223 92.4941 200.066 92.4746C199.917 92.4551 199.767 92.4453 199.617 92.4453C199.22 92.4388 198.862 92.4941 198.543 92.6113C198.224 92.7285 197.944 92.8978 197.703 93.1191C197.462 93.334 197.26 93.5944 197.098 93.9004C196.935 94.1999 196.808 94.5352 196.717 94.9062L196.17 94.9453C196.235 94.431 196.346 93.8971 196.502 93.3438C196.665 92.7904 196.889 92.276 197.176 91.8008C197.462 91.319 197.827 90.9316 198.27 90.6387C198.712 90.3392 199.249 90.196 199.881 90.209C200.031 90.209 200.18 90.222 200.33 90.248C200.48 90.2741 200.63 90.3066 200.779 90.3457ZM204.715 90.4336L202.879 101H200.584L202.42 90.4336H204.715ZM202.742 87.6992C202.736 87.3216 202.859 87.0124 203.113 86.7715C203.367 86.5306 203.68 86.4069 204.051 86.4004C204.409 86.3939 204.715 86.5046 204.969 86.7324C205.229 86.9538 205.359 87.25 205.359 87.6211C205.366 87.9987 205.239 88.3047 204.979 88.5391C204.725 88.7734 204.415 88.8939 204.051 88.9004C203.693 88.9069 203.387 88.8027 203.133 88.5879C202.879 88.3665 202.749 88.0703 202.742 87.6992ZM209.061 92.8262L207.645 101H205.34L207.176 90.4336H209.334L209.061 92.8262ZM208.25 95.3262L207.547 95.3359C207.625 94.7044 207.778 94.0827 208.006 93.4707C208.24 92.8522 208.549 92.2988 208.934 91.8105C209.318 91.3158 209.783 90.9251 210.33 90.6387C210.883 90.3522 211.521 90.2188 212.244 90.2383C212.817 90.2513 213.292 90.3652 213.67 90.5801C214.054 90.7949 214.35 91.0846 214.559 91.4492C214.773 91.8138 214.913 92.2305 214.979 92.6992C215.044 93.168 215.047 93.6595 214.988 94.1738L213.855 101H211.541L212.693 94.1445C212.732 93.7669 212.719 93.4284 212.654 93.1289C212.589 92.8229 212.446 92.582 212.225 92.4062C212.003 92.224 211.684 92.1296 211.268 92.123C210.812 92.11 210.411 92.1947 210.066 92.377C209.721 92.5592 209.425 92.8099 209.178 93.1289C208.93 93.4414 208.729 93.7897 208.572 94.1738C208.423 94.5579 208.315 94.9421 208.25 95.3262ZM220.916 101.195C220.193 101.182 219.552 101.042 218.992 100.775C218.439 100.502 217.98 100.134 217.615 99.6719C217.251 99.2031 216.987 98.666 216.824 98.0605C216.661 97.4486 216.606 96.7975 216.658 96.1074L216.697 95.707C216.769 94.9974 216.941 94.3138 217.215 93.6562C217.488 92.9922 217.853 92.403 218.309 91.8887C218.771 91.3678 219.314 90.9577 219.939 90.6582C220.564 90.3587 221.261 90.2188 222.029 90.2383C222.765 90.2513 223.387 90.4043 223.895 90.6973C224.402 90.9902 224.806 91.3809 225.105 91.8691C225.405 92.3509 225.604 92.8978 225.701 93.5098C225.805 94.1217 225.822 94.7565 225.75 95.4141L225.613 96.4199H217.684L217.957 94.7305L223.553 94.7402L223.592 94.5352C223.65 94.125 223.628 93.7376 223.523 93.373C223.426 93.0085 223.243 92.709 222.977 92.4746C222.71 92.2402 222.352 92.1165 221.902 92.1035C221.414 92.0905 220.994 92.1914 220.643 92.4062C220.298 92.6211 220.011 92.9108 219.783 93.2754C219.555 93.64 219.376 94.0371 219.246 94.4668C219.122 94.89 219.035 95.3034 218.982 95.707L218.943 96.0977C218.904 96.4818 218.914 96.8626 218.973 97.2402C219.031 97.6178 219.145 97.9629 219.314 98.2754C219.484 98.5814 219.718 98.832 220.018 99.0273C220.317 99.2161 220.688 99.3171 221.131 99.3301C221.684 99.3431 222.186 99.2292 222.635 98.9883C223.09 98.7409 223.504 98.4219 223.875 98.0312L225.008 99.2324C224.708 99.6816 224.337 100.053 223.895 100.346C223.458 100.639 222.983 100.857 222.469 101C221.961 101.137 221.443 101.202 220.916 101.195ZM232.879 98.0801C232.931 97.722 232.853 97.4453 232.645 97.25C232.436 97.0482 232.176 96.8952 231.863 96.791C231.551 96.6868 231.264 96.6022 231.004 96.5371C230.607 96.4395 230.21 96.3158 229.812 96.166C229.422 96.0098 229.064 95.8145 228.738 95.5801C228.413 95.3457 228.156 95.0592 227.967 94.7207C227.778 94.3757 227.693 93.9655 227.713 93.4902C227.739 92.9434 227.882 92.4648 228.143 92.0547C228.403 91.6445 228.738 91.3027 229.148 91.0293C229.565 90.7559 230.021 90.554 230.516 90.4238C231.01 90.2936 231.502 90.2318 231.99 90.2383C232.674 90.2513 233.302 90.3848 233.875 90.6387C234.454 90.8926 234.917 91.2669 235.262 91.7617C235.613 92.2565 235.786 92.8685 235.779 93.5977L233.494 93.5879C233.507 93.2624 233.449 92.9824 233.318 92.748C233.195 92.5072 233.012 92.3216 232.771 92.1914C232.531 92.0612 232.241 91.9928 231.902 91.9863C231.609 91.9798 231.32 92.0286 231.033 92.1328C230.753 92.237 230.512 92.3932 230.311 92.6016C230.109 92.8099 229.985 93.0736 229.939 93.3926C229.9 93.64 229.936 93.8451 230.047 94.0078C230.158 94.1641 230.311 94.291 230.506 94.3887C230.701 94.4863 230.906 94.5677 231.121 94.6328C231.342 94.6914 231.541 94.7402 231.717 94.7793C232.27 94.929 232.814 95.1211 233.348 95.3555C233.882 95.5833 234.318 95.9056 234.656 96.3223C234.995 96.7324 235.148 97.2728 235.115 97.9434C235.096 98.5163 234.946 99.0111 234.666 99.4277C234.386 99.8379 234.028 100.176 233.592 100.443C233.156 100.704 232.677 100.896 232.156 101.02C231.642 101.143 231.134 101.202 230.633 101.195C229.943 101.182 229.292 101.039 228.68 100.766C228.074 100.492 227.586 100.098 227.215 99.584C226.85 99.0632 226.668 98.4284 226.668 97.6797L228.885 97.6895C228.885 98.0671 228.96 98.3861 229.109 98.6465C229.266 98.9069 229.48 99.1055 229.754 99.2422C230.034 99.3724 230.359 99.4408 230.73 99.4473C231.036 99.4473 231.342 99.4049 231.648 99.3203C231.961 99.2292 232.228 99.0827 232.449 98.8809C232.677 98.679 232.82 98.4121 232.879 98.0801Z" fill="black"/>
<rect x="51" y="69" width="188" height="2" rx="1" fill="#767676"/>
</svg>
