<svg width="45" height="45" viewBox="0 0 45 45" fill="none" xmlns="http://www.w3.org/2000/svg">
<path d="M38.4097 38.4101C29.6205 47.1966 15.3771 47.1966 6.59005 38.4101C-2.19696 29.6235 -2.19641 15.3767 6.59005 6.59011C15.3765 -2.19643 29.6249 -2.19753 38.4097 6.59176C47.1946 15.3811 47.199 29.623 38.4097 38.4101ZM34.5035 20.1229L25.7319 13.4584C25.6627 13.4054 25.5801 13.3727 25.4933 13.364C25.4066 13.3553 25.3192 13.371 25.2409 13.4093C25.1626 13.4476 25.0965 13.507 25.0501 13.5808C25.0037 13.6546 24.9788 13.7398 24.9782 13.827V16.8093C24.9776 16.9241 24.9347 17.0347 24.8576 17.1198C24.7806 17.205 24.6749 17.2587 24.5607 17.2707C18.3077 17.964 12.7864 21.7324 11.3719 27.502C10.5375 30.9079 10.6633 31.0145 10.8715 31.1886C10.9321 31.2395 11.0045 31.2743 11.0821 31.2897C11.1597 31.3052 11.2399 31.3008 11.3153 31.277L11.3346 31.271C11.5543 31.1979 11.6455 31.0046 11.6949 30.9002C12.0438 30.1586 13.5006 27.641 14.7091 26.3704C17.0712 23.8885 20.5589 23.4699 24.5382 23.7204C24.6567 23.7274 24.7681 23.7793 24.8498 23.8655C24.9314 23.9518 24.9771 24.0659 24.9776 24.1846V27.1565C24.9782 27.2437 25.0031 27.3289 25.0495 27.4027C25.096 27.4765 25.162 27.5359 25.2403 27.5742C25.3186 27.6125 25.4061 27.6282 25.4928 27.6195C25.5795 27.6108 25.6621 27.5781 25.7313 27.5251L34.5051 20.8601C34.5622 20.8171 34.6086 20.7614 34.6405 20.6974C34.6724 20.6335 34.689 20.563 34.689 20.4915C34.689 20.42 34.6724 20.3495 34.6405 20.2855C34.6086 20.2216 34.5622 20.1659 34.5051 20.1229H34.5035Z" fill="#4E4E4E"/>
</svg>
