<svg width="50" height="50" viewBox="0 0 50 50" fill="none" xmlns="http://www.w3.org/2000/svg">
<path fill-rule="evenodd" clip-rule="evenodd" d="M50 25C50 38.8071 38.8071 50 25 50C11.1929 50 0 38.8071 0 25C0 11.1929 11.1929 0 25 0C38.8071 0 50 11.1929 50 25ZM24.8087 38.4599C21.6974 38.4599 19.1661 35.9287 19.1661 32.8174H22.3009C22.3009 34.2002 23.4259 35.3252 24.8087 35.3252C26.1913 35.3252 27.3166 34.2002 27.3166 32.8174H30.4513C30.4513 35.9288 27.9199 38.4599 24.8087 38.4599ZM34.5891 27.7952H33.7741V20.8361C33.7741 16.3659 30.5743 12.6414 26.376 11.8873V11.1811C26.376 10.3155 25.6741 9.61377 24.8087 9.61377C23.943 9.61377 23.2413 10.3155 23.2413 11.1811V11.8873C19.0429 12.6414 15.8433 16.3657 15.8433 20.8361V27.7952H15.0283C14.1627 27.7952 13.4609 28.4971 13.4609 29.3626C13.4609 30.2281 14.1627 30.9299 15.0283 30.9299H34.5891C35.4547 30.9299 36.1565 30.2281 36.1565 29.3626C36.1565 28.497 35.4547 27.7952 34.5891 27.7952ZM18.9781 20.8361C18.9781 17.552 21.5937 14.8801 24.8087 14.8801C28.0238 14.8801 30.6394 17.552 30.6394 20.8361V27.7952H18.9781V20.8361ZM20.4619 23.4702C20.4619 24.3358 21.1636 25.0375 22.0293 25.0375C22.895 25.0375 23.5966 24.3358 23.5966 23.4702V20.5862C23.5966 19.7205 22.895 19.0188 22.0293 19.0188C21.1636 19.0188 20.4619 19.7205 20.4619 20.5862V23.4702Z" fill="#494949"/>
</svg>
