<svg width="45" height="45" viewBox="0 0 45 45" fill="none" xmlns="http://www.w3.org/2000/svg">
<path d="M6.59026 38.4101C15.3795 47.1966 29.6229 47.1966 38.41 38.4101C47.197 29.6235 47.1964 15.3767 38.41 6.59011C29.6235 -2.19643 15.3751 -2.19753 6.59026 6.59176C-2.19456 15.3811 -2.19895 29.623 6.59026 38.4101ZM10.4965 20.1229L19.2681 13.4584C19.3373 13.4054 19.4199 13.3727 19.5067 13.364C19.5934 13.3553 19.6808 13.371 19.7591 13.4093C19.8374 13.4476 19.9035 13.507 19.9499 13.5808C19.9963 13.6546 20.0212 13.7398 20.0218 13.827V16.8093C20.0224 16.9241 20.0653 17.0347 20.1424 17.1198C20.2194 17.205 20.3251 17.2587 20.4393 17.2707C26.6923 17.964 32.2136 21.7324 33.6281 27.502C34.4625 30.9079 34.3367 31.0145 34.1285 31.1886C34.0679 31.2395 33.9955 31.2743 33.9179 31.2897C33.8403 31.3052 33.7601 31.3008 33.6847 31.277L33.6654 31.271C33.4457 31.1979 33.3545 31.0046 33.3051 30.9002C32.9562 30.1586 31.4994 27.641 30.2909 26.3704C27.9288 23.8885 24.4411 23.4699 20.4618 23.7204C20.3433 23.7274 20.2319 23.7793 20.1502 23.8655C20.0686 23.9518 20.0229 24.0659 20.0224 24.1846V27.1565C20.0218 27.2437 19.9969 27.3289 19.9505 27.4027C19.904 27.4765 19.838 27.5359 19.7597 27.5742C19.6814 27.6125 19.5939 27.6282 19.5072 27.6195C19.4205 27.6108 19.3379 27.5781 19.2687 27.5251L10.4949 20.8601C10.4378 20.8171 10.3914 20.7614 10.3595 20.6974C10.3276 20.6335 10.311 20.563 10.311 20.4915C10.311 20.42 10.3276 20.3495 10.3595 20.2855C10.3914 20.2216 10.4378 20.1659 10.4949 20.1229H10.4965Z" fill="#4E4E4E"/>
</svg>
