<svg width="45" height="45" viewBox="0 0 45 45" fill="none" xmlns="http://www.w3.org/2000/svg">
<path d="M22.5 0C28.4674 0 34.1903 2.37053 38.4099 6.5901C42.6295 10.8097 45 16.5326 45 22.5C45 28.4674 42.6295 34.1903 38.4099 38.4099C34.1903 42.6295 28.4674 45 22.5 45C16.5326 45 10.8097 42.6295 6.5901 38.4099C2.37053 34.1903 0 28.4674 0 22.5C0 16.5326 2.37053 10.8097 6.5901 6.5901C10.8097 2.37053 16.5326 0 22.5 0ZM22.3003 30.0741C22.0542 30.0645 21.8088 30.1063 21.5797 30.1968C21.3507 30.2874 21.143 30.4247 20.97 30.6C20.7933 30.7653 20.655 30.9673 20.5646 31.1918C20.4742 31.4162 20.4341 31.6577 20.4469 31.8994C20.4469 32.4253 20.5987 32.8556 20.97 33.2269C21.3412 33.5672 21.7744 33.7528 22.3003 33.7528C22.8263 33.7528 23.2566 33.5672 23.6278 33.2269C23.8119 33.0596 23.9571 32.8541 24.0533 32.6248C24.1495 32.3955 24.1943 32.1479 24.1847 31.8994C24.19 31.6584 24.1461 31.4189 24.0557 31.1955C23.9652 30.972 23.8302 30.7694 23.6587 30.6C23.4801 30.4245 23.2674 30.2873 23.0338 30.1968C22.8002 30.1064 22.5506 30.0646 22.3003 30.0741ZM22.7644 11.2528C20.5369 11.2528 18.8072 11.9334 17.5725 13.2919C16.3575 14.5659 15.7697 16.2591 15.7472 18.3684V18.45L15.7556 18.4838L15.7669 18.6019C15.8303 18.8712 15.9846 19.1103 16.204 19.2789C16.4233 19.4475 16.6941 19.5352 16.9706 19.5272C17.6175 19.5272 18.1434 19.0688 18.1884 18.4866L18.2053 17.9325C18.2784 16.6809 18.6131 15.6881 19.2094 14.9316C19.9519 13.9106 21.0938 13.4156 22.6406 13.4156C23.9372 13.4156 24.9581 13.7559 25.6697 14.4984C26.3475 15.1791 26.7188 16.1353 26.7188 17.3728C26.7188 18.2391 26.4094 19.0406 25.7906 19.8141C25.6078 20.0616 25.2366 20.4328 24.7416 20.9278C23.0738 22.41 22.0528 23.5856 21.6197 24.5109C21.2336 25.3537 21.0433 26.2729 21.0628 27.1997L21.06 27.8016L21.0572 27.8916C21.0572 28.53 21.6112 29.0475 22.2947 29.0475C22.9697 29.0475 23.5238 28.5413 23.535 27.9113V27.1997L23.5575 26.7103C23.6194 26.0719 23.8022 25.4897 24.1228 24.9441C24.4322 24.3872 24.8963 23.8331 25.5769 23.2453C26.9353 22.0388 27.7706 21.2372 28.08 20.8659C28.8534 19.845 29.2528 18.6384 29.2528 17.2491C29.2528 15.3928 28.6678 13.9416 27.5231 12.8897C26.3166 11.7787 24.7416 11.2528 22.7644 11.2528Z" fill="#4B4B4B"/>
</svg>
