<svg width="80" height="80" viewBox="0 0 80 80" fill="none" xmlns="http://www.w3.org/2000/svg">
<path fill-rule="evenodd" clip-rule="evenodd" d="M40 80C62.0914 80 80 62.0914 80 40C80 17.9086 62.0914 0 40 0C17.9086 0 0 17.9086 0 40C0 62.0914 17.9086 80 40 80ZM42.7705 34.4619H46.9231V24.7712H42.7705V34.4619ZM57.9993 53.8474V30.3093C57.9993 29.4433 57.5579 29.0069 56.2516 27.7153C55.8277 27.2963 55.3128 26.7872 54.6924 26.1442C54.3425 25.7819 54.023 25.4491 53.7298 25.1438C51.3601 22.6762 50.7107 22 49.69 22H26.1519C23.858 22 21.9993 23.8586 21.9993 26.1526V53.8474C21.9993 56.1414 23.858 58 26.1519 58H53.8468C56.1407 58 57.9993 56.1414 57.9993 53.8474ZM30.3087 35.8474C29.5426 35.8474 28.9231 35.2237 28.9231 34.4619V24.7712C28.9231 24.0093 29.5468 23.3856 30.3087 23.3856H48.3087C49.0747 23.3856 49.6942 24.0093 49.6942 24.7712V34.4619C49.6942 35.2237 49.0705 35.8474 48.3087 35.8474H30.3087ZM52.4612 40C53.2273 40 53.8468 40.6237 53.8468 41.3856V55.233C53.8468 55.9949 53.2231 56.6186 52.4612 56.6186H27.5375C26.7714 56.6186 26.1519 55.9949 26.1519 55.233V41.3856C26.1519 40.6237 26.7756 40 27.5375 40H52.4612Z" fill="black"/>
</svg>
