<svg width="45" height="45" viewBox="0 0 45 45" fill="none" xmlns="http://www.w3.org/2000/svg">
<circle cx="22.5" cy="22.5" r="22.5" fill="black"/>
<path d="M31.3955 13.7341C30.9631 13.2683 30.2832 13.0932 29.6339 13.0306C28.9527 12.9653 28.1352 13.0084 27.2565 13.1238C25.4935 13.3545 23.3635 13.8898 21.3156 14.5488C19.2676 15.2079 17.2711 16.0017 15.7765 16.7608C15.0327 17.139 14.3862 17.5227 13.9177 17.8898C13.6919 18.0604 13.4883 18.2584 13.3115 18.4793C13.1585 18.6795 12.9973 18.9659 13 19.3079C13.0056 20.2088 13.6187 20.8456 14.2722 21.2724C14.9395 21.709 15.8085 22.0371 16.6719 22.2957C17.5436 22.5557 18.4626 22.7573 19.251 22.9214L19.5332 22.9798C20.0101 23.0771 20.2478 23.1271 20.4731 23.0604C20.6955 22.9923 20.8693 22.8199 21.2141 22.4765L24.626 19.0646C24.8025 18.9056 25.0333 18.8204 25.2708 18.8266C25.5083 18.8328 25.7344 18.9299 25.9024 19.0979C26.0704 19.2659 26.1675 19.4919 26.1737 19.7294C26.1799 19.967 26.0947 20.1978 25.9357 20.3743L22.7546 23.5567C22.4028 23.9085 22.2263 24.0837 22.1609 24.3117C22.0942 24.5397 22.147 24.7816 22.2555 25.2655C22.6712 27.1424 23.0326 28.6926 23.3927 29.7367C23.6013 30.3457 23.839 30.874 24.1393 31.2619C24.4508 31.6679 24.8762 31.9752 25.4365 31.9988C25.7841 32.0155 26.0761 31.8556 26.2735 31.7082C26.4834 31.5525 26.6809 31.344 26.863 31.1159C27.23 30.6571 27.6152 30.0231 27.9989 29.2891C28.7705 27.8153 29.5867 25.8397 30.279 23.807C30.9686 21.7744 31.5442 19.6555 31.8223 17.894C31.9599 17.0153 32.0281 16.1992 31.9891 15.5165C31.9544 14.8672 31.8167 14.1874 31.3955 13.7341Z" fill="white"/>
</svg>
