<svg width="80" height="80" viewBox="0 0 80 80" fill="none" xmlns="http://www.w3.org/2000/svg">
<circle cx="40" cy="40" r="40" fill="black"/>
<path d="M37.216 42.5904C39.2232 42.5868 41.194 42.0547 42.9302 41.0475C43.7822 40.5574 44.5693 39.9623 45.273 39.2761C45.4637 39.1997 45.6361 39.0839 45.7789 38.9361C45.9217 38.7884 46.0317 38.6122 46.1015 38.4189C46.0908 38.3336 46.0908 38.2472 46.1015 38.1618C47.1297 36.9631 47.8721 35.5465 48.2729 34.0189C48.528 33.0882 48.6529 32.1267 48.6443 31.1618C48.6373 29.1474 48.0844 27.1726 47.0444 25.4474C46.0398 23.7076 44.5944 22.2633 42.8538 21.2601C41.1132 20.2569 39.1389 19.7303 37.1299 19.7334C35.121 19.7364 33.1483 20.269 31.4107 21.2775C29.6732 22.2859 28.2322 23.7346 27.2329 25.4775C26.2337 27.2205 25.7115 29.196 25.7191 31.205C25.7267 33.2141 26.2637 35.1856 27.276 36.9209C28.2884 38.6563 29.7403 40.0941 31.4854 41.0894C33.2305 42.0848 35.2071 42.6025 37.216 42.5904ZM47.4444 48.3047C46.7027 47.661 45.8759 47.1226 44.9873 46.7047C44.6523 46.5352 44.309 46.3826 43.9587 46.2476C43.6259 46.0819 43.2822 45.9387 42.9302 45.819C42.1348 45.5711 41.3062 45.4458 40.4731 45.4475H33.9304C33.107 45.4508 32.2886 45.576 31.5019 45.819C29.5269 46.2876 27.7124 47.2738 26.2449 48.6761C25.1754 49.7542 24.3315 51.0346 23.7624 52.4426C23.1934 53.8505 22.9106 55.3577 22.9307 56.8762C22.9307 57.6339 23.2317 58.3607 23.7675 58.8965C24.3033 59.4323 25.03 59.7333 25.7878 59.7333H48.6443C49.4021 59.7333 50.1288 59.4323 50.6646 58.8965C51.2004 58.3607 51.5014 57.6339 51.5014 56.8762C51.5444 56.3819 51.5444 55.8848 51.5014 55.3905C51.0677 52.6095 49.6231 50.0865 47.4444 48.3047ZM59.6726 43.0761C59.7672 42.8023 59.9444 42.5645 60.1798 42.3957C60.4152 42.2268 60.6972 42.1351 60.9869 42.1332H62.9297V39.2761H60.9869C60.6972 39.2742 60.4152 39.1825 60.1798 39.0137C59.9444 38.8448 59.7672 38.6071 59.6726 38.3332C59.5948 38.0885 59.4993 37.8498 59.3869 37.6189C59.2586 37.3585 59.2144 37.0646 59.2605 36.7779C59.3065 36.4913 59.4406 36.226 59.6441 36.0189L61.0154 34.6475L58.9869 32.6189L57.6441 34.0189C57.4348 34.2286 57.1643 34.3664 56.8717 34.4127C56.5791 34.4589 56.2793 34.411 56.0156 34.2761L55.3013 34.0189C55.0158 33.916 54.7705 33.7248 54.601 33.4731C54.4315 33.2213 54.3465 32.9222 54.3585 32.6189V30.7046H51.9014V31.1618C51.9019 33.2088 51.4737 35.2332 50.6443 37.1046C50.788 37.0122 50.9412 36.9356 51.1014 36.8761C51.2179 36.7801 51.3547 36.7117 51.5014 36.6761C51.9584 36.5058 52.4422 36.4187 52.9299 36.4189C53.4181 36.4135 53.9029 36.5007 54.3585 36.6761L54.787 36.8475C55.6769 37.2555 56.395 37.9635 56.8156 38.8475C56.8759 38.9858 56.9237 39.1292 56.9584 39.2761C57.1338 39.7317 57.221 40.2165 57.2155 40.7047C57.2158 41.1924 57.1287 41.6762 56.9584 42.1332C56.9281 42.2722 56.8801 42.4066 56.8156 42.5332C56.3868 43.4184 55.6721 44.1331 54.787 44.5618C54.6551 44.6433 54.5102 44.7013 54.3585 44.7333C53.9029 44.9086 53.4181 44.9959 52.9299 44.9904C52.4422 44.9906 51.9584 44.9036 51.5014 44.7333C51.3571 44.7062 51.2205 44.6476 51.1014 44.5618C50.2254 44.1477 49.5119 43.4542 49.0729 42.5904L48.9015 42.1904C48.7243 41.7154 48.6371 41.2116 48.6443 40.7047C48.6291 40.5813 48.6291 40.4566 48.6443 40.3332C48.3218 40.7848 47.9584 41.2056 47.5586 41.5904C47.0874 42.0482 46.5811 42.4685 46.0444 42.8475C46.0598 42.9229 46.0598 43.0007 46.0444 43.0761L46.3301 43.7904C46.412 44.0605 46.412 44.3488 46.3301 44.619C49.2129 45.8771 51.6303 48.0049 53.2442 50.7047H54.3585V48.7619C54.356 48.4711 54.446 48.1871 54.6155 47.9509C54.785 47.7147 55.0251 47.5384 55.3013 47.4476L56.0156 47.1333C56.2788 47.0085 56.5745 46.969 56.8613 47.0202C57.1481 47.0714 57.4117 47.2108 57.6155 47.419L58.9869 48.7904L61.0154 46.7618L59.6441 45.4475C59.4406 45.2404 59.3065 44.9752 59.2605 44.6885C59.2144 44.4019 59.2586 44.108 59.3869 43.8475C59.4963 43.5959 59.5917 43.3383 59.6726 43.0761Z" fill="white"/>
</svg>
