<svg width="50" height="50" viewBox="0 0 50 50" fill="none" xmlns="http://www.w3.org/2000/svg">
<path d="M20.6016 25.0016C20.6016 26.1685 21.0651 27.2877 21.8903 28.1128C22.7155 28.938 23.8346 29.4016 25.0016 29.4016C26.1685 29.4016 27.2877 28.938 28.1128 28.1128C28.938 27.2877 29.4016 26.1685 29.4016 25.0016C29.4016 23.8346 28.938 22.7155 28.1128 21.8903C27.2877 21.0651 26.1685 20.6016 25.0016 20.6016C23.8346 20.6016 22.7155 21.0651 21.8903 21.8903C21.0651 22.7155 20.6016 23.8346 20.6016 25.0016Z" fill="#494949"/>
<path d="M25 0C11.2 0 0 11.2 0 25C0 38.8 11.2 50 25 50C38.8 50 50 38.8 50 25C50 11.2 38.8 0 25 0ZM38.3 28.4C38 29.65 37.5 30.85 36.85 31.9C36.7 32.15 36.5 32.35 36.25 32.45L36.1 32.3C35.05 31.25 33.35 31.25 32.3 32.3C31.25 33.35 31.25 35.05 32.3 36.1L32.45 36.25C32.35 36.5 32.15 36.7 31.9 36.85C30.8 37.5 29.65 38 28.4 38.3C28.15 38.35 27.9 38.35 27.65 38.3V38.1C27.65 36.6 26.45 35.4 24.95 35.4C23.45 35.4 22.25 36.6 22.25 38.1V38.35C22 38.4 21.75 38.45 21.5 38.35C20.25 38.05 19.05 37.55 18 36.9C17.75 36.75 17.55 36.55 17.45 36.3L17.6 36.15C18.65 35.1 18.65 33.4 17.6 32.35C16.55 31.3 14.85 31.3 13.8 32.35L13.65 32.5C13.4 32.4 13.2 32.2 13.05 31.95C12.4 30.85 11.9 29.7 11.6 28.45C11.55 28.2 11.55 27.95 11.6 27.7H11.8C13.3 27.7 14.5 26.5 14.5 25C14.5 23.5 13.3 22.3 11.8 22.3H11.55C11.5 22.05 11.45 21.8 11.55 21.55C11.85 20.3 12.35 19.1 13 18.05C13.15 17.8 13.35 17.6 13.6 17.5L13.75 17.65C14.8 18.7 16.5 18.7 17.55 17.65C18.6 16.6 18.6 14.9 17.55 13.85L17.4 13.7C17.5 13.45 17.7 13.25 17.95 13.1C19.05 12.45 20.2 11.95 21.45 11.65C21.7 11.6 21.95 11.6 22.2 11.65V11.9C22.2 13.4 23.4 14.6 24.9 14.6C26.4 14.6 27.6 13.4 27.6 11.9V11.65C27.85 11.6 28.1 11.55 28.35 11.65C29.6 11.95 30.8 12.45 31.85 13.1C32.1 13.25 32.3 13.45 32.4 13.7L32.25 13.85C31.2 14.9 31.2 16.6 32.25 17.65C33.3 18.7 35 18.7 36.05 17.65L36.2 17.5C36.45 17.6 36.65 17.8 36.8 18.05C37.45 19.15 37.95 20.3 38.25 21.55C38.3 21.8 38.3 22.05 38.25 22.3H38.05C36.55 22.3 35.35 23.5 35.35 25C35.35 26.5 36.55 27.7 38.05 27.7H38.3C38.35 27.9 38.35 28.15 38.3 28.4Z" fill="#494949"/>
</svg>
