<svg width="100" height="100" viewBox="0 0 100 100" fill="none" xmlns="http://www.w3.org/2000/svg">
<path d="M50.0002 0C22.5001 0 0 22.5 0 50.0003C0 77.5001 22.5001 100 50.0003 100C77.5 100 100 77.5001 100 50.0003C100 22.4999 77.4999 0 50.0002 0ZM51.25 14.9999C70.3126 14.9999 70.3126 29.3752 70.3126 37.4998C70.3126 45.6253 62.8125 60.6252 51.25 60.9373C40.0001 60.9373 32.1875 45.9375 32.1875 37.4998C32.1876 29.3751 32.1876 14.9999 51.25 14.9999ZM50.0003 97.1875C35.6251 97.1875 22.5001 90.6247 13.7501 80.3127C14.9999 77.1874 16.5625 73.7499 18.7502 71.8751C23.4374 68.1247 37.4999 61.8749 37.4999 61.8749L46.2499 78.7501L47.8124 74.6874L45.3125 69.6874L50.3126 64.6877L55.3127 69.6874L53.1249 74.9998L54.3751 79.0626L63.4375 62.5C63.4375 62.5 77.4999 68.7498 82.1876 72.5002C84.3748 74.0624 85.9374 76.8752 86.875 79.3748C78.4375 90.3125 65.0001 97.1875 50.0003 97.1875Z" fill="#494949"/>
</svg>
